<mxfile host="Electron" modified="2024-07-24T15:01:34.758Z" agent="Mozilla/5.0 (Windows NT 10.0; Win64; x64) AppleWebKit/537.36 (KHTML, like Gecko) draw.io/24.6.4 Chrome/124.0.6367.207 Electron/30.0.6 Safari/537.36" etag="OBZTIVZk7DuQMzs0fnT7" version="24.6.4" type="device">
  <diagram name="Page-1" id="DCVtjps9X2ybl2z7oij0">
    <mxGraphModel dx="446" dy="286" grid="1" gridSize="10" guides="1" tooltips="1" connect="1" arrows="1" fold="1" page="1" pageScale="1" pageWidth="850" pageHeight="1100" math="0" shadow="0">
      <root>
        <mxCell id="0" />
        <mxCell id="1" parent="0" />
        <mxCell id="0EpXQb5gd15LvrJzalUh-34" value="" style="rounded=1;whiteSpace=wrap;html=1;dashed=1;strokeColor=#d80073;" vertex="1" parent="1">
          <mxGeometry x="47" y="240" width="623" height="370" as="geometry" />
        </mxCell>
        <mxCell id="0EpXQb5gd15LvrJzalUh-1" value="S3&lt;br&gt;(Store Input/Output)" style="sketch=0;points=[[0,0,0],[0.25,0,0],[0.5,0,0],[0.75,0,0],[1,0,0],[0,1,0],[0.25,1,0],[0.5,1,0],[0.75,1,0],[1,1,0],[0,0.25,0],[0,0.5,0],[0,0.75,0],[1,0.25,0],[1,0.5,0],[1,0.75,0]];outlineConnect=0;fontColor=#232F3E;fillColor=#7AA116;strokeColor=#ffffff;dashed=0;verticalLabelPosition=bottom;verticalAlign=top;align=center;html=1;fontSize=12;fontStyle=0;aspect=fixed;shape=mxgraph.aws4.resourceIcon;resIcon=mxgraph.aws4.s3;" vertex="1" parent="1">
          <mxGeometry x="240" y="400" width="78" height="78" as="geometry" />
        </mxCell>
        <mxCell id="0EpXQb5gd15LvrJzalUh-16" style="edgeStyle=orthogonalEdgeStyle;rounded=0;orthogonalLoop=1;jettySize=auto;html=1;" edge="1" parent="1" source="0EpXQb5gd15LvrJzalUh-2" target="0EpXQb5gd15LvrJzalUh-3">
          <mxGeometry relative="1" as="geometry" />
        </mxCell>
        <mxCell id="0EpXQb5gd15LvrJzalUh-2" value="SQS Queue" style="sketch=0;points=[[0,0,0],[0.25,0,0],[0.5,0,0],[0.75,0,0],[1,0,0],[0,1,0],[0.25,1,0],[0.5,1,0],[0.75,1,0],[1,1,0],[0,0.25,0],[0,0.5,0],[0,0.75,0],[1,0.25,0],[1,0.5,0],[1,0.75,0]];outlineConnect=0;fontColor=#232F3E;fillColor=#E7157B;strokeColor=#ffffff;dashed=0;verticalLabelPosition=bottom;verticalAlign=top;align=center;html=1;fontSize=12;fontStyle=0;aspect=fixed;shape=mxgraph.aws4.resourceIcon;resIcon=mxgraph.aws4.sqs;labelBackgroundColor=default;" vertex="1" parent="1">
          <mxGeometry x="400" y="260" width="78" height="78" as="geometry" />
        </mxCell>
        <mxCell id="0EpXQb5gd15LvrJzalUh-17" style="edgeStyle=orthogonalEdgeStyle;rounded=0;orthogonalLoop=1;jettySize=auto;html=1;startArrow=classic;startFill=1;" edge="1" parent="1" source="0EpXQb5gd15LvrJzalUh-3" target="0EpXQb5gd15LvrJzalUh-4">
          <mxGeometry relative="1" as="geometry" />
        </mxCell>
        <mxCell id="0EpXQb5gd15LvrJzalUh-3" value="Lambda&lt;br&gt;(Image Processing)" style="sketch=0;points=[[0,0,0],[0.25,0,0],[0.5,0,0],[0.75,0,0],[1,0,0],[0,1,0],[0.25,1,0],[0.5,1,0],[0.75,1,0],[1,1,0],[0,0.25,0],[0,0.5,0],[0,0.75,0],[1,0.25,0],[1,0.5,0],[1,0.75,0]];outlineConnect=0;fontColor=#232F3E;fillColor=#ED7100;strokeColor=#ffffff;dashed=0;verticalLabelPosition=bottom;verticalAlign=top;align=center;html=1;fontSize=12;fontStyle=0;aspect=fixed;shape=mxgraph.aws4.resourceIcon;resIcon=mxgraph.aws4.lambda;" vertex="1" parent="1">
          <mxGeometry x="400" y="400" width="78" height="78" as="geometry" />
        </mxCell>
        <mxCell id="0EpXQb5gd15LvrJzalUh-4" value="Bedrock&lt;br&gt;(Sonnet Model)" style="sketch=0;points=[[0,0,0],[0.25,0,0],[0.5,0,0],[0.75,0,0],[1,0,0],[0,1,0],[0.25,1,0],[0.5,1,0],[0.75,1,0],[1,1,0],[0,0.25,0],[0,0.5,0],[0,0.75,0],[1,0.25,0],[1,0.5,0],[1,0.75,0]];outlineConnect=0;fontColor=#232F3E;fillColor=#01A88D;strokeColor=#ffffff;dashed=0;verticalLabelPosition=bottom;verticalAlign=top;align=center;html=1;fontSize=12;fontStyle=0;aspect=fixed;shape=mxgraph.aws4.resourceIcon;resIcon=mxgraph.aws4.bedrock;" vertex="1" parent="1">
          <mxGeometry x="550" y="400" width="78" height="78" as="geometry" />
        </mxCell>
        <mxCell id="0EpXQb5gd15LvrJzalUh-14" style="edgeStyle=orthogonalEdgeStyle;rounded=0;orthogonalLoop=1;jettySize=auto;html=1;" edge="1" parent="1" source="0EpXQb5gd15LvrJzalUh-5" target="0EpXQb5gd15LvrJzalUh-1">
          <mxGeometry relative="1" as="geometry" />
        </mxCell>
        <mxCell id="0EpXQb5gd15LvrJzalUh-5" value="Documents&lt;br&gt;(Aadhar, PAN&lt;br&gt;Any Govt Document)" style="sketch=0;outlineConnect=0;fontColor=#232F3E;gradientColor=none;fillColor=#232F3D;strokeColor=none;dashed=0;verticalLabelPosition=bottom;verticalAlign=top;align=center;html=1;fontSize=12;fontStyle=0;aspect=fixed;pointerEvents=1;shape=mxgraph.aws4.documents3;" vertex="1" parent="1">
          <mxGeometry x="110" y="400" width="57" height="78" as="geometry" />
        </mxCell>
        <mxCell id="0EpXQb5gd15LvrJzalUh-15" style="edgeStyle=orthogonalEdgeStyle;rounded=0;orthogonalLoop=1;jettySize=auto;html=1;" edge="1" parent="1" source="0EpXQb5gd15LvrJzalUh-1">
          <mxGeometry relative="1" as="geometry">
            <mxPoint x="400" y="300" as="targetPoint" />
            <Array as="points">
              <mxPoint x="279" y="300" />
              <mxPoint x="400" y="300" />
            </Array>
          </mxGeometry>
        </mxCell>
        <mxCell id="0EpXQb5gd15LvrJzalUh-18" style="edgeStyle=orthogonalEdgeStyle;rounded=0;orthogonalLoop=1;jettySize=auto;html=1;entryX=1;entryY=0.5;entryDx=0;entryDy=0;entryPerimeter=0;startArrow=classic;startFill=1;" edge="1" parent="1" source="0EpXQb5gd15LvrJzalUh-3" target="0EpXQb5gd15LvrJzalUh-1">
          <mxGeometry relative="1" as="geometry" />
        </mxCell>
        <mxCell id="0EpXQb5gd15LvrJzalUh-19" value="" style="group" vertex="1" connectable="0" parent="1">
          <mxGeometry x="70" y="400" width="31.170000000000005" height="90" as="geometry" />
        </mxCell>
        <mxCell id="0EpXQb5gd15LvrJzalUh-10" value="" style="shape=image;verticalLabelPosition=bottom;labelBackgroundColor=default;verticalAlign=top;aspect=fixed;imageAspect=0;image=data:image/webp,UklGRqpYAABXRUJQVlA4IJ5YAACwGwGdASq2ARkBPlEkj0WjoiESTYX8OAUEsrbUxAQgoBRpDBvHUiuRb0dhDwBvHf6brq9ADKIegFR0/wf2l9En7L/vLwHmNxfV/2tSz8r+l0c3K36vUXLwZmVafeEf5B9C/dP75/lv89/cf23+Tb+t8qXYf7L+pX8t+3P4D+/fuf/evfD/cfcr6x/H/+l/x/5YfIL+M/yX/A/2/90P8H8M33nhBbN/s/+Z/mvYU9ffov+r/vv5Femb/jf4r1u/Of7R/of8D+S32CfyL+ef5X+6fkl9Bf7TxXfJPYF/qn+N/a33V/6//xf6j8zPfN9Jf9r/J/6f9sPsV/m39p/4v+E/0X7Uku38/7SV78xCaim6YDjgtm3qXRoazjX7n+feC/yix47OblUVZWPQBbbrLFwXGploDtPVU2QVgQlPY84/qEEDTGU5WQXHUpyGyWYiAShrHcImZmG9LkKQ4QWkamM8/IhLCOp69649vf2y8RJdn1MZyLF44Ikzk2rwuu9DqASrcHCPv+1sPXXfbEs9wb9uPdcxnT/M1LYRXPPnNfeX0zGKRVsftqD8L0YV3WAYwkPeOuRMk4is19r4k5uvwk8dyCx9hzFqyWqpEFL0ZhQ4DyDBOSISrvpqHTK6n9Z50yz16Z9cIRp3c+q/vCfh4MvxIr+Zu+0ffu0bCHd6o39kewGplHwflqwrxEYLBRTzxoKUBnHLBZZQesEweQqO/vWp8DIikN3/x8r1OQ6/KlHiPAsFh0nXqMn5W4cRNBJXE0Zub2mhFPBZwBikql/VvGjOrT+TmuqfhGzUuqWSvRB/2KKklaaR9h6Fl/E4GwcCNmAOrWVFnn2VMDopV3Jzf2qyRGBbs+vfvZw7j3O39NADvdsaiVsrSXuHl8H+pn4fRH5thTgqAbjTYUJAslvS7bETGb74RCSPiRvqb6H8URkYAhx+a/SPGHpHsRXtKmu30oZMAod0HQQw23plBmUJeYMpWjkOtZpWT/Tup5S32dV80kZJBY+J4PF2tuwMEbpPDQOIJ4uNsqQBopF9WVI/3G+uRNHoRAPyIzppD1+EO3C+fPwlGEbexCUttY+FNojSUIY9BjAoP6ADwNt8trmpAjezogVQxXlfL7jSy/mmnQOx7c5pmgAWL64EqG1hOj8W2bsKUMmE1EjNNW0lFlXtrPVftmXVzwN0SsX0+4/qSSFL7MiaHBn4qeTRiQXHDCG56mnhrDNa47f8Y4Z+2o7602u9VibIfP5dhl9x22S3YbS2fOk9lzpi04PJ14sDP+Y8LYUZSWlvUGygZkD+Gj6u3TEkqqLZmMEjEtir0z5EniDWx0iSb0Fid3LZFtk627YPKsMcUzavdrTMOuM3/HpIOKsphGm8UHun6Mz+LkkhwMqAccAEbcQD0qDP52P1l3mIMPam+fW0l8bfOBc6h7sSmE2DCi7HN3Ye8q+DJ7ZLBqPaWq68fN9bm0uNJUQ3v6A+V3xjrr9B/RQU8vf41/uyqW9pFXMY0tVkQghr6NsGBy8VmvXzbneG9SkII9Y79pWcHZ3qeHwazVtfjEPLXmKfQgdP/K4l//z6aYbpQr6uuu+D986de9lqqAj1+12WT2lU+ldBe0vti+hSEeeBZYvN+vWO22/Bl7l/aQi6De1/OUYSEKorfiknacJLlrU3NN7RanjCt2mOWCoCa7xJxgg0h6X3fXjb+KMw65KmHb0vg1HD1iyxPvRujp84wDrIsWZMqYBo90fxGm4kXcvZtPtNLRkCvwhrKj7qdVn5NKQqxGgy56fz3TcOLo3Q9TgrJSvVLyz/91vHh/chb/TTyIqHmygs0Z1JS2ei0AsDv6gIHL+pyL1iAgV86WAo2lLGm38zIDu6pCV0wIJMmKibmixqjAnAGTb34x0Ke+3Pf9jsN9lpSCbl5k5juwED8dYK8KLa1dSVX6u+BHJROP7DIP3oJZ8dXyilDBc0s/RQM/4K3ePeL6uINOaEZF1TxUoguZRNWNjElDMxgvDSrXCAf7Bkw2uT1TUT4m4tyOl74xZEw7+4X1N8am2MIjFctePWrOjNyjezuCc7zs/T6DX/oHgkJH/03vg68oQpitTJRSHJQbe+3jINz/YhJo4dNKT/2jpoMoNUHvp9C1uASejIh9UQMuTbaMowfitvLpdpRAR7IK5rkGn9ZRDwFha/wEuLBWytzE2rX7Hi3aedkm513SZJEwl3lIWo1dscNRLUBaeMy9eEa4g3PHY0bysm8dN72myOerOCj9EpG0W2ITuC+P/B4jC6GH392Zz0FXxIZx9lNfCPeaIL1lf+DV42qLJj7iFf3+yqZKQPb8RbnGPL7HgokA87NnJoRVtqwTAbry0uBtEEvR3111bRQb2dHXronZFFyVDFiGjLh7VJvuXObnZwbuaBrKF+64ehFgyi4a/LbbpzDtkpgZRbTdWXY+IoDuP8y2PAZL0arNdIhQ5lXjbcpHBilK93/UM8mO47MvGAy4y3ps1FiIjW55ZgEey+qQOXJ9fxfyPFefE90qLxULdYScN/T1ld/u9WLtc2TiJuVr0CpTfni/wVo9xqHtEhnGMvF3yt7/FBLtaSF+tQ7/j44GBArkBD/930ZFKP3UK+j9tpGPxoyngkhkcgN9rFrWs32obipvrg5M6KG3U941Igfiv2MF7xdsOHyjskWwlZl2Qrle3kU1RLMp1cefSOqT68wwCYqjbZSN0TmCzgIoqlVcfIwVom1vyP6b5w3CwfC6VBYeV72I3AmlQaWeO6obujywYnJiLzTJC5/2cb4JZp/nO+6vJ3EaHkBNLyqLWX7AgVSrouGq9WETgV2AZi1eIUrIV9baGgLKJFdKGStMAUWkJZTpxk07kRjIMroKBsb49tjIkFFWCQiYZpM0U8U8+hONHajtmxii+HxTlGU/ZNFYxspya9BqTzEPKlNhQepi8KDk3h3shL2c9CBTUqylHOWYbcUw5KlK982T0vh15ixDb1P6UYjZtOuglmZJDFk2I+Xe0kSQeNwX+Ru5UHlHj8k4u+llEynaq1A0JmU/WS0jRT24rYkWIwAP7/Lh5xDLobPW6KPxZsP1qN5Qmc3HrZKzPuFImFWfQO15s/OQC/7rfQPS9J+JXRN9rzd6lvxFVAjiCctCaVAZ7cnSXF7wPGlPGhX3ReabEG6G0Oz7y2A6X+JdG1A1aEH71qqsjOXrIdnVVIanKQ8u2SJPCVxhA+iXwmi9uWqzmqWCRCiga37xnkhTrj+KE+0/Nqs1jUGPAOSysc73gmPkE3E0lcwTfOZTD+AnvMqGHix6BwvHpwge6aINops9b8Su1lwExvlNPrliZhQ7p/UbQNYud8882boPn2chvoRlvV6mvh1s4f8i4DFkJNFcljSincQ9EOJSE5DWXfYnNoHEQsLwV8u/F0slbk4rG0abxs1jgHlQ/uZI5B0SFw9b5QJR9IYUlVnotwzVrCboMG8mhgNUhGZaveQtoK5ePKcvQGewQU2b7wzkk1hjRwNbNHzK+j2NmBOeBJyD0viHIAYbk6he+sSVXr8x0cOOCQ5TCstP/KkJsGWE3JnR1eoQTbXAvpeAPh7QkclnI9PM0FjhiwI0YdgkYovHeaxrzamjAz58bdW+DzE2qKwxbez1m46OG9vajL+ZkD6jia5Yn8QCTKh/jNXMJCwU9ZTt+FSb8wQNJMk0/44TwcHlhSAlq7UKs046+Og5ikHJl1hsLPk3rt5kPZIUiOrKLJyTFysz0yXd2IgGY/Da+gA93ezg+iSE6/WVPR3XtkrTV5u+EVOGzlKVg8sihllGPjNfwBgfTdMFWlYFLHV0UU8njCEbzgLQm+/r7IKa3lt5XREUgvuGConMAt3ukPIq7X814JiFdDrTXwTDcI388vPJgKIwUhw7a4SBxo5YQtUQ5AXkFrowY83PsV4D2F5+xrvd0P7n0MZ6ZeaF+aa3jzBdBxM0M4UAT+/KTKgHQBQ8LyP9IxnomZCocN+jevpjDxVChAnLDcXprdpjtk6KtOgyZVuLxHR780luBtWeooiamvmxQ7h/vjLwN61s73s5knGCdiHQk05dqPdy7DrRD2KSUiZ0cjmwqLOCAacKiTJIaRrdz5lqwSmvufWuKeveM1bG9QOUS+vRO1w5VhwaY75/ldYJbP/g1tK6BpW42LHCdLxdyekeR2+111LkY0dyOV0aCcyknXlWgMF7JbNOvKglJMH6Dq2zy361t4FLD57IYSFIiwFgzE+OYZUCsVXKAazXcupSMppio4vKFYMgzoU6F8qo8BFNUJlN43ewvzFqzBetQpg+LPQheHvTbfr44d6lk/lnH4iobkFaRYgvPP54klpXjM2Vx6FQuKCWBYn4zwqCTPBIG+c3zvw3q1LT488DXdP+uyWDs050DGXaDNYsDVvdYsneAkHjMHbjJg3g7sk3VU59EUZkRRadKya/X0TDc+otroq4f5nxDinX6P3iinA/tOjm+UDyuQz+2gbBrDlCJaCfjZy1DkztuSTi+W8cPTAeNIan3DFgpbI5pXBISTs/81LNvxB+mEyCUllKjGxpzkg06HfFDEpK8I/aqoZZt/TVYdkdhvyrklUo5XJnEQ5koOT2xj+UeArRsKgwIO7JV7DH5Qpw9CcGVrBKL82+0hudbqJLWlN/FUiJpcED79d0SoJ520fxKXwyh0BazfvvgLq1fL4FCCZsBe7d6rYSoUyEwTpA+sWWZMwhk+/TUgcTEQkDILhnVEtAD7NIaELJc10cOQuK4fRtKBhtWdJ0CUZCQnvSRftp9J/acP3OS1uYkuoLh/vfRmLerqRn5bnRKqSU17TNQERIW3TIgeIH6xxhj/4aQaXjuYn49OmXBuowGkewbGDqZRH44UTRhO3rx1rrxkFRSShPOfmYhXJujp0/bLqHyVkD2qrkIkd8HwY0XP32R41pSBUcIxnFZdcPwGx5bgkiYJAZ4mPV/LFzqWQtg4SYfwLSVzgSgO+3nmhk6fg0GoDNOfiab9gjpaJFQNExv1aMIuTyMqFZwSMjs1t1fulCrtKiavW/BUNFguWE7pchxNHn2cjWbheEkVUtiODbRsKbL0uv9g1lRJUL9SVllPWtLx/v1eVf4YPp4vZWgOW9zAxph2HeD1mddZ7GC0AIaaRscGjeeXTYI1oD8DPIqC4pB0fWE2n4oKnguOgGM0fY9AFY06ntfmab2xQbdzdmdHf6HuAUFxGXf5Y0iQfdYWwz1xVxfTrZbK/7AtIc5d6hwHe9m7SVBEQNLEyBSHEO1QGNvzT6KFoSXfnp3hnaQ1xlpP76ASPW/6bbw44ZRAuEfN74Dg7et+rDX/8t6YxBo/tRNSm2Fa3p/34QX0Nh1Ora02rKzthjKD4vgvwcPcyizUo8WyJncG0KCSfFtNRkppczIemh2G5Jf/Q296lmhhBTI5/i7ocl0BUWkxF5/vtq/5N89st6W7cf7eX0/Yvbfie1zzqUR5jZW/7nFJLwlQXG9vcqYp9aKXl8Ww4/jUzAyZ+9Tfp2/SBgtWWrGavwcL+mUbU9swe8Zoj7KiIbcFQPAmLj8EKrXBsG8tSxlQgxE/XoEQis6vgOdeSEO5GHZd+Ut3qmL/hMELvQfECac5DEY9+IqKUoYEnmlqo9NoFElUHY23Zfjv6LM1b2LPSVD69QX5JUAIGfu+kOvR+MRY7pZmnc1vZdXxXEgemXvJff6ONeFlmWFOOA35daG3BwI7Yvpu1MJkDwBp/zpsTBuhEUSV/SNEUhe1VFEGo5FTGxMxZQ0LvLlNybRVVk/8h4vl0vy0aWJasVyRjRjJstZ3MCywh3dzmJiFbtdNPtG52LTwkqO2KZpx0hEvhG0+dVk35Us87oa1FVUAvkyn56Eq5gX6Qg5VgKxqFa5XFJxQxplCzDf7068fBd4WJutb4tj5wz0XDIOMnAvTcG6UkYL6oXNNI2MqUvSpeG4rqi9R19z71sAsKncq3moQqVYYhaaYRZMUE416JirqpKaZuHrVGMrMKgmpo0kZcpKYTIH0e2ChXRlrjNjJBt9xNZxByoYqwjkWBxOkceyszPUR2xn3olY0ShxNHDAycNiYQ23TS+pLFc36IojHXQtsPSYgSeIDroTbLwM1CsR3Ezk5NO0zwAU7vIQPbcUnQdVhK6Kv8l/u0igL+9XD/VIs83RjAhVPxmOmKh924M3GNKmWSb678j5ySe8tKQmxcBnrqrueOH/FgOkaXVhQ6eAh52gE6YpSwexcsBsMOJZz9MT94XgG9a1o3WoT5rWJXxWwbPJ3jA9w5+yl5wZRnenjNGS3ccI8oaNb25UbYD+U76LtMggXNGTXvXjn+KH3CtuPCFBrShwNNhyJqwNGMkXDDbG7vB8LpOUGLkmtjlsxOzPSaBRyw3e8OU2zMt9tmrzo5J4nzbq88IPy67wDMlzuESRDpSwD2G/fbJ1mB8I+ZCIB4Mx/6rTmRTqvYFwtlm4UMsE/fSKdsLmwAdMVTcCoie7Cz1UR/MuaCLp6//L24Kg9ZZI18WyhqTsf7VTWR/EyBR8ky4SLDPfwxOmKfYIb3G0QS4wphyvzo1WtTKQ6INN5BI/0qNzQ4T4GVJWlm/smiUm2GTh7S3EtGu+AfGnem+8s/Pwdh0c/ksyCOK8VltgcOFBGvkZqyhAYzrFHxjahwb+Jw/vCWu5p8nZCjMGXuCE2IMfk2hI5b9p4wen+toYN2COB0bn6+Oy7WQWW+WzFCoKPkA8LA0OLowEMZ4mho4zMexSxP/dJTF04g90xXq+jFhKUVVzipRKt0+xpq3sZdb+btWhdCp8hIGNXhzpu9XfkSgNlvjIXwCiBP9LO2DGOOg0GLLGmpAKCnc7N+8YE7YCPPeJv0lUE7IfyHYRbTFzgq6PtYySYYk87zKxz/PhQ/pBeKHRMg98GzWBS4N4tfouv2w/YLS58EJ85Exu5DdGEWIGYLe9Ng6YvspbJEqdU1BJT/8AL8JRGQuzyhucj7xGBIQQ7BEJUAZMUbYPzvmUOXsdojWKau8NwlSblt71iYKAgxe00DBS4Zn8j2mKSKm0CzYHrAoyUpTO4umQ2yqdAdizWfALFdrgwhUphPqLXC+eZiASJ73AwgJ0u5aPXNk3dLNVZjWq3U9mchQ90M5qJAUJeMrwkXmCCkHsqycMnu9ijYhd8Yc0/dPzm67AO9dd9kWjxCspRBGFB66k1CEUocY938ngCQneFvBC4YuHEM/ZTOE9S6cgnOiFn/5mSAKF9K8fEJMIOLoTjuKOp5lGIhDHz8gepkcnftZs4yG8LZzn2nlUSEQlttgtuAo2pjfFtNQ/22rNQBANvLhVAx6UmTWiE5xyQfQpCfYaTH7cZSFshdwY8reJcWwtYMrVAoWkulfQBrgh61eZrKaz2YpVqGv19a9MtybPq7aAZzjBBlXBnV+y5nv6a/Aw5NEUaOwzYGc+tUT7DLuA/AliqouohXUmUMPJgFARVap2KEJ/bQCsjcJ9B0LprvtsF1ao6KYJLQVindpX6K8cW43B941Sr38/thLn7b6fkz+j/4ovnm7Jtrkvc/aHZRBHCHXQhyYijJqyB70mfGkv2qusny42dl5K+1y7TwNqDaPMj4lLVGhFSucKcNNDAfMRzfy745tNLZuGwe13VKXunB3iPlCLk7+sbFAeMzRSywgRT6MlMWGi8SMHiWGazynk6ttz0402ivNMzl8Za3vHBTbw17Y4v3SzGU3yuShIxIOM/9bYHUkDSRdSDwoKYnfe0t7Wa6V0EngXa4VI9jBbNnx62HGcEc/CGB7QZW3pjT3vRKcMq8dgXyhhQAa4ZkJzWp2CrcM15VIgTQxsRMSlGo1lJzDyQmegGNmFtjOit1Pvi2QmfzOrRNngdSj4UdJ/qbb3cthHdwtdddihUXOPj8CXHzghyQmKSYTI5fIHmGgED4bUs/87FAP93CJhBaqihSWq3EYAL7zq7xTypxHqFSQtX5u9Gciysavsq7vJj9Ytt3N25WQsSm3tq13DlV+NDoKzlf8sQKSRO+PzKHIKCeQ2RlugO9V9OXBIdg+f5No4dp7M2tN3eM+DcBHCySnXUUv/KB9bypfKLSPmJ7oK7QVMX3IPw/WbpqEf4lFvQJ+gZxfNtMc3LsPm8tj/eO1tWAAjPXN+AUFBfLUq5BXxhOMrc/kqSTRhwcv72gv6ASYSSsc49MxFOsAKpl7w8a81wYyaPWpJIDIWBNAfKwbyizmOrz0PDqkJB8dqmDbin5Fi4MsgWss5XLpPkY6VucNkfv1PYTn1jznmAvl5i/Mkf5QmTmSAleDB/Dfodj5/fBQB3vmpI8hVaW0eYTo8gza/NLm+QlW72w+Hd+GSZBtM8DIDN6q/UtGw/Ncq9iQMfqUM7XD2Vx12OwgHVHSgXHbNMu1axyz4eAHKXmHm8xNG30a8pMeW+tndmiv4V/BK+7GVax2KKwX+QFdZiVI9LYhUYx/OkNeAUiX/9f+Y8veyu7+sfhxH5ydJ05X9awPSXPL3BWrnXEm0uFLqwfeOttXhMCgZ+683U7ulgsfmpqPBiB74OrODzgM+IHUgRMAxmAXIWhRElQMCYkj2XhmsaZvlbxGr+O4m8iTvM4mLgy4erNYsFQgDnGC7jj01bUZAKoRykJLknmG1vAJxzW96PGWm9SMxZUqMfzmXdCUa/B71sHm/0cCi6VDWKP43km+b0vSxJqouchDkjcai0UgAYDWJbqQoWHdCgMJOMRzTvASAc0194+FQVAujGWpSMpD+zheVhwmQs3BIVwoMGE1HzYECpZ1WgMVKOkYUq3AI+Dsx69QRE9XEvc6beJmjnXog0k4s26mHE2RB0stJYPr0MSi7kZlZiRaKxdCgKJVOlHJzZfWydWIBt0pKD/0eFNIOB4mEzUyYs0668105pqyrczA/THkdIyQ//CAfFTsGUsJ/CApr4h2W27CQ8h9H6DmHMHST0kipjo7+kBjNLnIMSPEczWWTbsZZF1bRVjtPmVW1Wl9pMf62aoH78eqqw96hkWBxeJdnBJvEsICMiughm7LTd2BKDOSMg5npNmcFNGreAO3b5v7pWR3IdKu3stO8BrApVf1rxMkWWK58AW7DL3dfozbqZicYXCmjgjzCfD3k+kl3jqcCoPKJ/ro2zdR1Molrhj7s4wQ0T6c9zUanBGc8J5pMo4KY0D4Y2L52J2Gfk/RICmSxhQKKjUHOJ7UnX/mb696a91GeXIV0x8gTxmwft0jKdEdqtS0jhweQtB+VfnGVeC7bL8nGXT8pxJmWHHK87kuOaUjEyToicrl85Jwgs3lOLt2GNYPGdKI7AeGNmdQCLmrghLl0cNUrgzpd1wXj10RZN/cN80xCdH9GQUR5BHFdLKCt4dFheM7mXGAIwkbTWesOwz6tcFyClypg43IfPyBRC5g1eC+VCR4U1L7zzfAfTvGVEgOY1scXc2cyIxMIvmWxhb9DJf4I7zsW96auMRumFEgBppJClF6HVBgqjlnG4pI4fDne91W7M72QU3DkV7G5+kzAMFid2Ns+hVrQub0tKY0kBJscsmEzZhOumxCHSqjHi4wySGZgDBe/rTThQPjEIAZ/YDhydROTHq/Srf7CPc6ENmwqf/HG3XV9ihLQ4AYsQWXRI8BfpvgAk849pn9t1KOqTUvAJ3z2lEO0Xm92UV5CA6e+WhwhNtNfj15CoCBEHmHXmijYjQh2qvSu3JNuddbvkMWKkeG8VoscQycW7O4KOZCGo0C8cLxRFFgB6WNjufzQHMcFpCxFfrDEE7zHsj3wVeAICud4gD7Jwkr7JWHUa+4aijq5bRP+fxKOt9/BYE+pHdLR70+GQm/8YQauvy4tUwgZf0l5jI/0gPuSMBDUp7B7gI7a9MCWyEf5oXj/xjFipqi2kXN1Wo0vfDm5SAHQKoaIEOGvnLTSmNs2DVARbiNMcK/GevL/c6ahahfW/IFNAIOo5tij00AQ24fLOej0mBUtY378XFWn8FAZxOaPBFcYasLKoSnDOlxzgg3Tvmyl/oAlVC3WT2w198Gt2hctKqvQ83fsYykG2m4t5LzbuZ8/1XdKpr1knRvN+8JDNadDm4Ifg2cX854DeTyvpjzojoUYesUWrghmr3j/4xtSekmRKDsfDeCSwTynf+IrhIkv3t2UqcWawuW4TjtRRk0jb1jr2ohHxprgHjwdL5QaPeVr3Q/WFeD4iCofuBTnc99I6LL3GV/K60LUfNzNcmyRlAGcge2CnFwPw9ZIZcGFf7Es6moZVLYwvfzewJCazbuHYfmNCokE/oSkztHrM2AHp07A8qN5uZ72CeYBtS2nzDf5g3VS/xdKKhAK+zmOFwcM3yy+9bLloqnuVcUbPEddSPbpoV558K9Fr3Xce0VcFIB+QDLvzYK7WgKiyDNsglC3voab9fpdyYn/7p+2MmaVO/RHWm3Z2OvyqSOSgcPt13WgvMNxiSM68KMYAo/E/WM8IQE5z+oLq7DsipaDVnAVAqA6GXz6jfgcz1dLA5MWGSk60JEd70P8XRmSMK7k4tZykCBOt2UFLkJB/nD+R3L0ixyGR1OEGEAWQUZM72enB414wk0u4Ej2flFswJjDwBLIAmpOAMSwCeyduCfrORapJTfxIO9VjFOphPr9808KiTuLSBjjJRUXYchMjfenVoGwDd0Xvrm7bwQHlJH/AdOroR3aOXlrFw7+zKb8gIytcBudKMbzbJhcz3ri8zm3Dd7YWMRKCftRunN51dAk88ohEXw/XKcMfZUvLMa6/Plxa8fmdJeO0hp7B38Ezgk5PBfobUDX5B4e1jxo5sX/Mh7uOJUb5w/JC5WHTKRsJmWuYOxNNGryp5fufj8cLENP/7rS4tZ96Th+xq9fvZfNdOBwL4YrwYyb3e7sgd+6i7kAK3yrs6s3V78//eBT33PHtSb5smxE2pe/WHDabwJNmXQLFanT0kijlBCnxmh5MB+ppou8AKBd61frrvufFHBhmTnYEqNSr6bl79lLaNBcAhA8gJstA4gUqCN7zaD24UIB/RLIdhguAWCrkllF39OqH96rLz3+bFtrWrtlnf0XjpAn9hxyEuxg/kIru+Novz+XMX7Miv2vMJEp1E2PGVLp040KpKPGvH1HA0f0l6VF83YLLdZ+F0dnl7fJLFYuAtqmt1WmdKGPkFRGuK0ApAxACVIKN2QEzGY1XDCNuwnN3dMteuWRFcNOsltrdzLUZN5W/UExU2/Y4gnjToXLUIqX0OayafKcvFm3V/xQoShOwDyl3rP3nGICzaJHmddCzrWg0OD6MmCKpD/HMIuaWNy0SWEXb/1qq08gg/lCF6XaCwq5ZwL0roSVaZqrJkz0WACkFhxOGzmw9qNOS80/jfCR56U1RRjRor/HCatHoD/WHiqksEkQBNcDFlCsMSO740UxWRbekZJO7rQM5xU7L2xCUKzceiIvFaBwGSr/zn6COrres9kuxh6Yyg8/Dx1x4KM05Qme1wt5xd480DUnlDLMK8XQs6bm9wapBuBhNgFYl/c32sp1khOEu9JvuMd7UlCL+2In+GGrqfaF5vejEeQUWLEMOoGQbNdjkbF4YQbS8EfPjrL9rZsCqt6eRDUE/Q0sonbrQLzWie2HzNxrJhzkbzbmPhiewSmN5j46l2EOPL2oxHeyZfMTLMU5DKAk/3N6FApjqf8U/cNlVfryK/StuXs98gFN70GYK5lzOlGJgRgYPFO2+2TbWkNF2ixH3jMs5dXZ3LSDIUo9KU5TW5jUy69M0NLnN8NNe/ujheDBNuFUtNmLD29z21wAxszcVDTaGsKFqPpnHEjH9ZeoYuzDTN/JgqaAiSiG4Xe0Ps366zGYsZy9VaMm8k7oMOMK6coIKpZ9fzK+sllLaMd86qecf3fGqIIcg0jHPxKQBcDfW4R6h6+kVvdTX76EMMP8NPOLfRS6WTxU7HylLuDD5WC6ZLa8/ydfANaMU0G3cfOTAlUICRFCUhmxmHt4IP14WKykm3xwHThnONBRbqAbgYmXo/+Z9EcJGRrc1cA9mN4yFQ2PEIfjzLAM8VbbL54Cqa5feUrsC7d6CVXA/a3rNO1KKfNjHT6JbDbGPwaF/yif3ILVH21GuwfmZiQrCtXJzrWsIIPd8NOw2vc8YDkdBltYRWuPH4U4D1Qp6rYALqOVue5kEtsVT3qWRKViNsmt0bsNueyTgepqZBtQ4x4a1+FvYuLIWNBtXd3ibAoEDTeZwBwc0WgsCHO1kxddZdq4heh9ZrNBysnlUydjtfmHXIm9bJm3zINQL4UnNv00ZbPOIQEcxzRdJ57BBP05S6xKbqGYCls5X4s/wTxmFpJUDNV9J2+QZ6v3viVNKOq3YBUXSlPrBTyH/OqHjTkw8mqlx0AJP97Q/2LQ3fefI4+rP0KpBXDYsktJ9fT9wzsmSgb70y67+zsQRQs9nwS3MHvoey3V7lFMl43b+EOfFHqt/yG1PFz0/TCEb4FXzo2wzMCWL256HY46vx9EWZ+iIEI4Ng7gMTLDS9gyiKAdP2Vkesjm3FjR9ycktxs0uK8RLZxztn+52hgu52jbPBDiKDZ09O0H+ntGiCGkeaHoGEjRz9nKeWOqrFvHyijc9UR0z/dwRoCn4EkvrtB7GG2EVGq/FEFhtFCVTfp50MtUexqI4LUzKt08q3ErIJZhRgM0ogcw/VFBjInmQtR0MEmtuHEeeEQNOEG7Z2v62Q1n0lOjqMc25uq6LWsnQYojJD3SUZL9IdJsCTaC6k5EK3ydxb3hkng4/ITETemg29kpIoz2pPdNYtWAX+oEHxZSz4x+R0bf7pnBvPKc8cJko1qlvtraACT4kSFS8ZxlNWEElzfO+3MnNDAY9PsjAG3MKd37oYHHjjR/zqVgkQgql4tmbG6a+g3v3HlLB+rCS84Z8KZcYLqdfqvbZxBhIgnmU2g+4fgrMafJ3KF07ocQKgM/1Blo7mptR+IaZMJtUdlkGzm/Sq7W9s6jY19Y6cjnca84rBSseS8rFFgdzBmsMvyjRvzDOnp5hulEU3wM9QEkIrnOk5SV6j/QfdyIojg3Zfqy3GKZb4+fVoVJZZxK9qXp/432NZyEg0FHYVB6kZnC15bQkO1STlXrXFntJRr52Cyvw3sP5x1MB2uMQyrujIlIQymutxhqgk79QCzvZkW2akUmQ68sCqWgaJRx/R337Sr1YG8nQFnvPyqOavsx0cI4xVr18UF8CZmXsu+p28IWKKPSB2o2T2Sgc2QRRpc7rgeUwS7w99YlXISNNxuFVOKvGOIkRbIkhCTxSNeSsawjODQ2EABaShQLKoOcfkF8g12xL2Yz5ZlgnCjKRRDaMhTftMeD05WJE4oqsVThT8pzANBSBUNdd8ewuuizz+GuzNDXCoZ46lT5xL1hAdKIJBNQmmzNH4xunJsvfGwmwefDXbpFuXIh56T7279AmfP6laHr4hsy0SRvAh4r+g2VjUv1scC/NMjhFcnG95RFOyTndRB4RXKKD/Va4HsDKdrTbqlLlw5xRAkNV6n9I/Kh5F0q4fBI5HBBwwJmwfMQDFuAkL8cIH+9exBlahYENUEjIY6vVTj9p38w/JffIJrOGK3L9R+0SYEpA0BR1SWSv6gU7wVtfvmHSS6OnxX4Ql6aQf9HBNUcIK7HPepLir2ul16VZexvIFxgt0CRS9TcK/E7scpyb9kd0lQxAU9GMYvUMvoURD7ohC1cD2eyFIAvXRxJSucyosyDWHjGgRUuAr4ZV+Upw4E0Foclpza9BAvc/YxEtSIv9L+q2QaCT8FTHrMH9/+xA24F7zNmg1Z1Ri3B5Tmgsg+O5jLV4KA9VVoJIus8qdv0AWUV19aMLA4899ph2G5fJfW+mW/2rFy5JXj3MSZthkkzdeFM+0kupEqpKy5OkrUvTf6w+VU6FHB5QNWu5y1VZMSkSK/LzgOC9nwN+OZHveC07dGuIHvJh+vDnRXZyiLRMMaJlqjcgSkIEo2J7DTqMVKLoF4uoI2PyDUYZLzC1/T7RKtM1j3N3K1vbISY77fWVzsSTVeVUHlyEfB+cBy0+G6hDhogcbp9CO/VbWbbC4NfAmsxr4wxkTAcScdkwS5hb0ISc3XB9/CycDv7YeFAB/aX97FOyRWkUJDRDz3JXEpwuICM4VyXSHIgo0YkRtiPdPhUOkGNRtrVKmgG37CwCKxN/RX2f5EX2eVTqIPOhyM1fV7BVbTCiiwUva+DvfEd3bSHlmyQLNSCJDVmumAdtyQhkv3YG1kY/zGEgVCIUnBcAe3NkmJpQjwYt2kxNlPi53earxUtu91U/UfUoIJPe/fCFGKGVY1o1b5VzF9mGOlHZX5ARFDpn2O07xSKvRyk+SS5yLQicfDXIBIqRTz+E7BB/Vw5GxgudnzclhQcmXzqVLhRcEZhSD9APdEFHr/a1/LsHR8WNRUitSY6VSCehsUPis6klgpUF+7wR9quQt/JUtrSLBV4oMMFfOvMwy9g7QJ6lHhhlv8I42MBgtqti3OypUIVGa0FeVQIwM1FtSq50iAoT4KccnzNjBT+EKRMRS/2K8O6lxCWn0iXZHmq7b7fkilEY/NaxNIJGYJLFBQY7Bc3bY/CvYq+OMgGyrfaxv4gOyt73zl7oMLmgKtiZmgh7DIkaN54vkVRUX8Omdv7siXggbHDEgWWvyx/hcOZr7862tgkgoFrfLoJdI3zIDOJxa5azE8eo/GSsh9q4dsKyE+ONHR6TlEBRUO0AWticUQXdahfU8oGWdn03Vek/ZA90R/D14vaI7VTlc+B+I2Bvl4N9eFHhs9zfdybMYhwNTDMlzcy0Vmw5IRjBpMgYDgJdoJe333u6KHoMQJgnZ6Y2vPxdjeGpt5oK8wYoPpyL15H/R3e91lGo0GxSYJzWhXu7Edxk/ZNYVfBP2uFAr0GQ1/41c5z3pHKpOeKzuG49XSt1IYkQocWZBmT0KmkgqJNjqt8AnqGBZz6ASCWN6iFYzzhb36nn4oKAPXTURCWzxH72QiEUIv288lMeQX3rV4zUgYdUyQq2yQD8kph4803YKqZtCgKlnf/GJ7qm6ikmS8mdGrM0OItTA3shKeWDXNssvlpgTXfj5yX1rbaMPA8pGUOqizJC3NbxN4CPFcojjJIoK5V6r0i956Y9miKpd97LfANmhn5zdcXMMAceYDI2okKkybBpMwEXjZIi3LZj2HUawZVjwXuVDHeFtOJDXyIjvkR2zUob/cZa43s9t2/1TX+Ov8WyvFL8RZhsHeqQIdlaqlOfWp5eeKTYVbnWYOZRbaxx39LQI/hBILJCfzpxFBCJKLlM89xph5hVwaRENZmXLGbeA3Fl5i2ri8QwtBUu3fvQMdqsB/vXi8Gkvnyxcy6Bab2FuIspDa74Rvymbb3TMhUw634mQqfMNaCUDYOK77v6jYYi0LNegW0iNrY+Q3/xSSu8CS85XtWe4GKF1tO3Jlkiw4Qyw4P5VKdaIihedHAOwMZf9JHPDmSUqyEeBAqLCmGz62sE6EUIejES1S/edfmSGUTbkVGtlmI+Mu7etwshLasJSBZ8ZtLi0Z7CxMOqr5lqEMvKHiHkf9HK0Q/wcKrQzILFrbwm/8GQSa988DqQtDVVM6//KLxTG3hfQ0pJwALi9ek4V92y0/67bb0NruyUYQdciZ9B22RVIVPZdDQOwnCfrve2gfMe+XdI5nYNb+IUNMqtXSjzrkwzp0QmYTjAbtRVDuZE55I7GftkOXtQpKKgo8zUkqlhyKI5CTtxSg18X3DT7BD05o9nJ7aMHnjIai19X39ppfLFClce5ij8zGf4lRjMjBhKyGNhiHxR7tInf0RbsYQY27Bq2A6mfXcTVzFEgdrQftdS+eD27ENoQPm7saNJWhT4TLAoza797n2Mq5nktpq3BbE4Is8sXYdOvrPI71SP61sCpKY7w4+k8OpFp2a4o+HYZgwmyZR1Wwl4lMzV3O/pT8iGrwKncQ7Y2PhM6kjcAaOb9DZUuyCPCrsn1+pNT7dPVVSSJ8NwvfEOvL9iiCTa+DxGfJ9iRWwK2ZD7MFn0h6AjX31SMIFZF2DRnsEffwXfEkPtwsO8r4qpofy/pTsQ+J0n0MkIYihHIAQ5LXb5I3ZFQRjyHXoWu/+OxonmzXDbu+MGJEvCBYMOPhqFCqtgxlGyNUXN51QfLZK+S1KkqmtavMwBJXiQl63RWXFg275TG0K4pEKDCy3Tl6V/lPeMly2J2WJd/h8TJuouKy/qCO9WYtukkavmoupAkUV7ZeaBMRrMsbUXsxZv03qt3pzGVKGBa6X4g/mXvDbqpc689TCYfpWTXeSBVwoUit0wm9LACldaD6UEGfkUqcPEdAEe8tzLyIAeIOdfB3Yuje+Y6B4kKvZUfbQbaNdZYNtOWKYrKlDh2qbzxYLcjt2ZWEzb/T34T//FQ1PzB2AcywdHu2nztOIg9UGqQ4qpsQcIKX1CuVoMwKKdkGGoWTObNtXSxUPolqJ9VRfGXOslVqmB2ooR8h7BWw+lQ5XjIRm6W3l/fkUPD2nvYBw7onlBMv54bal45FNgnEbVE59CYeab8msU7xy1/yrPK2mJSaaPi0OXw/iCODXzZWNes0px8QKpxfZ//LEHBzc7vFAhvROCzunUHTZjLxYggtEz5kD2RR4L7MIkTY7WfApxW5eDbDqgRhtajQQn+K1tfbLeg+FhBgINmSoJ616Fm6C4TymsUlmyZyl+UOV7+b9aFewqfJCkZl3eUKbAPRV2RDxdG3b5lRRhd+9uaMX85hDk0GU4DRSfJLTs5QYexz1xnIhI84WUzN5HjPWzYTjZShDNDMx8Y3r/IleY2NQZmG+IrHlUXYH6yd60z9D2bjO4x7gB80TScDNkhibxTw3U4UTiNjjNbXyhd6EHYW/GyO5WbOwJwxdoK5lvgHLc7O3DhpFctQBkGboMGBio4w3sbcOFLA8zV1Phl2rKZUOai3rXqQNZz2wYR+UYdLgRy9TUChwkXYlV+3KIT5VrdamvGwT09tumsBAVWrYUC4qTOQr7aeVqSPRLnn1/GHWwkieMS7frRgXNqslXPQ1sndigcBNoYNiSGuRfGMA6hgbSzeGQMu747gmGQHtnm8NtSyv79aIhaqFHpatpGunJW7J23rasLIM8aA2Ud/6Df6QlsaGORj4EasBJt0VkXa290lNvjs0N/eKYDW0Yf/crg6KXLE/EoCGwTw8r++ybCgTHnAmctt/Jc72kZ6O81xhFTSM2vCnTpd7hLfk+6PiPh88w7vKWRsoDRAekIQEFhVZTyjOrtfh4WvOreAEceRSQlfmVXLtRbY+PuJjVWiAM1wJuqMT8do8b7vF1YR2cErH4XOvtzVsELT+CUcoFqx53htQu/qpWicsfzos/O3UFM8AGXmkrDvaKSD+07cngtISJboXS5os4WZbP36+mS0U6mFI+DMDzG2ve/zTLHU5ZLPZx/zHQoOy3JqNQWRcqjorL7jk2+0Za39BNNOBOEuUDr9blHkidpwJTWVvxiX/tY0rgSRKovv+oJRlORDTeEwdHilrfR9RUpspYYf8/HLmQx+t2qmF33zdZFcvV/0P6i+vqpvfMbUNepCSZruj4XMv2bp8Ozn0lCkTdBtA5270OyYa96jajC3fZ8yxHcl2mgod23uS26vDJ14jza2VPb+amBp+SQ6521XYMu9ndo1/yh6e4gXcoFXYMlm2jQDuhmTVld396COF3qzDOuE1Cb48FWQ2YWSPnvIs5mEVX3NGcCMVFGTvUT+cfDRINUAmI5CYNd0WX6zWgs4LdFDQzsc6PM/Adi3vWJDVAOMkJ8/XGKZsivysj7s/jrgJWRvEHdHl5F26vnZ99Ho2eX/ikxkcYO8SEwx2RtePcGWcqRMNYEEaQ0U3QgGkbMRwKp3ifLNeqmJi61M4AQMvjO2yQvQp7cgALVjmHKMJx6Nq3/ngjmeo3iTVqFuZfr13hziQT9O2200kJVjGdBmmRGVhT8ZoIAUnypgEnJVG1vkN4O4NgyDSZnvovRDEKQN+WtU3Rckt9+gVzvCDQO8Wxnj2S5jJUOOv7of9ssTa+8j9zF7PerXwK9InFGjUmtK1SV12GaXRO21XNDSY9kS8FG6H+2DF1IgfBiC+Gfbu5IXGtZwKWvmJn2lDHxGZK0fvwYCUnsG3jz3X4Sz4AK1xIRu2SMYp5rH0QQ9MVYHa/BmZV+B51+g57t5kGhwRxsp3tz+X8Nw+RvGf+NRC82OOrw3QLyegIh/Z0F7srbAFwzFHSOX8lu+73su79E7AfQlqAaXxshfAPn0TV+3lBV5fvO8MdRMFe95lH14wV1GgXsVfoTCoaJAIuclOejcQTPwkcXphUXlCq2/6rZDuQ+MI7f7d4lQlPo8Wjl+c7hbRsr2KvvcSGbzNDwuAK9xblgIIk4Q0K8oWxBWmr0SLUUJN+eal70/qDIWo6rTHFKIcQhRRJ6OgfPsnfm1w/nQtQAP5vCL93hm8JmenI4FIC/llZozW1I/VJ37Z0Hgs00aL8MDj+8rZDPMagonvB3fbESOeY7qVr7tie+LqhsZ5zmxvdQCKlyhNRnOqQpSgGUn0DlhgdkDbBYe8E73DYG5XLD0ukHouuC7rVhv7Rm8ryXvowpYwfddwyL6RYxhxtVWmFk3AXZdWy7pZ3SdnEirQu8wbXRD9FTzPPcOIpDQATfVpliLI5dFo3pga/AM4rp3DZPg6eQcys29MnH7/4glGAUwO0T53r3uYGTDQjLoQGMN8SyJJTwWB8bTy3H74++6Cy6N4zO/zWGP9qm6fBjpm5joAXpq7YCBBhYZR+S827x4ukNAdcHWFG7iTaRntgf4r2/1uX+TrvDQYjPhubQvSlW5ybvGdV7bjq7vykbdZP9iaNA0xEdZu7vMu1zu616UQ71DoOI+KgP1mGXC5GlggVOC8l8TM+hNP6XhLZHa+AIpZ7lYgucpY7RrEYQ+Kw/LM4/vEy7V+XtWV97vXSHcv2HCfq84WgYSKG2DJzp6/+XfzWDT9B8YSTYdXFPiXBcXJaHGRjlcjcy1S7F8csbe6I3FKIDPMkeheNin7TJK1uLLQVgsmqGvWHRFP9+TTxTlrXv4VizBxHzVTF8GnouOcm9y+JugzIcgVXre+9qKzTT0yRaPlcJ0msubXVJKN6Ec3w8yZQhXfmAEThReVxIhp3CLsfPsIQKlbkg7fFo2ZAMNpqYoGOCCD/XKAo+4En1ZpabOhkRh97R0wl1iXyvQqIvUyd7++uJDBQ6RFYj9J1iXvUqAQiz5ilhlPGUIGB6gZz/2Jo15Ywycaxxo39s9cGTkB382kp+HNGz+vJsqbkdqj5creuYM+xXbq5tMM3792dhjjqWHXaD7C9+uZ94sBd09r2LkPGhpKKawWIZfAqcB+cLWiPGzR1irKyqWDO1fHcc0psivtTYaXQI9QxN05v7G/r/9F8RlKdyD3BpXnoPC2+KyvMTYh8NP7LPkAfwO+pmeY3ZTqc6txan1WqsIpJ7BfTG8V/PlpN+WUuu1uREQ8HEHDCzlj5X4NyTq31e8g4PuS47mJ80nnQmwqfYLTa8WuezsXbIzOrpauTeVPS5r04MLql+2mYURLVAc+IHO0C3eyhh6HuLAwbz5hAHooRp2qsYvYOsxyBjArExHFmV4kmHSHGhfR6GgBYtQIAodZqWUkO3kBtvGcOqAQ4XFa+uNlkLnIeIUetuwBF44HTNTgMx77QfoW4ZhMDVH2eEwK9xO7q4noJ7ZHJZc+kUSJYAtobR0kZQrI9s+93nNckh072m0p55DqRKsabPgjCKqRSToF4KAepEbHhzLMaevYSjpesu902/FrlkKsGuPvwACWNIQXPEBZLD58lWg89h9yHBaJRezl/QVayUbO+Lz44gm1JCaP1QjFlJiqGHPngMAM1SFpv6En4VUrvVUjyb81jTb4gNkfQx5eg/+1ACLaVtqGPS37o3bPeqvX1tj3w4wIXxrm6H/L4atdu6SjTjMdY5Uf13wdIroJ1FTrDWTMZI+/S2olVwrx+m4Rhr7RG6j9wFh5EDTpgEWYQyDcFFR3RSCKj5dzOeBkM+orSIi2ecHfbn6cRo+G7F/cXWocGvNrmWwh7befWqKKC2pT6VJgmI8a1d/NdM5R8mCA1iNcTGRtIAmaNDBlmvn1/X6GreCP/FBP5ydjBaB018n0JVf8n69wT8qsOGtYfvLmIX52PDC7bAeYzhBXDOUjUWrwKVvYFxQ8zlL1VT01k/1Px+nvNOzEk62Lo8QV4qhBjNmIsiFHTldbeR4DEcHI2IIXn7EfVCat+b1CYWnN6xMXNC0vshM0BVXih3YUH/nbF1TU37QJZvOo/itmPqXHx50RJocWO2391mHUQhXm9WUn+xIwwulJ3dQmX1vOqnYN9NLZdrUMojCijKu3xtQ14PKZX1Pc/7Yr5k3waEWTPY+IVUfq7b2G303n10toQT34wDk2jLcERRPHqrnxLnyTFgEICc8a9vp6Qgn5+uVoTePR2uae8ojDhc+9uL6etbc/Ussw4c3TVOmui0UEm+Vr6Q2UN7jZwd/ls6XndN9AP1AC6wgR6f5nl0rfXDgMC8zjcsnh3AURVZC5TpsKT/rtCMZMIcSCFw8fLCgtmWRmRxvg9eNqiyO2+KOaAHGIB0kBN9GnQapLV3V7FSJUPRkRgI0Rq1Z7nebQlg1elVktaU+cUyppa6kZhuBNKmdp1MuDd7Om2o2g1KaA3q/chFXhX6c9V0UT7XE6WXkCSSR34TadmvGwzzfwdedx7t7w4QBi7AZM7/74GQGwOYLFUhDpnr1BHUYReWgv4Z8mJMbyEUWtMr7svy0Z0/jC/mPv93Vd00NaIBDuV4eMQgAVjak/vgtgjGidAemHJ9SwliSLFIvdmAc3U0hfa+n172HZMvHY0L5EVmUl6RJMo4tcdlDuiA7RnXFKLDIIYW/fEdWQbLfZXSFmnjsh5rL60qtZZ5+YBsQNqflkmqWp9UztdaWtDgzdO/NFeT/jBA0IxsD1cZgnEMDT+ZPDfGL1OsrMZJlkltb47r7mkn9Wcr5tvM5522bufIx+eXYPpGUUxlr2hlxOEiQfAoFDwEFITBxLsC3OMCBv+DfbGp57GoeXwUGKTfsezQQMe/uMQ4BzF0WYdBDjyTC8ljXB75B1j5xqCcodsROyfml3/iXplDvBFwuxp8JUh2EP7/wh8QWsl3GnCAc4/OjYZf2G6RnEukgvxRTqlAhsUrlz1Ebwj036UmEo+7LFNy6grq+m92ZCaFe1k8gLc1+KsTNoP8mIrsFxD70XVaR/FB+Bv6Wj41/NoMa2x5HS5mus2wqfsVhnJvy1cpqOieDbQmTkBtBJRfdYrHOShcRDJhXvLoI7P0OHvIqArU8S7RjOVW3Sqex2FqZv3IZcmFZO1/Xj780NhhhLOnZ3x/NyYQwyi84F0B2wXqbBTTdOYLTvYfERhRG/25yI4TZqy3FqaVuUUTsmMuRMns7n/GEg32gkbF+VoQ9IuO7QNt8HYyrMNr0J2ynldHQBJrcTaP9iFoD1Y380DuI6jYZuPdkPGb/f4+hQXGALf8seGffd1ZEPN9PMTYjyrmOmgJgNtDCM4wYeC2yCk7EOvBiGQ2Aqn5ohCoNbwEICAhLrBq0O21fQAePQCHkIygCSIumgDsip3nLtv6HfFv9UBd57pIpgY7hPqWBQ33LCxTvcYrRdknV4yH2VZwnIjJTeEl/QR9lrFuyg4+Go4B85Bwy266qRcgklnJShxKngtOgwsTB+YjBvHN36cUDtfqEpSxvdIAh8r3cwE2B6EBhPPXBcQtmKDrd4VsG6Y+P3fbD2U5oVoiHMI86DmbR0rsRFERGphCZP+bzazNPXfpw+hQ+aFBBVn5PsAHAODpvr9eDhEuyQ035Q3FgVJGKrvPtdJJBLJRbfHPE40/MuzSa87DuSmZHFRi62y/xio+ugDIuT921hV6MeJoQtTM0YCDwhtaPZpR0unXYIK9GlVy2MGdBw5j6bINbePN4vdhBxdbb87oSMQeD27zDf+0BkCWI3vykZVgqNp35l9ptSXuumda5x2BYFlfLp9ZR5tD6Wm51bP434yc3S4bEyEcMtqfBF8j/m6sx7RchMzv7IiKcztioAot7L4ZUS1bfF+Rj05vBo+YrQ+mDMIOjaZ5wKM7parqqXsMvBIIyCBQ+0Br5ob8LAIOMV6eYEWR6yvDKyyWr04WctDfuEBXlkRTcjVgqbj5hSzkcjlnLpOYBr02K6h/ajyxbHyUdX/xtR6WFVekJzMz+hPBL/f7wcCaomXzi0oIFA1A5ZfNjZRFrtu1GPSt8e8kre99E7tHfGb4kr1FmijogsLMApwFa8WTwj5Enj2B/4XAO+xMyMC/t1mC2awtM1DtxSCXw7aERjgje81hnYFsdqE5KDV4sN7qxsk+tDLZc6W6M5CFO0GL9KSs7taBwxUEU8ha2f27gsj0CtFfYnkXhJXhHCtLMbdzlhTWQQzeiXIR4Xjk2xcDHkxFVL7bM1tbbUxjCjyXUKf0HxFudGoOmF70QavebHlH2UF5RQHMvF4PzYaSH2fosHxSorghA0a1U2F4CslAI6gVXlqZN+EcMK0qhyFwW4+U6G8kQ3StrP0HEyvZ30KzyDwHnKYqaRd1JcpepjCUyYaRAQUuuV4JEWbu8V3ELtb1AqcehS8X4pObZxcA2UTLSJOGSYGLNXK30vabMeDuvEmsVXcG/Iq6I6CVj8lT33hXBlj/A6ztRL7Vhnq1cPiWxGg4cvlU+/9GqyBzmgrqe7HvTihypoeKC6XG+krAlmExqb5ZnD0LHRtuIa/LUETwg1BvGzYBLZndORGGGJFipzVjFzsN+kAHBBm+YzYesjwbnCdEXrqbtCJ3NU92uzKCCSnTt6dX4AWbTpKZ/g5HLs/Lp3QqFa64FhbZNyfH7f9wFeRqF11OcPWUQ3lGS/QjBkMjQHoipukdxehLZ5aKmz/evBvlhles+6lj6L4w+SUZCYGARHrnIUOQFY/yhWYiL3gqjW1yp23lCMEa4398tIzyM+Cj6qyOWytDQjkcmM7bH9qmgII4KY/sbsySxodHBEngQVFdRZhasdx6KQbj8x83rwj8ala4/0cyFmcwWpbr8ndStkGVO1Ou4rRjmx4IOfahUVMAmxYBbQ9vdBbLTs32ZGoUBdOBqUWEQKcYEfHZHqxd+yhzTf1Brl5F2cFebIKmdBnshPtxFQ7MF9GGVP3fqts9gnkm//ID0MP/5/emmRykGhXnpe8ALyQ1OW9IGoac6JZZ4lQEDcqGsxYTYYnyI/TorDeB3s5eUabeOz3hKnjVvz3SX8SLsLhG+Vy8Z1eaVHJLIpi9uSrQqAH/pwM5nAJ3lhtycDECLJ54nbHpVkhNk7J0H77+wLcLCmTjj4a+mx4xhVkjKGPA/Qp2dc/0UaT0qvubucdiezxFMAUM11U76NVIag1bAdgUdMsFar1a+6+UkD2uHfmlTRhjAU4xaR96FXU71XlyvEr/EbQWSezSnBwYEPkP/UqkJwLvTGMHQyHODom3JgEaFSn9lwEER9f793Wc9E7gnOD4UiJhHCqIfQ3UMLfsnWYuF3zf4NRx51T9hp5KKm1udx2G6cE9inpiKWvyzSytsRB0Q/BsuZdzTwjgr7iR9QI+w2izWZq3/TkL3JwNPxX1xdz2eYNB7Bp9nT9SH6fDI8mfOdIALNfElrt9KwNyShsR4Q6uuMRLwREkaA3qEDhpIqmaEzFi5I11ztZaTdpAMq650/9K1k2R+rWTX8mzVL2ps0vFDyATssAlX0EP/J5C7rbSPyYdqzr4uqAKpAG8DYdONT9EfGB8JMxvTNxDfV15XAzxjgAs2+DHnhkJpy4L/h3PDkiOK+YngrcO1F5UyOwvFBoOeMP9zB0iBE4dAvYbtGA0csdntPElEtHYh4WawBxxRyafEzLTZTkPwYIje+GRLYRkFYtN6bgtNDIe5cNXdKCs1or2oFwxJi5sICY81yBJ4MnQ0gQT0dyF5oB6YPo6zDVpgj7lvPll6HePF1Jn3lTLZt0sWuNlZbwW/wSevT7Nt1azw5/3/OP3yvXMBOiKE/jp+3Q0BiC8upgSkG+Ygw9qL15baayuYavp2hQahnvIwedqMDPej0j5xEVmEc41+FVtKVe5NzDy1A2nIeanFWlE4iJdMRyxuOPkZdP+CN1Nysbv0chYY3nR1o7zPDpE5Cj2E009qHJyAQ1nvlTEclzV5zU7vUVubyxkpWIsSzCfiOi+K92JaoxMwlWGKBbCSulQruY8cbP0zvJpEmIyJxReKWteUcjgYbpzc7Jj3W/AqFSfSLaFum5iu7OQBDWjEgQxxD/5ryvpCvIAta7Gp13AYb/0wxaqz/ULwaaO1wcPOCwQpQGKaHEf76fMAaWGV0dj9zFa2ECh7KRVQQguC0ZliLKNaPQPuPjED0wMtY93P1QC/111CFLT606gWwxjJ2NqS8Ieqc3iH+tdDmbH3lAnOf+AMEozX0+wKic5j7M1DTdp5N5g709JRJpXC4/9TlfBPvFrRf0Bp5LgImkphfVh1nGPxkiUxx8rvKIwrRh+B6Gaz+JERoPWoIfVoj/xs4ZHxgnEI+mB4YmaF1a4iMOBW7q++T61hXB4YrLP0aVCpqHtbNwIiZTUG0JWrT0IRpFoF8hYi9DIqcVuYWnU6bjjc3yxwz2FU6BYooynSVoVrpdlihtpZTaL+8cK0JPGW0YcZsg4cHrb4oy/beqwDuvCEL4aJ/na3STij4u/EjrquTg5VMj1V0I/xFuWZtCIaQSBWo5QtIhkr485pbvc/P1R5hI57R8MsL4loNuuCeEWj0sq9KOrmjVN9Ds4h6ay+MormsJ7H470AUUxfMWxE3Y7ot7U3LwzlgL5qCNDjjGeX0U5O2lhIDR0q+ACVMVzl9bxvmgh+7f/Bihf0Xol/FEHxalmmHDPQXsS4DZckLaRJ/pQpEEzfeBkH63WY/JPAbBnLddvzXVVeUYxcDgdW5TTBXsVUOjm7nlt0V6btxQ5JHvAoOMZBJfxvS9V+wGAqrQ/UUFml5g2fJSHQtTibABB+z4qjdgTG5ar71BM/lGrPFcvBbKdHJWS7gw+YYRbicVluYQfSYMxT262V6kkw85z0eIkWJccPMunP2aEM7nT9oGxg6zMnZP5GKJttTNHCqXOQM8PVUsAo+4RhUYwrUmSO8/AAUKvIfipnJHuQBzuBTA8/Z9fkgg8MVm6TNJmpKnQz3adqLDdA+h3zWic+3qzOv/uAj0X1GeL/V/+VF4cTtt4wI3RSQqxxU8zVG4qVnLNWjKgul67ZBtY/laGh3pVwV0gPXm3Fo3iirD4FSDiBljzrmp93eoCfusdhf/2bR4a+/pBLntCZlwse/UajkhGk8B7Hv/x+Irh/Ldf4rGCpVBy8irL8LWQWqwD/VryzCWm0V3fKanwiUDe3M5odbzAc6ViS/buBSYDJ97vhrhjCucexJ39ibbvqmSo13ADVCWwL743RHYR8NqiYBgYsbW7sBTmckOfFXSgtK40XW30Mr5DKQoIZhS6qoBb5OP5r3+9VcZrdQ70KrI+DUClh+tY9eAtQ4vvyKvvKUEYpn+BPsUU3D/sdivGFLpjfy6tWDKG8q3jOwjZLSFK2tPm4/qZY7h96hKcm0o71IcQwJNxMPWOUj8T807EXPOrEa8s9uc8026JEKXRLwbHpG55Png49eGJIwXYvp0bPchsX/12vdzH/j085u1FQRBu38kL+ttPeU7Z/y+QAyznxoVqbK1DtgKh9+PQnGW3B1GxeCgqzh/VcLmlzSXsDWA17Z2Sr5I9MmBoi0JtQ3UFMVj96Zp/AT5EmXNRKXCWhnrQCZmaH7BxjXA5L0HdhbTVmGmOUv+A714fbSSPCRKJ27y85wtk/RNvKNqOG5QxduUW53dkPii24C80c5j+U4fNE6BFy971yCoRzQdi82/6ceQJ2GOIfIePlhMcwVnmOZsoQ1/kWfEGnlt7I4t+MHp1eZUdbzC3l4rmQPg63LuNrKmqvYih3KmzckVpV3fCCssLwrhM5L5Vrtq9NN3f31LxKsOZhyfkczc+4p7XQBRORJgJQ7LUWFoUENw97L7kE560bla8gusG0A87K2BDOsKjs2MefzmPyiM1Ssf87QuD7FVLJPbUP8Xb0BnF5W7kUaT7iIa56/Ylr7HGSnbXO3oSfPwQcco57h5R3EYp+DeDI72njJJiGKG2M/Gynzt6Za7fIrr8qhsa49zEOOHF7TXLngIXwLItx8a1J5JAEHHhs5R9UsaqBLP7lCg2BquzDHfCCt9so/Jr+qCG0vgOKG8iN4vMO+TGg6Xzzg9EtnoZlaqJdpEkk5FK3LIzoDNP8+VbyQUDeLPrgMPBGAZj5tdUlcRiblTVi/P+vKcNp0F9+f1z0MYj5+p172COHRJn1CKDOIi5PpMm9kcepc9T93mrprBka316iNSkEa46ibcssK0F+OP8yO2gNat7rCXeiOyUv2Ju9n9aBX1d+cJqqZz/g4xJvjLcgj/ATpIGOxgzRMwsg9b0fFO4XnUjm3SFcMr/jEJpIzdUN5fCtg+nNs6mQsW4Ab6kO8eOoSr7MuRuSskMeFoA8RLR4wpkYqyZxdm0FUBeKv27I52/3QmAz0CYCaGf80fo477+sEZe7peQ4n/07xZIDUc+1PhmHW1/HifOGOFbYs9ExEAuLlVx8yMcQZihoZyH8hUtpX8Xb0adwJvhxceAWLcJ8+lYdpjD/scRonbg3aBUZ4XbWC3Tn77/YJKjRwRDOuCutSFI07nBLHjmkMrOhkwPUbsuAk38CbsvUiZ/fDK9Zms4sXdJyhb3R+I418NCmFeIIGllFHjSo7Q9NaySRog1mYXbv4j8jxbRkpWGaD0A1mbDfRWFDc4vvBRx85IRm0gihWG5cqpdqqXtVQaPfSY1HFieH1yvCe689dBGlDWdkF55H4hDapQA/MpQfid/1R9B+RJ5o+BJR8HGcxtlkqOrffWdS/Z9rxQLT/VclBcI9IUDUE4WbksSnQvj62jEZHDo7TN6s8NSVqSKP3PZeH2gXxKFBPYKqs5XwcVMvlIWhDqCP9n7KWp8lUXbIm35pCnAA87fCLkGzrEShPdgK3q/ppEO7yfirxYbcFIZgZM3pwRa5NcnU/NPJRu3t2XCTeitjo5zMByTa7qPDoaIJkaeaUVkL9slR9pl3IVorPQj5tuy74ohUbRa2uSUPfxdU8WinBuSbWWmwaJMTXbHbf7N4GFq4eA2kLdIux03+87GoH5rQsfmrSlof1aAmJFRAfZnldc7frzic2ARd17xSoWnLVFd+HM1Cx7xhdBXq6vrkh3fvRouBAUWSz9CUznmtvcN7KegthLsZg128EUr1jIJZKlFXFGRw0ISWd7TW6zd/qqg9yAmldBVrsgpvfSr46I586TToqeq4HL0boM5XGDy1KSRKygYaqhK9FyQKJLMZb/rjFjqaNSu1xgFZUOZ5NlGu4Rj3SPm5By8raV/NaTdGucHwCIjHWm/8nsC2XtMpKIM1q98iC2/z2zDlC001FeyqJv8Eu2Y/f5aosO4wXwxqx0+0ks0e+p7H5BdOEeMnWN9y4ChPHb7q2t8DVFR0sJpBxkZcWA8CRVh2ZCbXeqbn471zvNo+RxpFtbS7Tb+K5Wg72WjLfb8dBHZtG4tzgLVCNXE55XJAUrVGWPxBh5PIDtxTVxZFNyyWqW46EBURIt7VPzLt30cBG3tkIdvghSM2FO9LlFMFoQRwp3CJXIxwsKZFUQX9kW54M+j2rchgl7++r5D8FOWqTftYXiBg+fi93GqiiyiGWPyTw5Bplg1AX5fB7gK9cc2TuF8atnosHrxzyGu9a1G6Z7NNgN4LFGIrO/zq7PRy5RczcxbYTv0SxZwovkXR1ZyVb3DorZfliJ2ePmuBmbP3UDP4ODKsabI9qsPa+bDs8FSMGzL2eaPR9zPg7YxfrSPHkOgOdxgRuU/2HBo3au7vTALDssvw/ZIsw/8sQh4EWXy93XRZRALwwWGdHe0XOF1dMV28YjTCbA/btBj3DxkMtJyTgvuIUUSrRv0ArEJQwPcYlux2nKzTicBfFnpeAsbkIi8Sb6aLWN4mvEUjf9XbUIb4UwYPER8uvW7Me1g7dUAdkfqf9eUDetLfk/nxu+m0DDM/9BVZLQfTbO1ZaZyW4F5t5fUVKwHLTVAkKwjICjZaq4KgR1Q7wRph2QcQx+3EBRskzRP49VqZ/+kqueXR09rYufN0LGoCzfdiu7BrPoNPeExha1mUVxn7fjH26NnoWil9LV+CMWcRrfQu5iT24zGK4LG/wSDGOeKnECEeHVEX8LWpG5pzjLsyK2YZ418HebQyPqBsYo40ezwN2n2WFAFtLRGfNLSBA7BVbAkKgUhe1laEsYNBwnfz6Sw4DdRrbWhFCoeA0paXG0AOEV8dFPhgrl6VoCal9CQA5OOZcZlVxPvYujbHC/ci0kM00RcCmOj9TXYr9C2t1iwedANqe1QfLGUxGspERwlI6SROVHyi0NaBT9xGOjj9YhGJZ0YCHCd3oyC+AF4/1y4/oXDorl7LvXX2dYNETWI3EPKn9hQmw21BM4QrYfriWqLzIB9UA5Fwqk2ifWXP/yX02AJZml1gyIyCDiBJfobtVb9AFXgQJo+JnAvrUdZaLKNoNPhiwDQ+gx4NbtOirCrfZRWy/LPqM4iSM+/dWSRnD+KGoTjCCcUIren0hAQHq4iVrG0otaLbnVcsHlXF2qoiElUpGdXh6nJYOQyVscqUeGmt3S+nC/lWWK6KJkmSUDy7F1CukJ/gqvGhoacmJ0GmfsCkqj8T+LRH451qr6p+BkOAXV4K99uPVQa/zFyuI6UvS3jnO/qs/WvyzD0tQqLBDYdqbJK2U5DTcUKpJ8eje0VUeph9GfnWtqhnjZ6fZgdPKlATcss7hT0qF/9R+RLbCcgUOYGSEAczMfgbntP2NuoKd8ykCdYYa91QgFzf/aDKbIK3kVTjAu0qyOt/tmDbE4HIHHwk3muPbZ9IXK95duw8F4NvU2VCU03/geC3sWIh97ma3uCuWYPbYQMWUnpGCutzawwneyu5BzCE8ryH1AgL4hF8N5m7D2AWhsdNsf8aLIcCWzaT8sJ5L6QQeuRlBcCw99m+WjExIzoD7LpLvUk2s0h9DMUNVjrwoy1nJx70SkzW2u6RMAIXwWx6FW6d2duc5eIxFcAdJANByMk4fejHLCPEc4N2yL8sSMjD/XMewr/ZSTT7OtZM98UD169uQBXE23vQWbm6XRsDmVGzqaxv4fW+zePsRIosbyp4xFd9lzh3hGmXF86Y8lJjMwRwtbLT07rMj17XXA3PUR18PyWM53u3yOF2tPcHRSiBCYkSlYpwjlexOlOFMVhAjOtwYypNPjkaqfgRjSFpf9uL/Jrb9AVD5KUuEYgtLCVj+a7qgkaPKxHwftXDH6bnzibiAu1STrYsxqIc90S3GUdWKIJjtLhL0mZG9oPSlfug9me6ysyUhPYQLSpnKVXEyZW2eIFnr3fRy8qKFqOkn7j+lSCmRD+BSxNPQsh4pJywYPrVrXnLG1dVgX4aItOoDv18D5Zg1/obh0Ths1o3WDb6lWE+jxpUA8Q/o3Ne8JMQYoqFByg82U4u4Qoxnv2PP5P+B26YGtE6enCAiQLb/D7BLEx2wc7h9/7U9yKA8x+KmNH8TRtBou0JKZCC6mcysc/H8yAXsjbF5teG8BjLVkCK8ZWuwHpc8ks7j0BQCmyGyIua3IRu3qkxYUxXpcMfRAybdQ5AmaSeg/Xl27Azxqfq4rx/rHMoxlSVEZH+sxaIpMmj3OWVKAPMDpjJ8b+8iYvhbhX/ccagqHxNfB0J9gcglhX1/4PfbW/JqDrgj763ftubLWTyPHiQhBC3I4tZSb0lOq3eaEbA+OZ/qWL3TerPdDZxP8GZULt37wvTk/Wq+pd7NNqBqqSwW0SnJz7IIkLws3iJUsELW8VGqkJ3Lhgt3O2IJlyVcVqlphPfErzgXBUtbYKkAbYUv4Morj61E19sh6ZtkiTQHtG/sjuHkJYjVp4LanF6VDR6qe92nFY1h/ZCW01MAANKhUTrDVurDpX8fA5ScmSmmIjw4Ke9xrJ3ACf64ET1C35XVCzZu2RmdmX2kwvovxTUW44QjOjKgUz7O+IqlqwYhJQ76zKjG6fQakExnQLiZRqTAOVVN9cmKJlGn2b2NU2O4JKLO+y7bceeI3zAKFJqyZPJLNMtPRdJ9vxsyB/fQRIrTWSnFQk/GSHF6XMJY64FqqeWRZ+kKC9/kt5A+UOeHaJd8JB2QAX4/hlFSrBtb/KkhQH+RFU1x4kc0TYVnMYHeR1N09f80bxT4kN8QlhmaxGEZYxK0POJJnZyxGqQnwdttsj5gAAAA=;" vertex="1" parent="0EpXQb5gd15LvrJzalUh-19">
          <mxGeometry width="31.17" height="20" as="geometry" />
        </mxCell>
        <mxCell id="0EpXQb5gd15LvrJzalUh-11" value="" style="shape=image;verticalLabelPosition=bottom;labelBackgroundColor=default;verticalAlign=top;aspect=fixed;imageAspect=0;image=https://cdn.pixabay.com/photo/2022/11/09/00/44/aadhaar-card-7579588_960_720.png;" vertex="1" parent="0EpXQb5gd15LvrJzalUh-19">
          <mxGeometry x="0.33000000000000185" y="28.5" width="30.5" height="21" as="geometry" />
        </mxCell>
        <mxCell id="0EpXQb5gd15LvrJzalUh-13" value="" style="shape=image;verticalLabelPosition=bottom;labelBackgroundColor=default;verticalAlign=top;aspect=fixed;imageAspect=0;image=data:image/webp,UklGRuYsAABXRUJQVlA4WAoAAAAIAAAA8gAAgQEAVlA4IGQsAABQpgCdASrzAIIBPsVapU6npSMppfcrYTAYiWUHGdma4HqS0+07t3NEzsi8TfR+vfx0+rP4D93v7588v3vnL7DPnf1L/nH3v/Tf4D3Jf1/ff8SdQj8y/qXg17YDXP9p+0HsEezf1nzZvkf+R/evV/9P/uf/B/wPwBfzH+w/8r+ze1f/D8Qn8Z/pfYG/of95/+X+T9lf/1/23p1+sfYc/oX+IJX3IBIlZARAhSrETYYBrgdvYcme4rGo6lXiqVo4eeMvcCuj7HrVl4WL9YqGq0IYgN/qanbW4lY34Wb+gTSWZ3ExC9fF2I3QU4zdlVIRrf1Sx3AgYOwh8AKw+5lGCKPnmLfJ+JA4vi77M2PH/f2ICRFkUmRpVsiHIcL+s16nmhfEHlPkT4NuDielc9wpanBXg+wG5a9R5TH/Fr4sh0+izzBkvHETa9XRZpBLlfBn+NC69/lkrMO+55BxdnTitRhTFOXTnlLYT8CXyjKVzmsfbqJW5m2vrlEX/e4VNA2qOl86YcUgtJYmQ42he+rH4ozbN9eipXTRxuGjABgpv/LetVulmVZRb+LK5BpLScXPfAz0Fp2beVvSBus6U9tL+PJFhl1avs23PJkycURxUdeHW+JrOLFqrsYSSE5pqTcqlGQqEiIVRHi9269MyocmnCK1ZRr9jlH+j62HvymC39XjMCzJiUmMDXcTysc0kShTkf+2rK7/B6bwunPp15ecTJDp3mJHt/5jeyoUtE/UhDjI8b6ljUkFG2p+i+e3elMAY0IwTAAAZAOeUHEBRwa9w2qMKITibqnaNUC5wLRiM+EShiCYBR5wKhr4TCsVlXJW19szzUjZtIlAza74yUhyavUhE2SUklu77AMGlMbyQZd+jzXnPSvtW89y1/Bexm/5Q57yneF77ZIfk7GwybnTSBd4D/lMyN0MxPoK05oGeHrTNMQ1iw4CsALv+rjZN9MWp7uFgsIKVHPLA20g1YBBEzwppxGsxKUEL10roMNFdJdGfThrw00APDEyg26yRrj3ZQTYy6T0mbGYEGVGIMNtE/q2R0rhSzsGZ1CIWFA/RmKrU5hDjEoa6tSbpV4FRhpggrjRH1vT/qOw0Pq/dpTIPqzNQBsWYz0yxjjBfRtYoZYs8sokVCgKXuOc5opiiD9oniKPM5TRbzcrRCPXSb9O8mTUa5DljaIX0FQZyL0vv3e/llw4yGfO/NGefGPXdTvdOsc7zj+5oxUZSOq2gkdA+WOPbTf9TVMHn7/Kk91BM4eGdkfpGAbw4T+UaRAaJ3jYzhJradXC+KJYrsTsWu/+ArDRy4hFeqT1pfXFF1O2P6T46T9ripDDKPGIYkabUMzaGhHJWaYQOdqRpbuBjSZS/jnGIjUWD1drpycz4n05/XK2KZ1238pY42BXQSPkSW+20wC6dG8gkw4qCFJ3F0Sdguf5ljwAPAvYqw0wFn12wSaoqRAN59MjGDrJGw7tn2xpzWAoPGzoVRk/bNyb7YxtO3/Xuz3LILxkPEmZNjH3lS5FUesrAjrrNhrmCPeEXAGwBoIpip6xeh0qRsSQ3mrI/N5mwrpuRjJt4qIBGVjLHmHL5s4X5K7yE4YWev8le07UvxB0bYWubCzd5Y3WbdtlI7L4bDnxhvLgBXg1hbSpo2AgJl8OzZ1LT34DJXpidtlOtmqfbHSZy8AQF+nSh7kd2A0IAAtnAM7sLVM7/lsR7g2c/s/C260R9rTzMuTAH9rFwLAe4WNybAlR0mjawcRv8uCCUQX3DjxBeCrxIXojnhM0fPGvCkZErt+61nwUAP76pfnVVz0UgWzoE7ZSbL8VM298Fmvqy90zf8bksOegepUl2EPMNY/ueZQWCxezBmvVSgCL6neCrQeZfwUAik3SUvaJIIbr/jPyNIYIzcF9v1ryNJq1KMlGCVk2wbAvdEOR1z+BViToPWcgkj3Vif0aoU1m7Gv6xdWLwb9POfKFYsbodlQcYL2hzNjbrFt61BxPEtuKwAzXNaiagN6yXirrM5C82fgPIObEDDlFDDnaXHwlKbnHBvy4tbtIpfco4QeAvbANMzhIvjttRjLXEoQBUB/sZeElG0MmunMyf1aNvf0RpRWSIkanBvBtlfuCLK9w7Of9lN4C8AbFPePrQIKak7rdY3W/i76u/LE/ffm60Mbq6jBmuKhKxRRtoqwE54MIVNn8FyvlAn9qvuqA6Q65fXmDR1CVqv9l2j4ihaNefF6VLfVrLqbI5CvOG9vy/yTb+zePJVmv8YXIVZ769lXyJinYJFLZBL8Uw+l9iiRTdO41JHffNMKXngERl+shryqLRVnDhUpXp/5QGrBxn+liADLp/pMwQhwW2wlJcNylAXX0am/WCrJRBx2+OikJ/4S0lapfcuW2dRqXTTzRujW0yz1pqKlKrkH9Y9TwrDccRLCwp9RjDoJzfdkEIDRy9X8wyWzBoqP0YQdLJwr9ve0wVEQesDZBSYuRV8X/r1PMo//4DkakVFTWQPLCeV90y3n8StnsZfvbb3TYaQn5TUrzx/LG9kmampNA3HG1TrSG2Gzoyisy1DLnRvY2BYDQLsgob9UQ/HxxZOyGa34q+kx3USjN6Q5fOH5opri5+64QHtOWuQS15e/ZUExTNa8RifVhvlK3xz4ePOUP9aQPj+lieJrLpy8fx0R/eHb1CKX3Bf0k/fFKr/g0EEZs9H9eb1gS7rM/zGNukQ692XV+DLUU/jO2tWfmn0EHy41n80OaX7Rz/S/AeJ1S4xfNXTUcAJHxpYTFe7+J42wf3sl3sx1tvyviU/f4RR6WnIHqJABZUdpsJwrt2JnF8ryvq44RjeFMG6OV4U0tEClXUn40bSj4gJJzti4ROwlADj58puGloJnb/LNSttvxqVNALrAiHScIoVzjaq5+xbKDE/HCQvTzfwa7TJRFJE3MwUm4oQNAzUajGjvXDvOMZrtbYmh//TpB4u/m7xAuctrwdnbXTarxOmbBtukesHu5U8FM4V8pghnaXYmuhE4XJU3YkNdmfEzy0iHs9FKGtzr6R1mlB78+X+7WnL4GSPk9KgOGS/tmaLUBS9TIIw9bGyB8ixyllwFHo+X6CpMR151a48Qj7D+6RifHy2g9UknkM/EndykyslBNHzWtNM6pJu8B5q0ImIW85fgJ5OKu62vJEE+Z1S0gGjXY+ePdAGH3dtyISYu+KBBlRpoFmEXMp9OToPl6r8CJEFewkCZqnvcaLt7QF+Xv6HaR2c+PBBcUErb/+kXdF5X2Dzi7ig4Gp22DX99OY2hSLctGiyW4A1Ey7pumCqhY6RbJH4eBs58e0KyWAKeuQPH5eQLULWZpMET6773bFrpejHaV7jeQYBU0C8bSXb2QNL2XG4W1CJuwb0ftWUTL+8gdnoVNk2CYp3TA6xAw1X2lnv18E6cPfy4odkLExmpFk+4ISPUrVK6XXhzc6uuk45wepM4bxTon4Cw9MHLVYISpi+V1rouHYoH5TixR7qxupUjt2F6KxQUcFaOs/wV2vmA114Aq1uSon4/w0wGK3XQA34ZrT9BijHBHLh/T6x7AR+On3lfCMDM55FaU5wz0aV7yC5hsYFxpzeb7yuooxzDf2vGQcUHByGs+C+1/EI8gC4v1m9a/RwKrnqd9pqaW5o1q0c9JdH3J2OjF1sUZQizKuVETHS+JeqsuViRncGd5gmlVyIIlE1XGPt85TmjYs2450WBP95cWxeMmSNYs575zZz6CrPmBCjg7g2pbyb4gvjvZdRT0qkCSfT8gzp1b2qs2M5YtTxvIpOlikGQC41/9C4LyqySIS3RvSmxnFAMuDD5P484l4dm+Hjm7bwfhg/Kx0rYYv7ja20G14PvA8n0sFOK1VXe69xIOb51ZIgcE5oXgiEDARP2VUsz7mUyGcsdHf8l6YzS3uZ/egbrx80oao106+aTA0FESGoyZGxMtXaVvV//uxFYDa+ERqNzEK1lHe0iCaI7e61xv3e63QaCCIGL+Zc4lvyTNBIT0EKnI+Ym3VAWesYOd3Rdi3v5GvxKfhJ2+FCupWZoU/+SyPpi6n6ljMHifQ4oJJeTr2UUcndYO9n7NMGHUJ/Q1Yw63adYCV/dgl6URntHxLUyhV9nB2WSnPT1cNloLJvIP82bFKrTvn6E/xyd9b6dLV8hUSr5nVD+h6dgug9v1rl8uUyBw8SnbnXVl/WTkL0i20KEnXeJSYjYmt/PetBfzhP9aiu4vwZW57QDO5zBbHbIqI6dr/0eiL+qnOsC8RJ/hVDtpyTESLtbrUjwH73JJZu6ZJJE6BfkrzjRY7oEQxA9pRSVr531hFjWv6J64aXLk6jOHhu8sT+Cd5u/N8hrcdFSFPt+U8MeBoOGJ2f87aEsZye89UVtOPd5jc1gPjUsrNDFswhC2siljC4Nx72WTrw3Wh9CityOhOcRFLd2pBLeC3ROQnPEIXRrHRno8Irg/bpclNk004Fa+CxKfJP4o0nMeCKw+Oc2/2JoGL86cyAw/HIsHJIs0613uUjC4TqpsiIZ+VfYsHcXXhHPzr51Xu+pL/NvMThwxgnJL84+qLS6TkUJYN/Grx6izPLd7NWYFqituRGg8x/Utmo5LQXfGybcJrWEAz/xODS+CTpBO6jYPlvbbr+37PdfRju+VTKDHunoF8xDOOadZyRnlb/z011XLeMqM1aSrrGNyQE2I8lnASa4b0ISDZjQ5oqbvWW2vyjlv5TYlWamtPF4qVFUZkD3NTGjDT8PqCtrPEUeIG/Mr91Pbh01AhfuD7iZzlFiowVt+9TuMKxEbczwi7qKyIGWJfymD3RbHVCMZ2EkTk/NPk/gijBVex/1ddHaOV2HlUyATxnIGMXojDGL6fwHsx2JzAB9C3mbujFLDn1/O7n3fhKcyQCX3loYFWCYtPwwZSrGDOcuredcp7yVDl2CaL/Wb4DipWxY/C+Om3jVgj5AcIYa19RxvJlugGgQGxNJKUOt5/5BPDYih/Xw1e47K/O3/MEg79PC9kfjcFbqbNNTTb/YBhMyW2Q7WazC3G4PV+iNdFbMf1yEoTIhGmV1Fs5pTiEMsARiXLhcBBmEA3E5mcoBMW+6PEVl/HDBZhafXhLK8qJajCti2a9i9sjy5F6I2/pHvqNjY7HGYjszuNHzyItJyRzZXuWUivGfMURKxr3Pp9pxxjEu6Peqio6muXw1vLLjI1VKSXz0GM5OGCvcJY09i95R+8CnELEdy03akMYD9Ce/ci6yc2Q8KzQ75O3Bdg2Yb5Z9s12QD+AnBbWxDQll4z4mGHpItFdUlTwYNp1RZU/x1ng/F8eB5jaJ1YkctW1D6dYLh0pOOx7b8W3GBEWsObjvR7MY+zGPy9n1fJvYwoF70FEq6adCoG+RVWeyBf40uHVtB4unh+CTrRE7CjlKZy2Iu0u288OxxpvBwy1hmxWV65RI493Ligv9+002KvqOUfJ5Y8EJkd3KC0F7Gy2ObHJk6qBTossPsiyE1fVAO6VR7VCkfMSUf9fO1yHND1uGiqyBgUDBM9C5Zi+nH6nrngzSy2SagfMcjtSPoT2hCzOAujXwJ8wZqYL0RUvNU8sMVnC01DLiYgT9l0xaiCh6qFuDgpv8GfOcwlVGdoLkkFqZ2LPdOxHSK/mcYJYcrJ/amNcPm7B2YdAsLaGrTjYxfXhpM1QWWQkuebRc3CVTt/ZDeO6veHHwaVPYCDzmz3xWptMx4P2xoHjBXXnWcJ7nK//Iyla+TDQpK6EIiSPdk81hGqAblL4dV0bS98gz2n/SzK+PCuNBnMa8bCRBF4wwwznI/mXsER42W/GAJIuQb4Zg5ga015KBMKfe80blbJXUToNt2YdIcSU8Lu77yKnshFs0cEJgJtNFTY3VJKAaUlPj5Cjk4tM5vEzLUk2rW/xrCRQbJDK3LBwRD6vbtQs1xtnmIbA446KM0B29tHwVpttyQ4szfubqEfm5ULLEZxzeUmKDo1xJ8ZIQ6511dh6uxoaw9+b/I8IlK3XpB7Yk6E79iyIbSjQPBSxAzW5WlxPfVGaAXFZ7DpCZeYFnMQVeM0wwSWDa3mALsURgORcjrAcFNJAWVoCs8cphhBxgtsrBiSp2XsZBPKWpohaXYm90nro1IwfMZzFgX2zJhk5+lpJ/0lxnzZtkgwJFza3QqhlqIZEUSJCKtderMHjwjI61kK5iuh3ot25loNiDkFAfuaTnoVvcgVIQBtvLaMJCVN0kUdsxknUWfU4P+yVgR9gwzSA1LnbAco+ngZXLRoxhe1CYr4KlmsEQq1jxhNXKVQ5CCGFEqHablyAFOggw9fiaArZhis75U7mKQpJRC4VPEkTUUKDFS73/f1jBzeJZPMWCwik3/BpapTeBL/sO2EwaKES/JTgMhPvI5daTyoT9NIyEOvYLbdYBEtEFbeXckBDcIQBuyfn6V4drpuk/n4ij+IaAFDMinAvisk4+Ir+4moEMMvX6NV1Y5/gl1z5WLl4wj1CsNnGd3DAxHPCMZRtrHQCMeKuz7e+EDvcP8jMJXUBIgNBFzhb9mFFZTnF2z+CKcdHnOLRfDxeSXE1POmtGvvR0WaGh4aBtFL3yaNAUVSiOtAlP5Aj859Amf4wfZOQL2najgZ9lbEqYZsKyJ0vDZFTE+OwIIw+PfZ1UUROJn97NK3ItOmsGYxtWCJfsCcUkMS1zhCWbDRWzSSLvyZCAzrAuM6bNOA+td9Cn3Qe6Dmn9eXBSLQ/412LrwSGlF0YlT9LOKoxBoq7dHtArue13RtIoVCIaXgIGTphLkUCnUALGOXqvFWF43GTljrsVmJi5i+9K/CmXg8HYjINzGXJKmMRHX61xVtF9EJz4YUgO+J0E4qh04oM0+CnRdqBJ7B+wNfM4PPY1+0/vn88VnnVNlSHY928tNGt5SUADMJlY5G6JBeoC+6M44iY96CA5Yd2zicDDxobFlQAKWbtcdoar4z8fhYFtIa2SlqMXmpq3CI3PrG+22JFzNTuMAcgSz3RKSJRup2nR8Vf7GkqVPiVKFnWyHQdteTX6RrzKWTMmigCffKnJu6B0Ey/ZlQcQ8NKnENpZaExC4a2y2m+Wz+eWTYoC+P20GKAAuS/YpOM+L0RizwTGHOySyiGnF6K8mBWn75/OLhaQNBxOhejW5ZIe1W2pQ8Uajq899FFtcx2xA68AGhYiDnoNwI9wqnxDbjNxI4H1DAW0mxMFTXE4hSTGjwI3UNydEovSD/kYP/J/MCI2sCusUOEeEgHsOyvF6oRBUn3nvVt4aUpWuGgEpTyRM+cbbxt6MFVUBn0Fuu/ZWRRFphiKCPSoKX/VxySORd5rjArdJAJwwavr3F9uk1lWwK2Cc/GuAPXgHAQVKycNRD3pmFnH4AEuYT6yDvb5MGlPO1RPxLatB2tCcwCw7Z7OknvDt1uFCvzzJWYgP+MbCeqJQD2kkJI9Ry1h3TvlZEgMUi15pU0JsPce9HGkoMZEdAYsQY0lDN5bgipRkv2ap7vMEXkCwd+71/Sbk8I75231SjFfRHTG+J0m5Q90LdJ1HYL60uNmftd4gVEuqGooRFELeishLariFq341DPPiczmYxk0HirvPH9WgbwZ0cWItd7TaKM58BeUMX6Zzb7Vv9BNtiuyv48IhArrx1PI6Oh4YRGPEz5iu/SMlaqYf3DJQyuEjCHbaZOdFS5SRlnax1VfLAE4JuNwWi7GKQSIiXWX8YrrPgIiLJ1BlO1uBon3l8pS/QRdRbPvQoJ1kIyI8VU1Xd7Jom9tpUyau+zxp8OAMMipUEwczlyhTabA1VYQ/5Md+4VKa6TUZHMZkyIckXYzCeZNNCESDOLW8bkCQIGq6p8Bs/fCK4qO22QkkCpPify5Gr5oJYlHw/RaK2N36neuRQ3qgAtj9MCyICk+63eZN0q+SwhsshlIA+y95wmssGXr2lSZdhkJ9hR1OkeZxJR348q34eiX1V0hYr8/WWmfPBSZjRdWr5TwIjK3w2qB9sAh0f7yrjq6ZKDkl7+57yKhB+u+E/ruwSf1tdS4jQNdPECcFp05m3NOE3EQoHFiT4iFRGZZsnYGSfXuVH50igGm2OwZ4CgJ/Np31koMzesrNAol0CCdNGTkItvtxNiR8kwpYK+ohkiNA2LgzRzruqInxCmuz41J6lMDKv2nUDH/BWu0R7Pva5qhMVObnVIOqwnP06Emh396DB8Yl8/icH4fLQ6+jZeCX+ANBQ+3QE4BrSS31OSpPb86xq4MIj+/yMrXwFa2X3jeymwyRPuqvTzY3CzhM+4Hi7+fsVCGMHiTQcAxbv2uZOa+fmydJGbSKIfzbTKwMIMa3Hz4KD5qbFodeOFUiJg+0mUMJS60hjg1JdcQJ79arbglhuT/k2KUwxPtRxeLg7yBenjqP3Mpl2pFD2YfX6pqUAtFBllw2JICPwDb4NsR8Zyn8XE8/gZbVV0km7xFRUmZzUsvD/C+VlUUd4SnA7Dy2zql+l9RyFCz+jaBOfvFTE3AFCIhPsiLDASDbA37gUORIYphBQ3F0SzCKl7sgu/1CAGE7EajHkZ3bx0rDKNZYy70aAsUi9w+4LwMocskEZ6BcOGvEOCJ6qjdqPndE1EOq//u9P3ykdQ6sr5YHq/Bw1D3+Xa8dzxTV4FvRqsPZ3FcTAakt47mVktXkCKxmw6GzlNA2b3bUG2D1VDVzIMuT7CkgnBUyG+8PiyymtrrVHCUJLTKahY/u7EpZUg9+fRoJN7sRtEoa058lml7Pg5dmy09ozD6KvCu3SWr0L3k1f1ew9/pj+8+O1hUViy7dZB4wUeS6reLISTZnhSYfmm62ZSytAyAJrQD5axGlb39X26M6crX94e2Xv0skaVhmOB/i2NyCpTInRT+QlXI/Hc4M9UCwHNxO0aeaHFiQx4VXrW/aY/y5rtVuAuo7KMr9QSsaSjf65nMM5BCL4SWpNm/dd93u51Dk4Lg4OzRBzTlHdp5uDpzBOYLhnL64R9XRZaRCYjXjMMeo0A0NQCYh8Wsn6B77c8lCR5llpw/rhP8XWNKDGMPNO5J7SPw4PpmpFaZHqPB49FHdvHkTqHCCjfDMiwcMmjmb4xfNRnHALIVLXObqtdTSnrKYTjVL4RxkyF8rtXzD5bJw+9qmJ3m88Gtg9KHgeGfrWuWgEFqhSfOCKLdvf+dL8GHygZ/r1fWrlWRmc/r1mUqTGQbH75DyJtUg4nChT13Yu06dmbrhh/XbDqlMsOI4UoVMkk+1RUEhSuMcnESJAmapV3/CTQSor6EvmVUOwy0f00kceIvo8mziV72vWZhapZpEqhZYbARvGLVFEFmuKDSbARgGJMLKyN9fE34t2V7G/w8F9wXGnEXVwrkdFjSCG//4BTef7Mc/STBJg32RwgOUIrhQO0VuPHgzYAHc+mXN5rZcHtx0oCoTKXm+/pItuQXqyztuZ/HC67aVEvgixq7t4Z77vxSGbRNsymMQaNI13smj/djgiO6Q933JZE7VLePvOXsQA8WIvtgPKznXLsRnM7ykKbXcrleFP9ZpLHLPhbSlb4g2iMP9vmVzy432rX02Rv8tUGGnkB7u7kzUvHBkYFL32mZ21tieVyCB/JzVXfMgFeaeZLmJjPbhiJq6y4Fh5Cj7p9rshi70JzAmi4idDV6U6KhsIcNXuCPSwyqENaIuWrRQLbYsbe1A6rUQPIBYqmj+/ol2J9OQ+8zohlKDPDsaNg/ekBihI2s0DndZqHqpXWHHElWJvvqvnjX887UegZlpQEmGCjtle+mPa5n4V430FdjdFcrYJ0BT+iiiYHn5tWJ8JclGnPkt4ybmLV+yIIqBxay6sfCol+pTym+qcogyQ9MB3QZgedIlQqj0objRmf/L+NXMXcaYmDXsNBNZxE5E0ws2MkcFTWivttMzYaqLZrLepj3KAbyGj0D5APzUEwHPGrgUxxSd1HR6eVRY+ojvnYmyC/nzc4M+bZbPoozwniSS6Jv0J9H56X/kca5WrSnxRTTGQk4h8mD1lTDb8O4hgkTLG0gD/u50VcI3fkiUgkJko25dr7WFewCaHLo35V8Zj9iFro/FPABt71ye1PxDNht4IT+7Od5iJRMwR5gcIJ6DTHvj3FqoclSUpdIcKqDsJAHTKb1xv+2yK11Uer2cUa6iqapgLv7HH5zM/rpsHrMkA/JkQVAyGk++TIszLqVE/pI48zprcPf86xStzCG1TguqE9kKVQn81x7HHkoRCCkmR4t0wmpwWGntfoRyjmXlgRWkHIimozoqwJ0A182T2hjlxzLiE/47sOUUouFUfniSDemhoDXGj6JVb+5o6M9gHWtE3sLpFxPD+VSixvQinjKrX7fiqOMPcnxYTqYdt1yWHDkJlbtqeZooHLA1lJeCEOxiD+Oncbyc1rdm6W5gJewsI34ljEi0TZfID222j9TJBgLGYcDN3FcZf6CWRXMrjI2XKT5V+Apc7xrHpA8n8Pq6Kv45tTpWi9oO3nrf/jND5LgYbq86JG3E9C8D9K3UDEV5tSd6K47VKIzfG6cUe2DuYrnRhDIVwTlcv5HxN4PwgSuhwQK0lvXN+S1Oi0/TQ9gQH9UT0ynOhKe535ww7adrdgX4DPDPqwY4xL2A+qQ5AA8xjuMY6+gk2S2iUoYOHB4zi/WmItBlHaqbYBTMizJmxr82bT9GMMAtIpcWOyUPMrQlD48ltzVYrEiMeBfH8rolHfur8iQ9zWS9L2DE8HK3V4YI6g0XxF8GDTTTL3BPBkqghYi/Ufxfvvn4aZ/Ezd8GGFJEHP2ddMa6aPOUS9FvabLJX+sj/Ls2b4zi/H4i5JqWZsH6Cl6BC2FdbiwZZem7Y2z6dRuwLeKtpdUvZI7xPs1Ig0fbOP1tz31xGbeyYTvKVHcXGhvcpS/BKhKxiLbpSohRRvbx428DugyouIFxP1Ny1Aj5/JNdhMr0w2nHHNL+ZK8puXdF/BsdujotrXZn/NGhwkthSwqMdnos9hExLfhAEm1eo3eUqLSo8J1dMsF1UZ57pf4e6cZ7nNK0qy/DFWolLq71oKaXqfG/72zEjryxY2UuTFSkqbcEINOUucHG0A6f/adho0ftkwegxCS4TX/8Vf+Llk1h/R9Lb7pBQIhcPP3dCM0mgzlyXL3b6k4m3iQQEz8kVw30xB2QgS/OeKxG4ExXHm4Iuo+Gbbo4aqxyVEU8PhtcTiujqyrQLIUVur/ifkOB3EZf7CO7kL81qO1DnSOrYc3g8FqAbWv6VjrniQcz/BCEOFFCXkQF5qllidrCurSbuGgOToWyb9n6hu70eHkLVLstwzdkv7DX5skAjESsJRvJviQIgZqoSV4GDk2u5GUN20hqFWj+Wmt9u5EurOpXB6p5hatubY+gZSJdKJVQF2Tv+e4aJpwAl0ctW8I76/iT6PzcbZiXjUewYEESYPoX6R0+SsPV2+ivuRgUGGh4yAAjogRM2wcsZ0bQ21mcT/E52nO18MkkwWb3c8O+barALKngitxUYiQKv02BVv+c5dJzP2axS5usQyRarYpxzxIpjVuVIZDGBggWrVhKaFMwr1lm0tRyHTpVJ62ERhVJlgy0Ozjfg+6yWX0WLgR9r4XASKC/yrL8KJ1iW0QpreqpEXPMbw2Lq20MvqrahtLmdj/9KyXoSsqO/fRIxfsfOZB6md2AgYkPTrTBhIst7nikYn2RtbgZ1OxhoJ6/f4rWPBagllqsCVeA11/W4SWDnRcSxalvSv6mfyk893Y3Jam694Me0mcPKohKmoT3h9pc3jD53v/hBHiI/h/6llNGx26YsKwX+nNWCOeE68QI62CYX/5XbO7ywslZjirD6Iu4SyRHknY1O6Kzk6xG9nGgPKs8fmE0Wi3CRMHyQxLUzsn15oxtD3WTkJdD8a79mOdVTOoz8uK9G1smWp3IDRXERw1CSsX2GEOrcQlZ/4MJraBPhGC/pgWUb7gLzopC5IU6EBE5ez66ewmY3wnXuiKcwxtbwWj+GF/U5+WweJrC6G2Xk8zfaub92BWCQlQK8sON4rmD5lHK/b/VCAMqUjAq4KCCrFdND7sdyvWT+RXIVNH2GCEMZOtL9I+RnVQdG0FQlercIJ/iZSe+zlU+S3C3YJTXOu3KzmWerXRsaUmPdk5x1eZ4E4UzB5cbr8wvun7Pas14S+rLROv/R30tsc4I1e+2xLQAqdi0G6Im9eSkwWVdBeYu+oGDDYj+NfvPdqROySZFV6OK7pqa5i7w4Mwt4+mvmIHoCR7R1uyw9h19e8XZUG78TB+kcHw1ndXOdvd+SEsDFuPraRZ73dW8ZSNNRt89MLVEsE7/hjEJUhLXv5jTzMHaaXinSj8CfxkLmfxbsd9CAGJyo4T/l8V7NBVRLuL8E4w9xznaYv1S9ADS52PcG5uIAwsy94fsZf8UPzCyaALMCxKMPa5xMtko76TdprErGJ5MiUOaqa93/b+U2v5zdihcvbCHJop0IV0ktCsgrLy6ngWuuNlOZxx8Du80x5dt8l4A1gBC19oij2uzj+aaDrMcJAR6y5SKcXXCzMB9zq/vH7F0xE3io2gWzXCPC3EWAn4mwHXEYL6KQJDcd+l+kWBlyqdYF+HlfkEba52tR94DSohwf7zjAiGCvKKt1hox9yHx/U1j3Sda5MrQ0/ECKkuQ8JoH7brHPjD3nEcFBCc0rnpR99t3Q2BR0rWlJ7ZCfOLAlWZ19g8H2M3B7ku/dOt0z3MpP98pSOza09nUU4292gJgkDUAJcucpxZ0j8cI/nkpoaaENnfnBrSTPVMwqBZbgGOd3dRXBSzJnTHo1JD1cVYmsPXRzZ3Ozwib7XlRympflQPDwFSHc6aNKAFW5G0GmlEvMcPEDHT4SnpB7D2uSGllmpBqj/L6fhgCzxTOgSGfMPRY6ALymlOdQf+j4eIwS4OE9SX0QQ2x3hIzUbCRjOv8/m9ry11/scVp4sCSuzJgTj2yGNo7D9GtO+FKVaU7h9Bm56FZakzDo3d6VlQRQaQXRNV/inOBYenbjPihdmXfsi1UO5riZN2H6BjUY6N6fXqDRbs81BL8jMf9ySM51r2NHx4JtOToZ4wsffK1Uhhmncs6v4YHBNzjt2DRwFAz8Vjpe1EWr7tVEUNMjWlAb+H1FGvSgkuL2hzvYd4PEB1d4daXB+HTvNpXqh4vS2BaAsTiHXfPxibYv6DOHQrGJvGfb/a6KCapjXBNkp7cVEJvCaDf88WIzP8A0cjm4gQpPNcAQvTq93LZsg98jqM7w9MdHCXDN0AdILmzVQOQGnLHswA+Ke1aIxfwiJXO1y3XAGITyxOvtUedB46UOMkwdeSBJfjXcy2ziBQyUkwHD6Qe3x6/gChsK0ABJKZ0+Ehh/ggXZ/HgBDVmMDOfKPlN5sAaGIxaVeyD4r7NtPk5hbPRI3CzwebchksD3X8crJitgU9zn92A+QZW1v2JOSHkTF/opgUNLxHRwtu00m7E0u2Bo8mi2VUoqHhdb1K3R7Xmp1ZMNmmRj/25C9bqwqQqQHRc5ZpwpxfmUAKvgs8p2Xt/CAkO9BraINkBYh9Z+vmQtU3Q5imeIKh0dS/WUCoyNBAbDbZ0seBxXgYki+D+TtVCVWbiAN7xAav4Mcb+kcNPCzE1UX+Eufoi825vVcmTrGquSLiLrX1i7rUm4/dI9wywsU4NSlp79uPgGrNKa0jpY+vfc1wZN22Y3z9jayZ5nar3fLQwiygZSd1ZAtA/XVMNK3Wa74OxTdnjMUNHFT7aGosUARhvwFAe4K8kMceh94nsG+XejZwDCqDnkKbQWNffZ0IeBVWsO3zNmdRsc8V/lYrd6BVcEJvFoBekOGtKpYhuYZoRHnFHAIYppChezIn2xXYpyM7GnCEJKyBBEybi0cmcLPCb6RLHJSMxKIY/0u6OydOENnxdqnyvYXhJpxwdA/YmEBof4Hwc+hegdj6c9OQhNEmQTRrjnsoDzTv5OcmFSiP2R6APbZb6dKC24k/s5aYufRzpnXcd8/Ajd53vXMt4pVMCG4px+n4vDixGu2EboPNtXBgqNku58E2UrrTOW0UZvibeaGRimQ9nYdfq8OCst+2pVDPcKSFUzp+xmtBznXNZ5p9ekHpBclHEwfRWcgsan2Tx6M25QnCY27LUlPtBkHgGA/I1q/go/hJthos9p50yfSVvCjpyovu8jo6FRJdxygSxHTIOYPU21rbYDOrgJEslkACN5sgeRRZi1jgO0hjku2DcRGp7If+p03Ckg5H1oLx3asXhRXV5plW0nXk3+EuCJIq2EF56XUKasrn92YJcDUvJRCekOUIU+o4kEPHFKQ4SfZiNE6cMnTnvrnwRAuwhRXEE8BkOTzaYXfMwy0wv078Uf2g2ay9f32E7lCXakq0VBGp7Bj2shRH4sPWIv3j9bAEGq8DOI4oUDD0ERDzhyrhNzIF6JhaKx21iesLjKt5ienm0twagI+kzdWS6qvv92EbuLfQS3IXcXaz5DJa6Dey0HqkysfGb8FdQyEyJz7tzzX6LUkLVigAk2bjeLWD/8yB3L1bGBOiPC9gT8BW9gzcWSLRiMh6+9vwDulGzmcn+9iOiqu5zCvEmkGRVSjzGj3IRCr3KlBYW3pQpdDlf7EC6TwLYSso3TZmJ+H2ecUaWoc3vHxaTzti1bge/lBpJx2yKWKCRzZFwkaPdaldFJew7hHBvt5QJyiRe6HFdBvCInUIbKzN7bbhd4KRlkHAYnjj1JVVPJ/v7TpNdY3cGQ1uHt9cGfqkv/wLj+3ZQlltI1HhceE0gOtaNcw06dWDylAAABbhqCaRh0hE/ssanJHJ/+uSYpXgXLnTDg6+etyVpmENrzxKBNEU2rGkbicO3f8bforIgLWIWczrDJluojKVQPRDVhvS7/ajMc24udWdgUhfij6YzXmNFo3v9WPjHPSQR9jgXjYfY6InYha23dem2pXMRSm3hXo+oRwQ7h37HNgRJMrfahbvXw77OPf0nOEWVsvi+ll6uN3Z+EpMi77F9GLfJb1vLCo075O7zmsCChFDNeQaIYCA0HghodEVK7xJgG3gjhjII2L/gZuA/OxaXcioWDErb5UKydyLFs8p0iUqO3PZGRP8BkIkD2FsG9hHqNi/IPqog/iAURrPVKYYPrfqpcpMdO+ukDKZZSwWRzIPrCcOFQjdADqgPOmiqz6avKOjqec0+5bGRmDK9BTm/EUZJHbcZKT2ufEMzPCaeG+6LCkewnYKEzB6odXFMMvkkB9E0+TDKLuV/6GTmAABFWElGXAAAAEV4aWYAAE1NACoAAAAIAAGcnAABAAAAPAAAABoAAAAAQwBvAG0AcAByAGUAcwBzAGUAZAAgAGIAeQAgAGoAcABlAGcALQByAGUAYwBvAG0AcAByAGUAcwBzAAAA;" vertex="1" parent="0EpXQb5gd15LvrJzalUh-19">
          <mxGeometry x="6.129999999999999" y="60" width="18.89" height="30" as="geometry" />
        </mxCell>
        <mxCell id="0EpXQb5gd15LvrJzalUh-22" value="" style="dashed=0;outlineConnect=0;html=1;align=center;labelPosition=center;verticalLabelPosition=bottom;verticalAlign=top;shape=mxgraph.weblogos.json;aspect=fixed;" vertex="1" parent="1">
          <mxGeometry x="340" y="446" width="29.55" height="32" as="geometry" />
        </mxCell>
        <mxCell id="0EpXQb5gd15LvrJzalUh-23" value="1" style="ellipse;whiteSpace=wrap;html=1;aspect=fixed;align=center;fillColor=#0050ef;strokeColor=#001DBC;fontSize=15;fontStyle=1;fontColor=#ffffff;" vertex="1" parent="1">
          <mxGeometry x="110" y="360" width="20" height="20" as="geometry" />
        </mxCell>
        <mxCell id="0EpXQb5gd15LvrJzalUh-25" value="Uploads Government&lt;br style=&quot;font-size: 7px;&quot;&gt;Document Images" style="text;html=1;align=center;verticalAlign=middle;resizable=0;points=[];autosize=1;strokeColor=none;fillColor=none;fontSize=7;fontStyle=3" vertex="1" parent="1">
          <mxGeometry x="125" y="355" width="90" height="30" as="geometry" />
        </mxCell>
        <mxCell id="0EpXQb5gd15LvrJzalUh-26" value="2" style="ellipse;whiteSpace=wrap;html=1;aspect=fixed;align=center;fillColor=#0050ef;strokeColor=#001DBC;fontSize=15;fontStyle=1;fontColor=#ffffff;" vertex="1" parent="1">
          <mxGeometry x="280" y="270" width="20" height="20" as="geometry" />
        </mxCell>
        <mxCell id="0EpXQb5gd15LvrJzalUh-27" value="Queuing&amp;nbsp;&lt;div&gt;Documents&lt;/div&gt;" style="text;html=1;align=center;verticalAlign=middle;resizable=0;points=[];autosize=1;strokeColor=none;fillColor=none;fontSize=7;fontStyle=3" vertex="1" parent="1">
          <mxGeometry x="290" y="265" width="60" height="30" as="geometry" />
        </mxCell>
        <mxCell id="0EpXQb5gd15LvrJzalUh-28" value="3" style="ellipse;whiteSpace=wrap;html=1;aspect=fixed;align=center;fillColor=#0050ef;strokeColor=#001DBC;fontSize=15;fontStyle=1;fontColor=#ffffff;" vertex="1" parent="1">
          <mxGeometry x="405" y="520" width="20" height="20" as="geometry" />
        </mxCell>
        <mxCell id="0EpXQb5gd15LvrJzalUh-29" value="Document&lt;div&gt;&lt;span style=&quot;background-color: initial;&quot;&gt;Processing&lt;/span&gt;&lt;/div&gt;" style="text;html=1;align=center;verticalAlign=middle;resizable=0;points=[];autosize=1;strokeColor=none;fillColor=none;fontSize=7;fontStyle=3" vertex="1" parent="1">
          <mxGeometry x="418" y="515" width="60" height="30" as="geometry" />
        </mxCell>
        <mxCell id="0EpXQb5gd15LvrJzalUh-30" value="4" style="ellipse;whiteSpace=wrap;html=1;aspect=fixed;align=center;fillColor=#0050ef;strokeColor=#001DBC;fontSize=15;fontStyle=1;fontColor=#ffffff;" vertex="1" parent="1">
          <mxGeometry x="560" y="520" width="20" height="20" as="geometry" />
        </mxCell>
        <mxCell id="0EpXQb5gd15LvrJzalUh-31" value="LLM&lt;br&gt;Extraction" style="text;html=1;align=center;verticalAlign=middle;resizable=0;points=[];autosize=1;strokeColor=none;fillColor=none;fontSize=7;fontStyle=3" vertex="1" parent="1">
          <mxGeometry x="575" y="515" width="50" height="30" as="geometry" />
        </mxCell>
        <mxCell id="0EpXQb5gd15LvrJzalUh-32" value="5" style="ellipse;whiteSpace=wrap;html=1;aspect=fixed;align=center;fillColor=#0050ef;strokeColor=#001DBC;fontSize=15;fontStyle=1;fontColor=#ffffff;" vertex="1" parent="1">
          <mxGeometry x="340" y="410" width="20" height="20" as="geometry" />
        </mxCell>
        <mxCell id="0EpXQb5gd15LvrJzalUh-33" value="Store&lt;br&gt;Json" style="text;html=1;align=center;verticalAlign=middle;resizable=0;points=[];autosize=1;strokeColor=none;fillColor=none;fontSize=7;fontStyle=3" vertex="1" parent="1">
          <mxGeometry x="350" y="405" width="40" height="30" as="geometry" />
        </mxCell>
        <mxCell id="0EpXQb5gd15LvrJzalUh-35" value="" style="shape=image;verticalLabelPosition=bottom;labelBackgroundColor=default;verticalAlign=top;aspect=fixed;imageAspect=0;image=data:image/svg+xml,PHN2ZyB4bWxucz0iaHR0cDovL3d3dy53My5vcmcvMjAwMC9zdmciIHZpZXdCb3g9Ii00NS4xMDA2NSAtNDQuOTUgMzkwLjg3MjMgMjY5LjciIHZlcnNpb249IjEuMSIgaWQ9IkxheWVyXzEiIHg9IjAiIHk9IjAiIHhtbDpzcGFjZT0icHJlc2VydmUiIHdpZHRoPSIxMjAwIiBoZWlnaHQ9IjgwMCI+PHN0eWxlIHR5cGU9InRleHQvY3NzIiBpZD0ic3R5bGUxODU1Ij4uc3Qxe2ZpbGwtcnVsZTpldmVub2RkO2NsaXAtcnVsZTpldmVub2RkO2ZpbGw6I2Y5MH08L3N0eWxlPjxnIGlkPSJnMTg2NSIgdHJhbnNmb3JtPSJ0cmFuc2xhdGUoLTEuNjY4IC0xLjEpIj48cGF0aCBmaWxsPSIjMjUyZjNlIiBkPSJNODYuNCA2Ni40YzAgMy43LjQgNi43IDEuMSA4LjkuOCAyLjIgMS44IDQuNiAzLjIgNy4yLjUuOC43IDEuNi43IDIuMyAwIDEtLjYgMi0xLjkgM0w4My4yIDkyYy0uOS42LTEuOC45LTIuNi45LTEgMC0yLS41LTMtMS40LTEuNC0xLjUtMi42LTMuMS0zLjYtNC43LTEtMS43LTItMy42LTMuMS01LjktNy44IDkuMi0xNy42IDEzLjgtMjkuNCAxMy44LTguNCAwLTE1LjEtMi40LTIwLTcuMi00LjktNC44LTcuNC0xMS4yLTcuNC0xOS4yIDAtOC41IDMtMTUuNCA5LjEtMjAuNiA2LjEtNS4yIDE0LjItNy44IDI0LjUtNy44IDMuNCAwIDYuOS4zIDEwLjYuOCAzLjcuNSA3LjUgMS4zIDExLjUgMi4ydi03LjNjMC03LjYtMS42LTEyLjktNC43LTE2LTMuMi0zLjEtOC42LTQuNi0xNi4zLTQuNi0zLjUgMC03LjEuNC0xMC44IDEuMy0zLjcuOS03LjMgMi0xMC44IDMuNC0xLjYuNy0yLjggMS4xLTMuNSAxLjMtLjcuMi0xLjIuMy0xLjYuMy0xLjQgMC0yLjEtMS0yLjEtMy4xdi00LjljMC0xLjYuMi0yLjguNy0zLjUuNS0uNyAxLjQtMS40IDIuOC0yLjEgMy41LTEuOCA3LjctMy4zIDEyLjYtNC41QzQxIDEuOSA0Ni4yIDEuMyA1MS43IDEuM2MxMS45IDAgMjAuNiAyLjcgMjYuMiA4LjEgNS41IDUuNCA4LjMgMTMuNiA4LjMgMjQuNnYzMi40ek00NS44IDgxLjZjMy4zIDAgNi43LS42IDEwLjMtMS44IDMuNi0xLjIgNi44LTMuNCA5LjUtNi40IDEuNi0xLjkgMi44LTQgMy40LTYuNC42LTIuNCAxLTUuMyAxLTguN3YtNC4yYy0yLjktLjctNi0xLjMtOS4yLTEuNy0zLjItLjQtNi4zLS42LTkuNC0uNi02LjcgMC0xMS42IDEuMy0xNC45IDQtMy4zIDIuNy00LjkgNi41LTQuOSAxMS41IDAgNC43IDEuMiA4LjIgMy43IDEwLjYgMi40IDIuNSA1LjkgMy43IDEwLjUgMy43em04MC4zIDEwLjhjLTEuOCAwLTMtLjMtMy44LTEtLjgtLjYtMS41LTItMi4xLTMuOUw5Ni43IDEwLjJjLS42LTItLjktMy4zLS45LTQgMC0xLjYuOC0yLjUgMi40LTIuNWg5LjhjMS45IDAgMy4yLjMgMy45IDEgLjguNiAxLjQgMiAyIDMuOWwxNi44IDY2LjIgMTUuNi02Ni4yYy41LTIgMS4xLTMuMyAxLjktMy45LjgtLjYgMi4yLTEgNC0xaDhjMS45IDAgMy4yLjMgNCAxIC44LjYgMS41IDIgMS45IDMuOWwxNS44IDY3IDE3LjMtNjdjLjYtMiAxLjMtMy4zIDItMy45LjgtLjYgMi4xLTEgMy45LTFoOS4zYzEuNiAwIDIuNS44IDIuNSAyLjUgMCAuNS0uMSAxLS4yIDEuNi0uMS42LS4zIDEuNC0uNyAyLjVsLTI0LjEgNzcuM2MtLjYgMi0xLjMgMy4zLTIuMSAzLjktLjguNi0yLjEgMS0zLjggMWgtOC42Yy0xLjkgMC0zLjItLjMtNC0xLS44LS43LTEuNS0yLTEuOS00TDE1NiAyM2wtMTUuNCA2NC40Yy0uNSAyLTEuMSAzLjMtMS45IDQtLjguNy0yLjIgMS00IDF6bTEyOC41IDIuN2MtNS4yIDAtMTAuNC0uNi0xNS40LTEuOC01LTEuMi04LjktMi41LTExLjUtNC0xLjYtLjktMi43LTEuOS0zLjEtMi44LS40LS45LS42LTEuOS0uNi0yLjh2LTUuMWMwLTIuMS44LTMuMSAyLjMtMy4xLjYgMCAxLjIuMSAxLjguMy42LjIgMS41LjYgMi41IDEgMy40IDEuNSA3LjEgMi43IDExIDMuNSA0IC44IDcuOSAxLjIgMTEuOSAxLjIgNi4zIDAgMTEuMi0xLjEgMTQuNi0zLjMgMy40LTIuMiA1LjItNS40IDUuMi05LjUgMC0yLjgtLjktNS4xLTIuNy03LTEuOC0xLjktNS4yLTMuNi0xMC4xLTUuMkwyNDYgNTJjLTcuMy0yLjMtMTIuNy01LjctMTYtMTAuMi0zLjMtNC40LTUtOS4zLTUtMTQuNSAwLTQuMi45LTcuOSAyLjctMTEuMSAxLjgtMy4yIDQuMi02IDcuMi04LjIgMy0yLjMgNi40LTQgMTAuNC01LjIgNC0xLjIgOC4yLTEuNyAxMi42LTEuNyAyLjIgMCA0LjUuMSA2LjcuNCAyLjMuMyA0LjQuNyA2LjUgMS4xIDIgLjUgMy45IDEgNS43IDEuNiAxLjguNiAzLjIgMS4yIDQuMiAxLjggMS40LjggMi40IDEuNiAzIDIuNS42LjguOSAxLjkuOSAzLjN2NC43YzAgMi4xLS44IDMuMi0yLjMgMy4yLS44IDAtMi4xLS40LTMuOC0xLjItNS43LTIuNi0xMi4xLTMuOS0xOS4yLTMuOS01LjcgMC0xMC4yLjktMTMuMyAyLjgtMy4xIDEuOS00LjcgNC44LTQuNyA4LjkgMCAyLjggMSA1LjIgMyA3LjEgMiAxLjkgNS43IDMuOCAxMSA1LjVsMTQuMiA0LjVjNy4yIDIuMyAxMi40IDUuNSAxNS41IDkuNiAzLjEgNC4xIDQuNiA4LjggNC42IDE0IDAgNC4zLS45IDguMi0yLjYgMTEuNi0xLjggMy40LTQuMiA2LjQtNy4zIDguOC0zLjEgMi41LTYuOCA0LjMtMTEuMSA1LjYtNC41IDEuNC05LjIgMi4xLTE0LjMgMi4xeiIgaWQ9InBhdGgxODU3Ii8+PGcgaWQ9ImcxODYzIj48cGF0aCBjbGFzcz0ic3QxIiBkPSJNMjczLjUgMTQzLjdjLTMyLjkgMjQuMy04MC43IDM3LjItMTIxLjggMzcuMi01Ny42IDAtMTA5LjUtMjEuMy0xNDguNy01Ni43LTMuMS0yLjgtLjMtNi42IDMuNC00LjQgNDIuNCAyNC42IDk0LjcgMzkuNSAxNDguOCAzOS41IDM2LjUgMCA3Ni42LTcuNiAxMTMuNS0yMy4yIDUuNS0yLjUgMTAuMiAzLjYgNC44IDcuNnoiIGlkPSJwYXRoMTg1OSIvPjxwYXRoIGNsYXNzPSJzdDEiIGQ9Ik0yODcuMiAxMjguMWMtNC4yLTUuNC0yNy44LTIuNi0zOC41LTEuMy0zLjIuNC0zLjctMi40LS44LTQuNSAxOC44LTEzLjIgNDkuNy05LjQgNTMuMy01IDMuNiA0LjUtMSAzNS40LTE4LjYgNTAuMi0yLjcgMi4zLTUuMyAxLjEtNC4xLTEuOSA0LTkuOSAxMi45LTMyLjIgOC43LTM3LjV6IiBpZD0icGF0aDE4NjEiLz48L2c+PC9nPjwvc3ZnPg==;" vertex="1" parent="1">
          <mxGeometry x="59.34" y="262.5" width="52.5" height="35" as="geometry" />
        </mxCell>
        <mxCell id="0EpXQb5gd15LvrJzalUh-36" value="" style="shape=image;verticalLabelPosition=bottom;labelBackgroundColor=default;verticalAlign=top;aspect=fixed;imageAspect=0;image=data:image/png,iVBORw0KGgoAAAANSUhEUgAAAJIAAACSCAYAAACue5OOAAAAAXNSR0IArs4c6QAAIABJREFUeF7kvQe4ZWV5Nny/q69dT5kzjZmBoUhxEBBUlCjYMLZIYk3U2BJ/E0v0/1M/kxhzpf5p+sWY5Eqifom/JkRFjShYqCoISB+KMjAMTDlz+tll9fX+1/28ax0OI8N0BpKVHA9z9t5rr/W+93rq/TyPwv/QI9HJKVFanB7l0endRncTgFVJloS+dsLQ80KUCOMkC9OyaLvNAP0s7pUoo5bbiIo8iYrBMGo321GhnMlM4Y40L+6Ik+Edx3Q69/5PXFL1P+Gm9e7dZ8JvnA/XfhZKfTpK/QzoErAANHykaYy4LBA2WlCwkcQJXNjwfBdZCWgbSAEUKKCjBHoQYdRvAY4PLMaA6wOBAmyYc5a4ZZhnt6cob3Gb/tUtpW79777O/+2ApLVWuwfzz3Cs8oKWbV/gWd4LEKdj6MXAIAZ6A2AYAUEIdLtAuwk0KyA4Fga6RJFr+MqFazkoNVBaQK6AIs3QLiygtIEhgPt3AcEosO1hYGYGGO0Cx68HVjQAH4DSgKdRhtZspnANFK70gSsB3KkUX/zvczzlgUTgIMVpcHABFC5IiuR8XWYTPjR4c/N33o3Bwzsx2L4L+VwfyXwP6TBCu9nCipUr0V25Ev7GDcBJ64BuiMJzUFqeiJYszQGtkMQpWo0mXO77fAk8PAfcdDe2XX0Tdmy+H+UggQWFoN1EONZBd+NarD7vLOC5zwCaAMY9wAMWB0N0Wg2KtimkxdWAuhIN60ql1N1PdUg9ZYGktfZT4OVeidcDeDUU2ihzIwX4e/sOzG99EA/fegeKqVl4wwSjbgAfCtkwEpD5jSZ6UYq+a6NxyrFY//znACceCzgOImhY8FEUJfKFCJ1GS6RQ/LXrsPmrV6L80Q405jOs8jrwM8ArFcqywHRvDtPlEPbxKxFsOhZPe8OFwHmnA22gP1yEciw0m02qP3PYqgfgq9D4T9i4TCmVPBVB9ZQCUg2eEni9JniANm8gzxPoJEHb4r8UsGsS26/7AbbedDMm4MDp9dEogdFGA77vochSxEmMXAOFdjGf5YjaAcZOPxlrzns28LSNKBwHC3kGQq9RusDDMeYu/S7u+eJ3UG6ZxETmohUDbctHNteHgwIdtwW0G4BdYCeGeChI4J5zAk577YvhX/gcoGMBVolE53AdG5ZlidyUTTCKrgf91ATVUwZIudavyoHf1sB5XHP+8KHOZCtyNFHAzUtg1wz619+EqZtvh9o9jeNGx4EoAuIY0BngAIUNJKpAWmo4dgONxgj6cYqdaYzG00/C+pe9EDhpPXYPI4w4bXizGv1LrsOtn/oq/Pum8fSxdWhYHuanZmHBQtPxYItFnpvv0jnyloP+uIdbk91onXsyNr3pZQgIphbQt3MMVEGIowHbqMzKTpdHwdzcdwH8iXLUN54KEupJDSStuTt4Uwn8Vg6cXmsDwogXXqBEhAxFOcRKKwDiHPl3b8DtX/0GmtPzOHntemByN9WH2R2dAk4JHdhIXSAtNMrUQtNrQ6XAVBRjrt1A++xNWPGi5yJYfywQO1j89i3Y+i+XQd24DSfmLXiDAr0kQaPTRqYLqLKEmxSwkgy2ZQOBD6IjthL0xj3cnkxh9AWb8My3XQScdTziFhAHHgoAAbXbMqTwvuj4iQNonpjbofFnsHGxUoofeVIeT0ogUYWhxLsA/HoBbIyKFMqx4SgbFkqUZQYUBTzXwXwyj1E/BLIC2PxjbLviu3C278aqTMMeDIEsE8jBKgBHC5Ayu0RCyUQTObPQaYwB/QxpqRCPdDHpu2if/QysftFLgYUS1/7WX6J72xSOnXPQpbGtAvSGC2iNj2OQR8bUKTVsOb2GpY1IyZwScypBv+NgfoWP9Rc+BxO/+DPAhjYWiz6ckZYgpRTZaouUTZEJkAK4Iql4yZU9dT9K/AVcfEYpFT/Z0PSkA5LOshdBO5+BhfUUO+J6V6pMI4dd5HDpkyteulFuSBNg+270b9uMmVs3I5zvYbwE7OFwSU8YIMmOI1cEE0CHjx9v+B2UwwxRqVC0upi1bHRPfBpGX/QK4Jb78P2P/RvGHoyxLgrQ6ivAayJK+gg7HaRFCq00GBUwhwGSXYHJ7TTRLyP8aHE3vFPXYdOvvhm48JnGmwsh3txQZ8gsDaVcFFDQYuhrAVJI5cnbfEQc/xjA+5SrvvlkAtOTBkha69Uoi7+Gtn9eHs1KxqfVFfK5TeMBwrKEwwBgUQKDATA1ieKBBzDzwDYMd05Cz86hoxQ6tgUkESzKHcWt0VCy2Rpal8bApXAR/RJikKaI4EAHLQxjYGL0GDQ2nQtccxvuuPR7GBl6GCtD+KkNx2uhHAxhMRZFEFulsbscILPNd4nwKzSi3gJG16xFqQrszAfAcSvQOX0j2s/aBLzgDGCtD3oCwyJB6igoJxCVlyODB4UmHLi1VKojT8an+Bws/LpSaueTAVBHHUhaaytD9h4X6k9Q2l2U1SVZgLaAqChg2TaKIoYeDtFyXYntYL4HbHkAc3fchtkHtiJbWETTttFQCg3HhmsDeRaj0AwJ8P81bChRPXbBEAGBpAECzrXRR4HIdqHtBsoBsFKNwho/UYC0666H0bRa8EoPKrfgOSEwSAHaQyl/EzVA4hJMGoUSDQqvgLGdHAcoC6SuwoKnsUsPYa0dw+i5J2Pt2y4ETl0DND2kZYwkdFDCoeUHFxYCKAotqFoqVY4p9Z8GFhTwOwD+4WgHOI8qkLTWp2Uo/02hfKbDlaF+qJ+66p+SmtAZdBKjqUtYygaiFLh9M3bcdDPsqd3IpqbhK4WxdgtWWaDIU7FWaQhnKodWxsV2tCWb61BX8qfkThtDZOABESWdCuEMLIwMqHfGkF97J5KZBLbTRFFYKAsLvuXBjkvQYkNBoJaAo0QqpcSMopBScPlntwEs9qHzDKrbAVohFqNFTGdDzE84mPjZc7D+Vc8DzjxFouEpYmQhVRzNbS1SScKjtVSqgMTv4J8oZBVwLYD3KqXuOFrS6agBSWt9kYb+VAE9youwKX741NVAokRRZr/TMoWdJSJxEKfAvVuw47obsfuOO3FsI4DV76Ht+bA8GhxD6DyF8l1oR2FYZigtyiMFgtUtLLhifzPnwXBAJnGfYeAgdj0UpYcw8dBaZCjaRXrDfbATB3nhoNAOtMUsnA2nsOBQV+aMH2qzo5aS0/K7bK2gSoV8EMFpdU1KJomQxZFEz61mgNl2gVv93TjloufjuDe+BtiwQq4nCxVy28FQJ2gqX0w7MborlU+BzHURI78CE4A5AO9USn35aIDpCQeS1poy4OMAfsU8ZDQsueiVQVnbR5QoxhZGmkdoqJJpK2D7JCav+T5237YZ3uIiVoYOrOEAbZuKwDJ5NBriYSCGti4z5LaF3OK32AJYO6cTR0ueQKIDlCL1PWS2jzS34OchGhRR0wX6dzyMZhYg6xewrQB20ETKTK6yYDkW8iKGoh2mFe14kUQikrjbfDhsTzxMSr8oz5DZCh4lp+9iV7mAe/UOuE+bwAXveCPwiguAIId2c+TNAIvZEE23YYBUBS15WmNDGTOSi7lk5xsE/R2ADymluHRP2PGEAklrfQKA/wBwdrUuAiSxq7lCyyQS86I1kIZJD2OeDSeni38v7rr0cpRbd+C4bgdOGUPHQwTaMoZzQrXmSpoDCTPzjthBOaPeyobi+0pVeUIp4KaATqB9H5lyROD5NKqjANiVYPHe3WilIZKZGIHThGo0hR2QMS7l2tAWH4RSbCK3ijIsAYlbHDZQLCxAuy6cThtxmqAXxXCDAIphAW8B9yQ7ceYvvAqr3vMLwKiNWCXwRloYpAmalLRLXqsBUb1MewESl/aHAN6olNryRCHpCQOS1votAP4eEts1B0GUVULa02aTa/GdWoa6QXnB0F2oY7hxgoUrr8XDV38P6zIgm5pCt9MQd5s2hKrBSGiKiqSxUp2zpLdm/qYosaiWiLyiJ481gVYQaJYPN/ehFi1gTmHuzl1oxD781ANyW05Jdz/nFzLFUSoDzsrtNzGkRxL7DDHwUSkV4UbgmR+CurQyDPIpTI0UmD5jNZ7/G++Ees5J2BUtYqLTQdZPEHikEQCU43Eloflv2k0Szagk02MApg/grU+UqntCgKS1/m0Af7rnzRJIOXLJNtF+qYEk4R1lgEQRTh+mVSTi7k9//Zt46Krv4mluiKbWKAq+i/vLzazAZJx7o15qMAlwxH0DytKoG52jLGMol/EqBgoULOXBKQKgZwPzCrN37EIjCgRIikAiSFSJgsEdgpR/4wNg4GJ+K94Z/494Nfk0rS3zw62nw0DQKubcIky2U1w/luAZ738TNr7lQgxswNdA3osRiIoGCgKpWg9eRaM2wPe9g7+nlPqjIy2Z9n0Zh3gFWmsCiED6iYOxIS3CugaCie5yO8SpqvV/OoBPNRVHiK+8Bg997zqsKRTCPEdZfd4iUCROSVhWUkcSurn5m6RJTBy5KBkdJ5BKuASPZaG0xdKBpdx9AMn44gZIVJGOeQDkyuurpw21XDIRSAqlvM8AigDjN5bJAuI1IW4eSfGMX30DRn7hxcitEr2oj9HRzpJrRmlUG9i0i3wuG7/icUTSsgX/qFLqDw5xKx/340cUSFrrT9Ko3vsVGMiYZ9cRs5uhwtru5vPr8bXhwKza9DTyq6/B7ttuRztOYMUxHGbReRea0sQyaqsClMSP6MmVBbTOUWhm52jIUFIoSbmUwxS2ciTyUPAcFiWSD/QdI5Fu37mHRDJZ1YKRcn5fSZUsF7BMKhFIlSVDqVWr2toIF0VIlVggHc4jGfOxa2MHJ73354FXniNeZJQPEE505DHJLON0mFUyAXHmBuUPj2Ft72W9/0gp9XtHCkxHBEhCNjPew+OAyFhJYMyHm6gs5PwxsWdYpYZXlMbA7g8A/r7nbuy6+mrkU7sx5jpwyxJFSiAYL0mARLdb0ifVwagCWY8EEqmylBRMR9j04Sw4KT/noCA4BEiUSBWQFizM3rZjDyCZBHANpDzVlUSqHwGj4qjeeCc2A6iiZvlTBUKXVK8JG/TLIWZWh1hz4bPh/fS5wBkbgQlyoTLkLRcxQyGV8CFhL2RcRFhL+hGK7/4h5BMAPnAkgpeHHUgViP4NwJv3eW/kTRNINF5thUwpefIIMLcoESbGQsIdm5HcvxUz996D4c7tWNNpImDwbzCUZCldbgk5ikapwFRJgUIi45aYJRRdmvaLEgUnG8sgJSVLQXUlILThlgEwcAEC6dbty4DkGLuLQLJ5HgYoTSSnlqOUNbwQARMfCIpLAoj3ykj60lEtPSPrdomZUOMhL0F2wkqc8wuvgnrFeUCgkYUmWFpYvEMtvKqAQEqrc4X8/D5Xevkb/hXA2w83mI4EkP4MwG/t161xcTOTYigcC4l4cWYTwqyAG+fAYoRtX/ovRFvuhzfoo+UoTIx1EEU9pFGE0PZgE0j8KQgi2wQbGT+gKnEDs4FiExlpBM8BHNuohWRBNpJKL6f3p5jbIpBsYNHG7C0PV0DyofIaSNzYEiU53aCMMF6bQXIFIsnnEUCMMVFqlVACKOpdYxUaakspnPHUKnHfwiSmQ43u2SfjhNecj9bLngusCsFIBGkvPPxCI6C+4z3y/D7Jcvu12svf9OdKqce0Ww/4TNUHDiuQtNYfBPA3+30xIpEMPbZk2EeARMJXgYaQxHLMffNq3H/V97DB8THRYGBwHnEywLCIsGLFuNg4TskYEgFEY4J6oGKvFQ7QS5APEwz7AyRJItKp0WwgJPG/YwOdhAmxCkhMwbhwtQ8MHSORbnkIjTiEn9RAogTjV1G9OYhykxurxOEyaUTglHBtCxZTO/yRAMCylSeQCKJoiCSO4HVbKEcbuH1hB+ITVuD8D70D+KlNEjCJfYYoDCPAq00wnsqpPNH9XvSlNzJo+bED/9hjf+KwAUlr/fMAPvuTgdbHuVQ+nbR9qG4chYWsD891yZSGnWvMXHMdfvz1K7A2A1YWCn6eoigS5FYOmjG248AtFCwR9ZRILqBa5vGdGiCa6iOai4RzlKcF8iyHLjUaYYhOtwtrhYVsZQ/uMYExxkVO2LB5nqIJPNTD/D3TCOn+J4HxwYVrx7BFgbi0MMg9ZNpCUTCn94ha02UOrQu0ggCureDbNO6ZCjKgksNRSFyq1EKSu5RYpWth0LQws8LFjjELL/jwrwJnH4dMJyjbvoS/aENmgyFa5H4f/MGLeJtSint2yMdhAZLW+gIA36oj+ft9VQQS6SBFBu07WEwW0fA9uIwNTc9hy2VXYHDrPQKkFZIXyIAyRWblyAIFy7GhUtpTDiztAToEIgeYjtHfsYj+1BBFn1FnF57tw3c8OI6LsiiRZRkWnTl0zwnROr4FTfoHwwCFhpXZsMoWsDPCrAQkKZECqJzywIbWGqk2QFrMHCQlY1CFhBZoydBRq9WaZ1vwbQuhZ8Olp0ipJGCinaUR+QyUFmgkGjYfKk0WQYmpZomHOxqnv/3VaL7jVQy3Iw5IlqNWdpCXKUImj/cekNyfbaAR+jKl1BX78+bHe88hA0lr/SwA3yER/4Avpgq15GkMO3CFLNbwXSAaYnjnXbjrsm+jO9XDqgzoCPWDC80kbIGUiXrHESDZBXNoAcCfmRTzD85hcUcPegCs6qxhBgRlVsKybHiOMTYIpDlrBsHpFjontqF8G4qpFG5mouCqNjCZYprGdhwiSENYOePJNspSIy4yxNrCfM7AqS2q0WTjLdiMEVXUFUrQ0HLQDDyEjgVX0TnIhZ7LeFHs0S4DwlzDYTVCbkIVs26GHc0CznNOxKm/+6vAKWPInRzzVgrfbxhDHiUCw0E4lINVLC9RSt1wKCc5JCBprVcBuI3lzodyEVlWwHEt6DwWEhr6PUxd813cf/V3sTYBVuR0een10DhgxrUU7aX5tCsXZVTAKpnC8JHu6mHy/imk8zkaqomW24FF+kdegh4c1QhjSLZtIwmHCE/10FgXim1uuQYkjNE4NEwmM0zf+jCaSUOApHKmKxyRaARSVAK9gnadCaQyuk7uVJ2M5vWmeogGXDR9D03PgcfcHB+IgjH9ArlLT5EMEnKlhDMjBnpq55gMc+xe18DZH3kv8IKnSTh7zkkl1mUTuHmGpmNycYd47AJwllKKvw/qOGggkZAG4NsAXnhQ31yFVihbma3wmTVgKIDqa34e279xGebuvAsr0xLdrBBvRTwciQORKsvflBwOyoSqwgPlfjzZx+TW3cj7JVpuC+kww/joOBorxsVT03EP/WFPUjNlUGD0+BFYIw6idAjLdQRgVsaIdQOYTDB7BwOSBkgEqoQjSgiQWIUyzErJnRFAIIiYatEl0ixHkTOTGCMgLH0PDca+KokktXeSQrGrHK+RTAxnSOTC1phvamwbAc543xuBN/6UqUBxTS7AKTN4WsFlgvrwHN9RSr3kYE91KEB6zPzZgVwIFySq8NEikJi5J896YQEPfvnLKLfvxEiSopVWPO0lIJGFqM0GFAQRCwOMMaznY8zunEO0kAhvqBE00F01AayeMK7ycB6I5gVITuAAVKWejeFwEbbnwBF1SayGAqT5zbsRDmlsV0ASFgwLoBguKJHzKaBRZNmiakvGwvICSZaJ+qTR7Ts2QtcWg9sFr5eVJ7x7GlNUlxqZKsRjNbEnnlKhF2rsGFM4/o0vRuOXXiXMrWFoS6K7mdEjpHNx0F7bY23VQXtyBwWkyi76XhWgPxDsPOq9fCZZQs+96HLxkszwsPt93P/Z/w/+/ALaLPvJcjhUawKkKuMgAUTmzLSkOGxusMQQlIQN0mGKNE3RareA0AEYuLMSxOUAqZXI/nl2ADcJYbkNxHEPju+avFtUwCGQpnPM3zkpQHIjH5ZIJE9AI7QjXcBWpYmcEw7ydyX+Q0YbKM9EytBb85YM7dx4bbLyDFkQSIxYFIjtEmVFzHKUwiDQmByzsP7nXoDuB16PNEyQtBhq0Ggzq00gMod4GHRbtTFMvDz/YOylAwaS1noEwC0AjjtoBFUfJJAY6c80ENJOYOlQHElKZMs/fxqNhR5aSSbJWXo6Ej2uOae6hC5I6DfJJto//De9Mng0vEn+J/uRgUm6/SlKp4D2SxROjkTHKJISQdxCGI4gyyO4gY+yLJH1M/jUI7Ma87fvRDD0BUh2xu9yhe+kuYH00phzKzIp7RZ5oizzIxkRMgGU2etKComhLeqZwJbgmUgVXRUO1GQC2oo93wBpw+tfiO4HXoO+myIOFXxloc14GRHrHVRA8vG2bmtlL80fyP4eDJBI5XzNgXzJY72Xi8yFZ4C2pvJ5ND+ntyNUFmYu+Qbmb92MNXYALzNZ/lISvJkELF1ulbDfHKBBPnUfCWLkVmaCjn4DRcxcnQtFSZVXj63KUTB8YGeiRnyEKFkT5xoQ5HkJX5EW6wtDcobGdtysbKQ6jmRinwSSTRZAHReq6glMVMPEimzbEakk4YBaqtakK9uSwKZFdoKYTKY1Du2/1AZm/RI7RhVOfcer0HnPSzHlFYgcLUnbCQZdGfn3FEpWn/Acy3OMy4B8EHt1iVLq5w7kcwcEJPKsAVxyIF+wt/cSSKVWUn9PPDCqDd3HCKthmWO7/Bo8eNX1WMGqDTZyoAqxGAXP4JY5PJLu+cE8AFwPmRoid0mrTaXg0LFclIkWz83motfpDcZ7rAIF+bbV+zRtGXqNloU8Y0ubBsAA5FQFpMprg0gkE5smAMhXpGp7BEhmOUvN2JAh0hFIwkaQMijzY1oUKIltxo6Ji7tC/TaqivGl2AVmfI25VQHO+Ov/BRznYXptgOmij4mgjXFe/iABGo5QYA4zkHgbL1dKXba/e73fQJLqV4DFeev39+SP974aSEJqpFmjU6ishw4NimEKXHcLdn7jCnSiUoDEbAdrw/joEkguPTxWT6pQuD5KdsMkZRllpu3kWI7JwUlhgblVvi7STXJifI+LQwIS8/LStKuiiwiJjQ9JVQRgO/JvQ880tGIRHPwTHyCrELXt0ubhYgiQgMjWWGQ998YJrP3470qAJR+HNKdohw2M0CgjkFi+dGSAdA+AM/e3O8qBAInEqI8cDhDJhsrTaWIoXL84j+AVERyqis33Avc8gO3X3oguOdS0joSISJuIMaMMrkS5KSACqQiyw5YhNMe0WaoE7UgbiHuSgimFiMYNNtl/uXGWC1nOIQHJ4gMgIsewCIQNqUhiM7BhEFSS/lJKZe5XGAEG1kjKRJhYNtM8wuY0QEpsjZ6joVd3sPqiC4BffolhA6xQ6GUpRkp2M7GhFSXsEZFIvMD9JsTtF5C01pRClEaGQHwYjlr0F5mG6zJgOIDFEPTCLO77ytfQnlxA/uAujGpX4iV8Ug3BkMnQDA6TvQSF46BILTjhCnaBQDI9hFVygTW8dSsAeyCVIlR7NLYrsWQKAAqqHkqk9KBVmwGSoZTQm3uEnGeIJEWhjb1EIFlW1c6GHCjiqJAqF3EkKDHlHLQbNRJLs38FelaO6a6Fsz/0FlPqvcHDXBZhlOVNwhpm+OGIAYkK9ySl1EP72vL9BdJhMbCXX4yIe65vXkJnCeyAXlYfizdcj3uuuAqr4xJjLPIY5AIkPnUGSHzOKZVMspdphjJm9etqRHdNYn5bDw27KTX54xtGYW0IgHCIzI9QssxDmLJM9DpSkiSR6PzggcSojtwIJY8kLQz320SEFAbDWDxBlonbjMR7roBJXi0LeKpO4lYSidKMOWhLCzNSBQ62FT1MHxPiBX/7+8DpKxC5KYLQQxwn0kijto8Oo7G9fKu+opSibfy4xz6BdDgN7J8EEt1jC/nCPJyGC0zvwu1fuBh6xy6sLW1MwEO5QAljFll+CYefDET+d44UCcpIIcA6zF6/DYOtESZaq7A4XECw0kPnnDVAYwFpc4DCpafG+jMbVurCltpqpmaSg5ZItrhbDI5a8kNyHLnfAiatsNjvV91GSonCB74rYBKLqsjhk69Ud4iQ5gS8T+O1MXvXaDSEQnLd3AN44e/8EvCm5wNrQjAj1IuGaPpMkRwxiVRv2T4N78cFUsV2ZLvfk/aFyAN93UgkA6RkahJ+pwHcvRmX//M/4YRmCytLC61cw4pYXFgZUmJgGKaj9JCxCylxLvoaoV6P2WsfRPaQxqqJjejN7mamF+3nHQO0FpA3eyi8TL7PKmw4LNSnjeUoaPYVOAivjfaJQ69NGJfSrkJ+cq2QkeyvLPR6PWEGUAJ5lo1G6CMgkHgrOW292saSfElV+aKR0CYkQPsRVMvHwoiNmZNG8PS/+aAkcGeHi2h1OyLVKN+OgNe2fEtvAvDsx2NV7gtIh8XdF9BURy1+RdyXjMMwbTEQe+H+L1yM5P4tGIkSNOMEHXpUcW5YjxUltraS6XUVKkPp5lLQiLk28ruH6N0bISwaCJoBFvQcuqePACtzZn6hPfKZCgGSpECIynIIhGyJPIDlcoNdqIStZNri/s/fvkP4SF5MYptHyoGpZ6u9vyIVO6VkeZHjQzmMhlkYpjnilE3ACuT0IqW7iIVG4AnDwSFnXLzPytajpK1dWKq2KoXmDFMM0whY2cad7Qgnf/TtGH3dT2FIzoHvmZKJann3VG0H+nDv4/0/+3g1cvsC0vUAnnOoF7Q3IBFMfO4clhqlCTZ/+tPwJyfRiSOEaSpl2Dol4YuxGK60KVCkKGEcJ1cZtJ0hICh6I8ADGRbv6sGOXIRhgMgeohzP4KwC/DUOrFaVlxIiHM/JdjRD2E0b/XgAx/fh2D6s1IalOwKkuVsfFhrJYwGJBQX0wGhMUwqBwLddkUYGSKkpfdJUqSV8y0IrdBG4rHwpDZAYnabkoZ1dF/TRXCS9ih130hJ5EkO3PdziL2LjH/4iJt76UqSM0rv2EwmkHyilzt0bFvYKpIqsxp7Qh3zsDUjMlWVlgQbd9eEQN3z8Y1gdRWgOBwiLHA3bkagzk7Li/0txoSkHYte1XJESUsAskrZFAAAgAElEQVTLXVjpGDCpEN8zj2SWiVJfgo59exHeCgfNNSG80dCUcFOqkC3gauhkJ1RLYZAMBUi25f0EkGqG5JJEEoPYJG2Z5DW5NdMBrrBspAUbpuRIcna4NKkdSo6Gb6PpkxNFg59d5zJpXUPIMFLuSJjfgD0KjUZvJhV9xrfwQ2cOG/7wrZh464UoG0qC9eInPjESiTh4oVLqqscCxOMBiR84/5BRVMWMHku1cSPonbQYaFns4wf/71/g2CJHc9gH202RUVikzLMtA5K4XRqpQ4lk3oNYw9WjwDAEtvbQ3zWQ9Aiz78NiwE59cNsO/KYHhz0EHBehFwJNBQkRt7WoNtvzllSbKlrA7hxzlWozDMlKtTExSy4RY2G0iUolnQdpCeUEUqmRZEzosIqYtbUagWuh6VsImQpk7IcqMc9M5JsylnUK/B8mnS1g0DBZHW+YInQ9eYbuCvpY+9E3Y+SNFwBNS7w6nrtu/X6EVRsv83Kl1E/vN5C01hRh1x0OEPEce5NITGbElkKbBuNihDv/999ixcIcumkEl7EicvmZ+ac5KeXSj0ikmA2tWOPlOCbJqshfbgtDMts9wGA6wuJ0D4EfSDJXgpA2UzKZkNuELtIuseZZq4F2gTSNloDEInsB0mSG2dt3PEK1JVG8SpGQlMYMf5QYtSZGdm1sy2/jdUknEVuj4SmErkZol3B0Cl0kEoFXri+MAQoVr1BQFZB6TQYlASdK0RR6cIYt3Rzr/vAt6LzmuUDXQ05u0zKq7RMAJF4mjW4a3486HlMiaa0/Q2L4kQYS82sRg3TJEO0ox9S/X4x0851YwTbGjHJLgpubYcGStDiBZMp4IiF4abTsAGk/gcdu/eykFinSFpFMRph5aA4N3USZkDBGSeQgK1NEWSRen+5kWHvOODBSYpBG8MJQVBuN7Voizd5mqLYikZYBKdO5SJ6FJGEVXhU7YixJWNlVnIKaVMGzNQK7kB9fZQIkcs8J6EKAZBLKfv4IkOZZOUK6VKGlZ2bS62FqXYhj/+htCF96BkA1LX0wf9KROVz7tpfz/B+l1Nv3CSStNR/tSZh2mYfl2JtEipVGLB3Y+hhjXO/a7+GhS/8Laz0LWdIzQKIdom3YlPM/ASRepI8yZRGk0O5N/o2c1Hkg3rqIdDJHsUD6rAXXZl+THAl7GrE3w3iB8TNbwGiBYWZazdDYXi6RZm7bvkS1RcXZ5qKkZYak0OiRCSlAIojMj0BfGrIreK6CaxkAuUjh6kSApEo2MaV35qOwWLK0DEjM/LfYQU5GmcDKcuSsNn7GOqz683cBzzrOVNhWnVH2NBsOy6bt/STkeI/v2X/pJySS1vpNAD5/OC9mb0CSOjbLRh4NMMbH6557cPdnPoWNoY+yNy+MQjaBYDWsAVJFBbE0Io/ekIUms//cEaeQygoph2+OGrfn4QEQN4XpGM+mKDMtEikuY7gtB/5KC82neUDHeEY0tul5FRRYLEeiarttB1pxAx6ptpwAIE0gNLIiE7uon1MyCu9x6YdRbtu1TSTbtaQ0gODhj1WQuUmWt+lBkDmulKrzYGkVS8j59wUSENjaKWP7whI9r0Dr/E1Y8yfvBo5h5QNpVhkszzFNVyQZvM/48uHa1p8IBTwWkA57OuSxrl74SJreUoY2LdDePKxhD9v+66sY3nU3xuIMPofJBIFpHkogCW+bDa40Ep+BQBd+2jGJWj9DaccY6giO68C3QxRDdtJrAjm7z7JDuykRZ0xHc2qRn8Lp5NLw3RHaqoWE/QashgHSVInFGx9COw6hMlbsMtNe2T6Mg8HGIGddvknWUu0ykcq0C0FEPyDPGHBk0SdzhIyJVYWSVWBVakSruk5WoEg5NpREJ3jYSYapFnDncQ6e8d7XYeXrfso0R6JryDRRwHaEP8lFOlyI2ct5fiJt8iggaa0n2FzvUCm0+3MTdfY/jjJ4jIewl2MeIb/+B7jv8m9j9TCD14/gsVG7NC2pOrox9uSUSFm3zIRu2gUiTpXJpNdLrGKUjHrTAE6BttsFWMtPd19q41jIWKBknz6H/x1JZNtlkyRlI6HhbzfhVEDq3fAQ2vTFRfLZQmsig4DUFoqOuIpg855ra0Wy/NJriUSE3ESxaexXPQBqolvdOYWuP6UPgUyDm5cmiViecBBjbk2IB89fjzN/95eAY9sGSEKEY3Sf9XhPOJBoiKxXStEEMtJw+aYfcMn1/iBmL+9Zyv7nQDzso92hbdIH7roHW/7jC1hDGmyaSqyGKQBpViqRX9McO3NJlbcQlB3haMvqU7JZJXIS1YRU5kJzYyQaXRHlq81kPosxqJyR7SI5OCDJLDeTYzMgMlyk+ocXQTtpeWanbsa11J2E8qoGEkd1FcZeMuVN5GZFmBmx0X/hSTj2j98PtBNgZcPwkymRPBLynnAg8WZ/RSn1D3sD0mGJZO8Pvmog8elNBhF8diXfuR3pD27EtiuvwepMo+U4SBgVti2Z6GhSCEIZQGFnkncnLdbU/VMPsBeShWIYi4pRYyMo+/MouTOUUlXKzuw6VRFBSUmYHiSQTEmU8SSNnSP9KkotP7xHmx5DxYoU6khN1Jf7MPlGUW0k9BFI9NyWP9+lxs5sAXMnj+G0D74JuOBpwHEjotp0WUD5R0W18VavVkqxwvrREklrPQZg6oBq9/cHMfuQSOzByM4uiHrIN2/G1q9eis7UrOTbPN9DojIULlsR24aXJIWSLJLMZcJRadnwnSbQB/JFTgOwEPUS+IGPYMNqBmIAK0JiRdJNX5K27IvEnJowGQmk7OCBpI3RbLhEdUc2w8sXMq5UzgrdTewm5thYoCkPhKSIjERitp/XxRCAaVVXKQvfw3x/FrNtwH3R07H+T98NHNeETnIDImFnHhWJxKtcqZSaeZRqO1J0kb1hrZZISZwhZG1ZPED0/euw5YtfwdNZktzrC/cocXIZrUADll04XBHppuN6ZpUYWDm6zXHEOzIs3N9jKSryfg4v8LBy40rguBZgLyC2FpCqVFiKDlzpB2C6GuVSsXpQNhI3kUAiZKTgn3EuqjlDI+HvwWBQSScyBazKHmSuja2bS9ikn9TGtlbwZNRpZXQQS/RcywyFp/DAMQ5O+bcPQ588jixP4TXZ/IJS9agAiVu75L0t2Uhaa7Y4+bVDEDIH9NEaSFTzItWHfey+9FIsXvldnBg0Tb/sdIisZUs8hWkot9BoEUh83Jl95/QhxBjvrkHvRxEmb51Gs9eRBusEYfeYFvyzVgPeLBJ3DpmTiMpzSkeqS4RYZxcSNT5oIElPJCGDGwCxnaAiQ5M/pJH0kZemWxwDq6HjwifLQKqITEMJydvxYWHlbM3dXqKAa+Pm2za2jheY+Ni7ELzsTImEOD5n7pKbddSA9HGlFFsZPaKMtdacBH3GAaHhEN68ZCNRhHNocTTAPZ/9HMK7f4xj60abwwVkYyEGjGJLqKhEK9WmrJkb6GrM6AjjI+vQ3zzErpumMZGsRqNoIitSBBMurHNWAcEMEC4g91NRL+z7KOGArEDpsCbtEG0kQ8leliah3WLANBgOkeXMupkEbcP1hdxGlqTNcEAWS0NWlqlJK0KqNukKVxkZzQDp9Ay8UmPXWg+D3345TvjVnzEMmLqg4OgB6Tal1JlLQDqS9lFdJPhYmOM6RHGKkEZjmuC2f/4UVm7biTXDBJidA1aOInUS6cJXKM720GinGhbZAsxk2RoLVoaWMwZnR4j5O/pQD7voWqPCfOxl02iftx5YyXYmfUAvSD2+eHEsLWLVQIOc6tQkhunOV+6/S/d/WuNx3X9pHlLC9nwo260IbUYqFdqSgGVv0EdObraELRVC20UYeKLiXOb8sqHMkiOQpJOJ2EhVVzelMTuYx9joCmBxiPuaAwR/+Rase9fLTFEKHdmjK5GW7CRRbUfSPtoXkHLmkuj1JBHu/vT/gXv73TiR3heB1HCRhFpaHjGxySExzbSEVYUAGC9KXCZDVwCTDcS3L2L4owQuG6yz1s1LoCYylOMp8m6EspHBb/hottqA0zC2Fru1lclBAsnQaU3i1UaUFkgKWm+2gCrNS+TkI1VUEiG2+Q4C14HnWNIIws05U66Q+BQdgeVAYoiCkWs0QuQ7d+HhDQE6f/4WjF30XPQkZNI62qqN8BEabg2kI2Yf7QtINHckiJsneOgrX8X0t6/Gme0RqPkFmRWShJYE6+j3UCI16vgJ+UhMlRQ52u440GsDWzjyoY9stkTDC+F3XMwUu5E1h0gaQ6hWie6KLkZXjgOkkXD6Y1gcEpAY1YbtCx9pEOcYEjySAGEipG52w5I7Bd8hjYReJvvClYbhkMcikQgkGurCSaokErP7ZC24I23ct+3HSM5aj2P/4l3wzjsZZZEjaBx1Y5s7JyVLNZBYUfmyQzB59vrRfQEpZUCaWiVP0LvxBtzzn1/GyY6PVq8nHnAigDGxFQ7S8+j+8xl3DJCSNEeAJty0LR4bHkrR38URpBDu0VD3Edl9DO0eVFNjbM0oxtaukIakRdqH3bYPQbUpZCUrZj0BUj/KpLsKzWombk0tL7kBJufW8BzpxuuyeKFkY4wMFic0MYhKIFkVkLSJLTEJMxj00V63Ejfu3gL/RZtw5p++G9amNSa2wFiV9BE4asY2913SJTWQ2Djg2CcaSHzwMvHkC/jsprBrB+7+zy+hsXM3WnOLGG80wDahZmyVGRpTe2yZV8his52fjjVsyYU1ZRReuWMR85MLiAexuM4Za02sCHbLwsSGcYxtmAAaLM/uSxkUvbaDs5FM5xHSa5NcY5Dk5NgtAckUP+mltjahwwYQjNTn0rVNVCvVNNOIVN8EkkwIeARIOs+RjIW41V/EcW+9EBs/8HqUXTOil581JVpHFUj3KqVOUdUkaxbCHVi35v1E3eNJJFONCmQJI/0JrKiPxauvxcwNP4S7YxIr/dAM0RMQsQWyiQRzFZm0ZU1bwBr/OIeVW7C9tukjOZ8i3j6P/gyZkqahVa5ysKS/u7aN5jFdoFEgywaSpedmHRyQKrffskUi9eIMsXhvRiLxEfAdV5qRCogs9vVOYXGqJam2POQGlfQ5LWxL5rwRSDS++ZsTLx9yY0yduw5nf/Dn4b/gaRiwqJKSuMECBoLpqAKJkPYJpFMA3L2fuDjgt+0LSHVCn1097KQP7NiJ3neuQnbv/XB7EVyJ+whLxICIfrZdYhgYIHFBzSBi9jvyYFmcd+sCiwAW2Q9SmgJU7YsToF0CYza0F2GQ9RGyBU7GeM7BeG1VhxHblYYYUVYiLZl7c8X9JynPdSzpPMOWf46mKoulD6Zpp0xRZDq9MaxFIDGWRAAKj48plqzA9Eofnfe9AiNvPB/lChdD5HwOpMPckwBIXPpTCaTDUnL0eBHsvfFkiAu2MJIpC4wTRT3jkn//ekS3341468MISxK+NBTblkj7GDNyvR+YSpKQeUuHJRc50iiWnJtnhaYxqTSaJJOQmXuSqodmPlujgLaHiJIBGmRVUpxIZNpCRP6T3YSbN8T9X7zJZP8VqSilLQ0bpGq2fgLYg4A3oByh9BbahiUcawYLSTZgz0cGqFlRy3RMLPaRqc9jGIIvOsg8gkdGF5omFDLgr4QTuvCeezLsP3kXcJyD7f15jI+OICD9ZHEApx0ebYlkItx7G4F1wKLnID4gao2Je7q+1Fj0YKTGDZj9/H9i7o67cIxyEZB7I40hjDRiILLn0dBUCDNbxotWXRsePb1RtqXiect8NTOZTxovKHZO02YUAyWDbaYOlBysrH1YLG9ddDB3wwNoRCHcNIBFQ0aCN9VYiLqtiJhCdUa4Kr3m30zqTWr5aRSb5hVmAoBMAxCyPxWDL1UhVFnsdstCSrIie+z4tLqJNb/5duCiM5CNAJN6yKYrWEUWqDyFZrLTES6Q3NfufohAOqz87H194/LXJalZJcFl5BWz8fEQSBLs+NKXMbzrR1iTajS5YCwklPYh/NEYMtEvSU42ba/yU0vjTGvKILP+puqEnUzEw6l4QULn4PsJJGbonRKJzCmx4GsPakiynYPZm7YiZF1bGpiObVKsWZ1/iXlfGXvLZ/LW4d6K2FkPM67/bHqqUuww9+Mi9dhymVMMNEK2Vy41Fu1EeNon/N67gZeeioVmip7LlsgWVsgANzbaelIA6R8JpCPm+u8LVFWiw3huOhfXmIFJDPqY/Ma3MHfbnViblugQSHwT1RMlks3ZJWQWGh63pRncM80hzOy9ZUCSzSaITAm0MIfqfkVVn2/SDwq7QMbuJlDwKZEIpEUHszdXQEoC2FXD9qptlkiCTAC6dFmGlPYIH38pCVXNwjGv1T+sHnFdCW9wIjj7NDWknaGU3WLRy7BjfYBT/vTXgPOOw5QzgOL4Cyg0+QAwFMKU4dGXSF8hkA5b/dq+gLPn61xPmj6m2LSAwyeSHk0UYf7a7+HH374Kx1seRhLjpQiRS9QTwWTcZXK+KUUEX9ICqR5Dar7NSKKKKCYzbapRV3X1BYHmKOkIl1edZr3Cg8VMsQDpQVNpS9UmwR6GEkn9YOf+ugWg8SyF9lT3S10Gpqqm89Eg4uu2hShwhPzpcIhPypRJdQKrwGQjx87jWzjzr34TOGc1Jss+wnZLCJIBeyJwpKlFtudRV22XE0hPGJntsYBE84frwXBKNuzJ9CMppb71Nnz33y/GSW6IUVJN2A6Qhjit6apxAwGQOrZIpkpQVbNtKxBJNzhTM8ZDWnNL5LgaTykDjindqOhMQ3dW9RJIQjmgart5m+n8z56SJmooI68SNsGSMmtj3y1ZRvXwo+o769fq9y2XSGw4P884llLoJNpQZHifOkfkFtgxotE7ay3O/OMPAk8fwUwRIWyGkgnwSBaXquEnBZB+QCCxxdvJBypNDsf7xdiuvGCeLxmaMVoieXZN4oef+3eMLAwwHmfokshFO4keT91vW7oLUyqRglGRIKuNFLVZAanWLxzHJa1sjEtkxnu5hahJUXecQyJqMoA0cew5mPnhNjSjYBmQqtZ8rulY6+fGbKul3vLf9RpVswbravOlpePo9gWmS5SNUVaPCJBSsMfKbEdhcqWHkVc/G+ve8zpgvY/FMkNAOjGb2fK9VWdd6YB4eJuRHuj23ksgcWzAIY2AONBvrd9f20jSxZgetGZTLabMF2Xc+uy3r8COG26WipJRtklm+2R6b0uz1/hoUs0YIAm53ig0Q+9maTUlEheZ0yFLjmmoDFzpkEZmYgLtGcK9EiA5JLwCsSfjSKdu2opWFCKMOFnAFGjS3h5yhgjHgnLYbNV7vaZ+1MPC99Cy5soq506EolIyADrQNgLqSdo8aYR5N8fMMQ3MHtfBs9j1//mnSZXhUBcIQltuXzhcElozqvAoA+lBAon9lLsHC4ZD+VwNJOao/MCVxWGGqje5A+3uCHD/Vtxw8RcESLST2mkOn1KJRpUwAOhxVawqwVBtxRppQwBJOVzVd0ikjUikqjkpewhYifS4ZkKYyTFO2ZbqycwHBg6237gV7WGADsc4EkjSwpheoylK8OupxZWrX7v8tb2//KHh3/j1Mj9XcEwJCQS8HmmYWmKgI+xoFJg9aRSDkyfwot9/P7DWFz8joUPC5qMEkOCO8fOqbPvoSqRJAolTwA9bb8gDAVYNpEccHZPMdPnIUfokKWav+R523nYH8u07saHZxqhlI56egU167MiIMCvlqIsD6xyWy5nnrnTfpy1CA5mlitKtTVhhphAxzvoI2lXrjyiFLlmVEUI5HSjdwf1X34nWvIOJYQC1kAFBQ7rnzkSzGB8bAxarpqjLgLTkofG6PB/lYg9WEEgqZHGwiKDTgjfSwXBuHg23gXJ6zkSpJ7p4MJ/D7ZhH88KzcOZbX4Wxc0+TQD3tO3OfJi8n1JpqbHtVAncgS3+435s8KYBUA8p0XSxgF4Wxh+jyJykWv3cd7rv+Bljzi1gdhOiyQoRTtjkYmSMk6rmxNMaFWUipkyLPEjgNlkQrKRLgU8+mXZRM4t1JfCmDCgNgbkEah9rdcfSiDLnXweim56L37Vux+8ataG1Psaq5EiDpjp7lRAvxcIBAqLFGoNTShoJSGsoJI2AeLQYPGf3mdXk2e8xhgByuZSHISng2WQo5tuU9GfYXnHcqjv+FC7H6pecgZS5acY7tsrACHUoznZ5nlgTQUT4ESEfdRnpEIZnZrySuCXlNotkAdk+jd+dmPHjb7Yh2TaJRlGhaNtwsR1tbaLO5Z1GgHLLfZA74pg0MwSQtTVh8wi5rUm5t1IjYTKToqwxW4CPeOSUENX/tMdg6PYtyZALHv/ZtwDV34+q//Q8c32tgfWsNyp07pPUNxkNpPCHtj6tKkFpoOBybS6eKthPd0nYXYDEDr23lGPJ0gB29OXTHRqQRKyvBZ4oYU02gee4pOOF1L0bzvNPQHwugfMpRoU0ZW4wPigMsVs4nGzQ8CYAkqu2IUUj29ZTUkuiRkEvV0JyTs8WLKpBMz8Dn/Nk0RXbXXbjv5lvR2zUJNy/QpDTqDdC1HamBYxs9K4mgmP+iwUX1RulRdYrlSHj2CzA2OQ10qtIErkNdkUD7AaJ2E1s45vNpp2Ljz74V2DyJr/36X+DsfAJrBi6KHVOwO10sLk6itWocw4IjKcwoDDmrSQWKBHFFilQ6b9Azg5/HWpgmaLIB0PKkdDwPLLQ3rMa6552B8CXPAk4/FhhhxXiGwHElbuTvAaReBaQniUQSY/uouv+MNhseoQxZEEmxFMArNdLhUFoAS/FbHANT0xhu34HF3buRzy+gnJ9HMb8AJ04w6jholSWKxQVJtYh37NU9lTgaq25bbMBEIPmeFOgb20cB9w57iFetxMYXvRidM58LzChs/svPIv3W3Vi9u8AaqykJ3t7CLoRjXSSMeYl3uDTJXYDEjadUQpwJTUW1GtLXYnsxAFZ20Tp+LaKWBXdNC821Y+huOgU4/WlAl/InxoKTA60A7BIpcytr9oOobo1hlRViuuRJYCOJ+38UA5I1jAyQ6grTekaMmDFC56YtlMNltxCqvDQFSMWNhvLv/u2348E77pS/rYBCR2v4GTt/mAnetZEq7Yul/bApHaIaJZCKJIIdNrGQp7g7HWD83GfhxFe+Aqq7CmCTimvuw3f+n49j1UMRNnXXoJiagd3xMNObR7PRWlJt1ZQKMxGeLjqj7ZaDosiguk1MIsZWDHD8Bc/Gqte+AtgwxgYxwFhoErySIhpgoFMUgQPLdxE6viGKMTRgnjjTsU6aWbANAJ2HJ6wLyd6UjAQkj2KuTRoAixVpCBSVBVnFW6R3hCFQVs08Ge8xKs8EURhTyoDpKUyz1PvmW+HOzWOtH2CUnUHY5DRLl4bjSS9sVpNJiTWd9xJlEZtJXLAwrQpE61fhmJdegOCcZ2KxdNFJOsAuheTvv47ZS29Ed2cPNlsWNxTSOEFLEdxmxEVtbPPSJOdWtZpJPQu7VYLtTorgzONx9htfCVx4lgm6sKEWe2ImEfI4QcMP4POBkaNKBlf/WelkEycTx9MEM/do4bAvi+JIvC4pkiekjc1jXb2RRzRVq4YJjwGkusRNJHvGQkaOPq9yKmlsZo2EITA7j8lrvoupO+5GN8vRSjMk09MYC01Kod5UAyLThoa5ul48QGOkI/M9+k0fx7z4efBf8FwM/SYGcOEWHkYWHGABGP7Jv+NHX7kSJ41OYNu2B3Dq+o0ot8/LzFzjARowmYi6IacNdA539Qi25j1Ea1o4752vB15xjrhbi/EQ5UQDMVKZe1tNgxMbT7PlIZO31TDnPdp91DdU9Rw46hLpPwgkdpT4v44ETPfnnGIXLb3x0QsiNJMlS9z8h3B5qt/GjUkM9YSia2GA6I678cCNN8OaWcC6Zhu614dXlgZ8wqAjUTwRUCa2g8hv4eHhAO7qcZzywvOgnr0JZcOTlnVatteWCdgtWrcPReh/7RrceMllKKYXcfrYOrQmI1hzQ5RFIS2Z2adymCeSi8vbHuacHFviWYyccQKe9843AM8/3agwhu9GA2nGajgHFX2pitAv2YnST2CP41HLdNRBxIv7OIHEktu/2Z9NPxrvMb24H/sgQS3K+mZWLIse2UhregHlfVsxc+996G/fBU/m5EbQcWzml1AC0qHzXehGCwt+G90TT8TEWZuAE9YDgYXpdIChx7KhtqGepDkmSna1BbAzxeKVP8BNl12FmVt/jFOtUXjziYQrfHp/0Eg5DqzjQ61oYy7UWHfuJqx68bnAKRuAFlsDJsg8BSvwlhK+e7tHDsJ5ChxCbDuiVNtDXYTHAxKpHAtpHw3Ph8duHzG7ozlGUE1OI79/KyYf2Iq010Pc76GgkQ4N13PQaDZgdzsYO/lUBMdtBFaMmSQoO7p5DkrHkQJHnotFizbn3DL4aDF9AmDHbpRbdmLz164CZgeIFnsokkRazdihh9FjVqF77GqsOutk4IyTgWM60iArzYfQLU8CpGQceDIbZe+r9BQB0suPOPn/UIG0vP/knucij2c+HyJ0QhlNSvYAG7l5dOUlHyekadaFAzS8a863RJhdqWBFwOAlE1cFhv0BAg6J4eepQMmBkm4NZgqkAIi6llxXIVMBmKNKTUzAkeEJeooMiI6PABOh6a4m848zGfKXMtzgMEMmrVMlN8USpL0dT2BfyEPZqo1HvBzpUK6On308IDF+E4u/teTziQ1lMzIurnK14aLSqqZY/F2NrmDAsk8ynROI2cK8vxIAcmNp0C/bYCGiPcLDFm881aZhfJ2+qJOG9cf4m1Pki8zMFrFN0WSESJalCcaJnvJAMuVI1WYdtej2oQCtjoyLBipKeK6xJ0RYcPQEe3hLVLIqh6s2mFUglsSUgF7JNIcDH45prs73xqkkeKUqgUccIWbtW+hDMREs5zEnY2CTthMDhgymV43b5IWkzMVeYkMsFmmb0Ksh6ppmgSV8qcN9UhjMB7sVpkCyAtJRi7McPtsAACAASURBVCUd7NUvIaYi8CdpAsf3YPucXPQoQomhXZjGZiY+KYFCI7BqUj5bz/CQiQDLLopN1RmrqUHAl9I8lbbNLDuSbrgVrPIkM8FIzxVA8XvrCQCpjlFmOZoepVCtGok+0lae0kB6VMn2EWsicUhA2deHuVPsaMtYS13RUTk5soGmiLXihJtiEWn0WQe8mYrj9KUqjUJzqCLzmga40gqCgUuCIocuMikV8pUBG+2c+SRG4IdLWo90XXEQKoqRYosbZvqrVIZEqUmn5bXT9qJ9tjTjdl83/KR8XZptyaMwGAwuajQal3BIXRiGwrazbVs4zPwdRZHYKpxmKJI+jhEE7IRh6KY8+F4e9ef4xNYR2uWv1UtRd36l+uH5ePCc9UbU5+am8Jw8n+u68t+Li4vodDrozy+g1Ww/UvPm8elmBoV0VUgfSR5ZWkibZdn8pIQiI4AHUVN711VgPWUbPkaaK6AkSBCI4jPWdjy3gBXM5jOizJC77z2qUx/hJfdrV0HPSp3Jv8ocNrnFtQ0mrr05h1wnA64S63rkSJIEnuctrTPfwzXh+7h2/G/+npubw+joqHyQ7QabzSaGw+HSnnH9uKb1+blGPG+9d1xXHtxr7gP3VZrlc/oTaT3SQ9wsFq+B76/+LROTatU2TrJGvaz9ft+IeEaRWbxXlnJRPPhhXhAvoj6ZVIZWN7Snl1GDkZ99rPft3LkT4+Pjcr6pqSkBMr+TN1wvLBeTf+M18Ca5aHx/u9lE0luE32rJgOPFQR+tbhcWh8BAYRgPxTdqBKHBC0tWhBlW/ebdE0zLjGhp5iZhTta5mmpXVsuSGzUWtiXMUGV1DF/Kl7+gYFsVaTjKAYDGAsqrBBAlGwsfA8upatmq4gMCkWZYBSS5xGUqdjmguPE8d73hfK1+oOvfMzMzspbbtm3DMcccI++dnZ2Vh45rXz/cy0MK9b7tCaj6u+vwy/LP1PvIZbJtu8uR7kvKOcuyW/M8P4MbtfyglGq324/6W33D9YXxxPUX1ejle7jxrVZr6bM1wus/ELD163zv/Pw8xsbGBES8AbFDWHLEeq9GA1u2bMGxxx4rIOJ7uyNd6YTGyHCUxdJGmcNtqHI4dMZhkFJwQtOZvG2+YtL08cIiHPYV8M20ahrHTGuw7p4cJs4SIRjY0Io0E4fnZmk1A5uV624zJ7bM8K5OZIAlo9h5/QS1eRvxKkMoBGVVaCLwEMWx3DMf3j3Bw/uv/851Jmj4u9Yc/O/6gXvwwQcFQDzXcgnFcy4HDKUO/02ptbeD68s1lweDNBw2DKu0wzIwL7VIXgLScDj8WBzHv1aLR36IIOp2u7JpvDhuLP9ev4cXwSeFN1OrsVp61BfIG18uQmtJx9cJJJ6PF1wv1nKRy6eJN8sL5+s1EC+99FJce+21WH/cBvz8O94Ctm7nNfAh8OAhzg3hLLD8paQwDWFa3IHnw629MYnf7OHi1xcu9W+s6jUiP40jM2CHvCfPExXAf7NjCO8vYL1/tWEENmusqF4HHKBDNSAysYSVMwhpwaeRXoUosjxburf6HvdUcXtu+PKN3VMLXH/99fj85z+PjRs34p3vfKesi3lWjGqrH/Z6zQlE7hNBy32sTZu9oqx6IU3Tj/q+/wf859IqJklyked5l/CPRDM3twbHcsnBza1vkhe4/IZ5oQRCrb95ruWqrQYef/M9vGBuCL+Hn/v93/993Hzzzbjwwgvxm7/5m0sSieDk+yitdu/ejVe+8pW46aab8Iyzz8KXL78UK8dXy60Ns4G0/COHhzcWpeQkWfI9gWPsJXaY5SZI4wm+J4mNtFCWgMFMWKpXik2wLDPwJvBFcrBAkfhLKvuhTgVK8wfOts2NPaEo0ThBvNJiNQPExKvqejhTO7UnELiptT245/rVgDAj4LUAmyqtli48F9fvmmuuEen9ne98ByeccILcEAUD17p+sGsbavnDuxw8vI56P/k9BNpy1Zrn+Qtd15WJkktAWlxcHG+327s/85nPWJ/61KfkQ+vXr8fHPvYx0bsE1yc+8Ql861vfkot/8YtfjA9/+MMiraie+P5avXHjeZG1+K0lGW+yFuG1rcXfvFg+FbzhyclJPPOZz8T3v/99ARJvmp+p7QB+35ve9CZcfvnlsD0Xd9+/BZ3RUVFTVF3tsLHkwEURSXEeFhcXZNCN57NFXwHX56RIGwv9eYy0RioPjO09aMuQb817oTdloRxG+OD//SHccOONOOmUU/CJT34S3bEupmbnBCw+2++VhRT/ctKjzc8Jw6VAlKZQvoeULEr2SvIIckOdpXpL41SmLDFcwPvj/dKe4fpyDes15drw3zVwahvysaQU1/3d7363SCQe9957r+wf9+gReorRJFxbnps/fI3nJ9j499om5fXUB0HNn8pGTpRSYh89CkgV0q96//vffz4Bw4Mn+eM//mO8733vEwPuZ37mZ3DbbbfJayeeeKL8d+3JTU9Pi7dAVcibIWjWrFkj793T6ufrppF5KTfIp4k3QCBxQTdt2oTPfvazIpJ5kxMTE3I+nofv37x5s3hua9Yeg/UbNggQsrhAwdlpaYoBqzYUMLFiHEpGZwGD3qKAqDs+KgJnZnEOrutgZmoKI90ORrujxs0vSyRJKkxN2kbs3H/eeefhlltvxcoVK3HH7XdiYtUKo5bEMBeKnEiZ4UJfPEldlLIOwUjHvK+q+EizAvOzc8iGsai2IAzQ6DbhcFSW1iJZVqxYIWvG9eTTX0smbuxyr4mv13bMqlWrZPNrT5hrS/V28skni1Ra7iFz3R566CE51/HHHy/rW9vAFBb8bxmQWHmQ3JfaJqu1D7WDUuryMAyXxpI+KhI2Nzf39ve85z2f/uIXvyibu7CwgNe85jW4+OKL8c1vfhOvfvWr5e/1k3HPPffIJv/oRz/CP/3TP4m04kYQDGvXrsVFF12Et7/97QJI3ig9tK997Wv46le/iocffhiNRgvHbTgen/jE38LzLTznuc/C5s33YNWqFdj09DPx4IPbxB47++xn4v0f+BWcduqpSNIUf/93/4jrvn8jzn3O8/DLv/zLaLV9PPDjB/HFi/8TV37n29i5nQR9CMgp5t/17l/Cmo0bZIOyMsM//vM/4e/+/pMS3U6HEc5/wQvws6/7OTzvvOeh0zElftx/2jUL8/N4+U+/HLf88FaMjYzirrvuwuj4iMzalcHfnoNhNMQ9d27GV790Cf7ry1/GzNQ0Ttt0Gp559tn4X7/3ewgaDczMzuGKK67AFy/+Im658WZpWbhq9Socc/w6fOBDv4bnPPvZ8r1zc/P4+tcvxRe+9EXMzs3i/q1b8N73vlfuk6D+18/8Kz732c9jeve0gI4d504/fZNoi9rD/pd/+RfZi/PPPx9vfvObRSJxjz73uc+JbUkA1lrgbW97G971rnfJuQhAAonX+Q//8A/i8XEvaWtxHV/+8pcvAT3Lsnd4nsdONnI8Ckha6/Y555wzc+edd7rr1q0TL4nqaevWrfjoRz+KT37ykwIQXgi/4Ic//CHOPPNM/MZv/IaowNqG4YlrMfqRj3xE7B0+AXzfX/3VXwnixRtLNTzVxd994n/jF9/5szj19OOx5YGdJkWWW2g2R6UZZ9hwcc6zT8MVV35TmGPnn3chbvzBPWg2OvjRltsxsWoEL37RS3DVVVeKFGH0miqj1TAq97nnPQ+XfuPr6C0u4q8/9jf4gz/4A2mbl0UZukEX/aiPTreNz/7HZ/GSl70EC4MFdJtdmadbJgV+6nnPx4/v+bE8EN+//vs49oQNiOJIItyddhdbH9yKN73pjbjhBzfIirZHAvQWYrB53Ctf+dP40sVfxn33b8FrXn0Rtm15CGVawrV9xDkLk3KcuulUXPb1y7Fh/Tr8zu98GH/2Z38qtXYxqcQusObYNQLgN7z2DfjWV74ln7ULR/pjalWCY+Nf+9rX4gtf+IKoxze84Q245JJLZO+4h3ygaA5cdtllS7Gn2umhlOdnP/3pT4uQ+PjHP/7/l3ceYFJWyd7/vZ3zTE+CIQuSQR0QAQMSDYCAigqYvSphV9R1r2nZCwYQFFaviQ/XnJAoGNB1UcSwRAEJSkYkDJND53yfOt2NvThIEFz1Oz792EN3v+95z/mfqjp1/lXFHXfcoQAl0kiafFe0g5gzCxYskHtEDAZDjqZpqaDCOjia7du3X7Bp06bBQ4cOVZJn4cKFCiRygaVLl3L77bczffp0BZR3332Xbt26KbSvWrVK2VTNmjVTkueyyy7jwIEDnH322SxevFg9mKwOmQwR2WJYn9GxCxvX7OTCC/tySttc8uvb8fqjdGjfhrvvfAAtYWbq1Kms+Xo57nwTX3z5CW1atqNv70F8tmQdOc58Nu9cg81pVA8q123Tpg333XefUgmjR49Wq6pLly6qrzIgp59+uuqX9O+Bvz7I7q3fM+4v41i3ZS2DLxvE7HmzqfXXYDQYsRit+Kp99OnZl6/Xf022M5tdu3fhyLZTUV2O252DltDxzNPPctvYP1DQIJ9Hp07h1FYteGvOTJ7+W7IK1ax5b3DZJUMRSS8FCc/ueg779xbz+BOP8+qbr6A3GVgw7226dzuH4cOG8/GnnxBPhLl3wv106lpEMBzg8oGX06hpI6r2VtGosCmPTJiMOzub8RP/ylfrVitVKlqjY8eOSouIRBIzQACY9ilJX0RNiw0lY3XPPfewb98+pf6WLVumhEOvXr2U6hPwyRyJRhABsnbtWs4991w+/fRTAdJCi8Ui9KOD7UeHPEVFRcPWrVs3U+yi9u3bM2rUKDp37qykkgBFJJN0VGyWV155hWuvvVZdTMSh2D6im/fv349s0UXPih4Ww1lEpYBQ2lNPPcV1112Hy+Ei5k1m5vNGPZzapgklxdV0Or0DK5Z8jcGsY8jFV7Lok3ewu/W8/8936Nq5O316X8yXS9aR68hj7TfLKGxcoPojalbsAll5srrEaN+wYYMS7Rs3blSDIM8jtogMZr8+F7D88+UKZLv3f0dOgZvlq5ar/NViM6njkYSOszp1ZeOGjeo66zesx52XjT/sV6om4osyauRo5i+cT15eLo9NexR/0MfbC97m8y8+w5WVxZDBg3n6yWfYt28/m7/ZwuZvNlO87wCr16zmy+VfKsnz8kuvMnzYCIYMGszK1auoqq1my/bNNG3WWJWfkL60bN2KA3tKKOpQxEeLFuNy2xg8ZAiLPnxfLWwZc1FnooLkWUVDyCJu27Zt0jViMtG9e3feeustBZDzzjtPAUikjwgCmWNRYQKyMWPGKOkkdtPw4cPV5kZwIKrRarUeuRRpXl6es7y8fN+NN97oHDt2LL1791YXk3b//ffTr18/hVq52aRJk9TEiH0kKkyAJFJMOpn+jUiAdevWKbUm0kVUjawSeUiXLRuz7Fh8cfZ7vqNv/17s2vw9p7VvzydvLyW3fi7DL7ma9z9+l6zGDt6Y+xrdzjqbXj378s2K7SpidvuezRitegVY8Yz3799fAUNWV9euXZVh3qRJE7UdFjCJ6yDtPQ8GgsqoDoaDFDYqZOydY7njT7erSVN88gTUlFczaOBgVq5cpaTpli2bKahfoEhpAX8Qu8WGy+JWddnMZhPl1eVJ8pzBiDPLhc1m4e2FC1T/ZNwE2KJ+ZMUrT73NQtAf4H+feIoxo//AsCuH8fbCt3E6XCxZ+glt2rdCp9dRXFJMr/N78d2O7+jQriPvLnyPZs0b07NnL1Z9tVIBSRa22LEyRwIkmSORLmK3ilSW96IhBHAiwYqKitSGSeyjNJBkvmUOZT7vvfdeBcCLLrpIAVLGc/HixV6r1SpqLZWWtw4bKS2nxIjq37//9bNmzVL6VtAoqkJ2UrLyRafK3yJVRM2JOJVJatWqFc8//7z6W/SpeFpF1Yhae/LJJ9VLdg133nknf/vb3whLuVGdkbA4Oh1xmrZqgrfGQ9f2ZzF7+izyGhZw/aBreG/J+3hNPub9Y75SM926d2ffpn1Kh5dXlikHpNhqIgllZylqWIxJeXAZKJGkAih5L6tQmgx2/wH96Xh6R3r17ElJeQn5efmEY0kHq8VgoaKqUrkDrr/uBj76xz+UffjVmjXKoy62mzsrRx2VDR00jHcXvUNeVh633TZWrWo552veojlWl6RZgb8/9yK3jrlV5TP6091/ZuLEh5gzdy5jbxtLdXkVzz4zndGjRjHkkst57/33yM/JZ8mSJbTp0FL1NxyO0PzUFkoVCQBksTRsWMjAgZewZMknSm2//PLLXHrppUptC1hkrkT6yqZJ1JJIHDFFRAWK2hPptHLlSgWkL7/8UgFOJLqAR8ZOtIhIdtk0iWqTsXvvvfdecblcRy7XngJTtwsvvHCZqAhZQXITMb5lNcvK7tu3r1rVV1xxBbJDkBUvaBfpM27cOLVyRTVu27ZNWfw7d+5UjkbRzyIppHMiybp0OpPV/1rBhZdczDkX9sRmTW7V27Voz/IFn+EsyOGGgcN4Z+n7JHKNLFn9GS2anUqPnueybcU32I1WNu/cporGiOtAACDqWJxwcg+5twyeDJSsUAG6DKisPhH3j0yZRP3G9dm6fSsvvfAiQ4dewa033UpVTTU2qxWLlJkA2rVvx5bNW2jWvCkXX9RfuSHEPvF7g4y/bwLLvljO8KuGE05EuG7YDVxz9TVkZ2ez+JPFfPb5UhZ+OJf589/l8isvxeG2c831VzNwyEDWfrWGv979V7VFFN/djdffqNTtp58sVRLx+53f06BR/aSD1Ahudy4eXy1FnYtYvGSxWsyXD7mMDxd9qCS82GA9e/ZUpofsjEUzyPzJ88vnsrhkkYsZIv0TQIq2EJNAfitSS3ZwsksXqSljJTs5AZFI0E6dOiVmzZp1ZsOGDddk2kc/2rVlfjhq1KhPp0+ffr7YOSJFxD6QJga3rHr5N9k6yioQtTVjxoyDVr7oYnmJR1y2/48//rgClxhv8l6cazIZApxwIMRfHryPG+4cTVHXLlTvKqFNy/Z8/eFyTE4HNw26ijlLFmCqn8Wbi+bQsu2pXHXp5az+aAW5Dht7ikuoqfUqe0icmWIfzJkzR60qGRiRRKJOv/32WwoKCtTAyg5GwH3wAMyMOtgdfctoJj30SLKCV+ooQXZ0ffr1Yc2qNdhdNny1fjXx4gMK+kMsnPcOvXv24c93/ZkXXn5JecbNWJB6A3JUkufO5bMvl7L3wB7uH38fy5Z9nsyMk6UnJnnA49C4SWMl2cUGuevOu5g7ex6RUJS1q9ZyWvuOBAMh5cHs1KUTm7d/yxlnncGij97HZrMz5r/G8OZrb6qFLqpNriGLVOyg+vXrKyksi14WlUgnkZaiIWRByzyKkGjZsqXatclCl12euBsEPHKKICpQ/EaiJk877bR/rFix4qDv6CeN7fSHL7300kXDhg37IO2MksmXwRWETpkyhQ8++ACxoa666ioFGhGlota2b99+0KMtEybGuIBQ7AEx6hYtWqQ6LTun0pL9dO9axP0P/pXCU1oy/Y0XmPnaW5zZ6nT+/tizSC30bevXc/+kCYRzTNz98F9od2pb3n5vFn9/9HFaNGzGk08/R05ugTIMn3nmGQVc2b4KkGSQxK4TcS1eeBlMAbCo4TfeeIOPly4mEPer1T/ggoHcPuYOGhc2PsiKCwSC6CwaK79awbTHp7Ft21Zat2qjXBC7d+6mc1FnHpkyWbkZzBYTM1+fw4vPv0RleRUGg1E5S8f8cQy9LzhbMUc2bfuWJ599ghWrl1FeXYbblU2XDmcx9NKhyg4JRYNKnT3wwEO0b9Wevz36ODlCDZFEbt4wcxfMZcbL/48ORe2Z8MgEXBYXG9ZtZMJf1HEXDz/8sJIyIo1kpyV2k0g6kUwyNgKuHj16KPeHfCb3krkUifTYY48pKSWSSNRe2iQQc+HBBx9Ui/PMM8/stXr1anUkctQSKZFQJ5orgTPr+mH63wRoP9UOR15Xv5PCxzo5co2rxAoWvUutYrscvUpoUbqqRSxM2GqkOi7JYCK4dBYMiSAWzUxEUuZpSW5OZtay9H3T/Tv0b0WFEDI+IUWyDXpDuCxZatIClWFlOIsfKKxFMFiEliv/STCAhkkzK0Nfdm06YypnQYo8qypJZkSFyImJytprkPg1edJIMik7cfwhPw6dE7PRQjDmJywJLYRnlKy6i15qTsp9AsLJUiUnlYqTMfDhVf22YEtuDjLm4VgDBgQ8stDl3mKaCIguvPBC5Tb44osv1MIPBoMrgG6Hm+uf5HgeTajSzwNSFJ+vAovdhj8uRxIOgpEgDqOFhM+LSU6tRbX6fFhycwlJCmEtgQWpzF1JIipHJnmpDCNJQKfPpw4FTnoAMikR0UQUvVEOODSinhjmuEXFLUpYmpad4smaSWYMIaJeqh6uHAqn8vsldFG1g0sysZPB56mcKurfRAJKsi+rWU7gk9EBkVhIUVIEAMr9IQxNdY+wukeYMIFACIfRgU0nnCupPillKqRsRgSdVSNqiCgVacWW7EuqHSuIMg9sxYwRLSOaJc0uSF+3c+fOl3711VcSlV1nOxKQ5HPJVtLqcBf4eUCSk/JUlqqEXkLKqPV4sTstmMxxNDkJFfZUMEosKivVSEISmtuSaYFV3L/BpBJkZRLCMk+o0+dMac6UDHSawyPe7xpPNblZ+Zgl5Z/KHpKab4lBq4pjqqcjZogR0gII8Iw6E2adpEqW6koSECCyRShsKvTyYCaDFKyVXBGgylQHvH4cNptycgrTQLzTyRhv8Ma82OpZKA+W4rDaU/ki9BjDJvTh5EmAsumkj4JJY4JwNIRBJyyK4weSSCIxTQRQYlCLDSwbE1FpcuArzsqWLVtuGzduXGtNTdZxAEl+cjRS6Sd122E+lMmUrbXiXEs64mSQalJ8SzJ2LUyFtyzJloybsRuFUpuaZMV3TuU7Nkk1oSQJTkCSyXdKHxanKRcZ9FD1fVmBYojK5JRvqWL3pj1oAT12s52GzRriaGtMMRhRJVFF8qQlkuqLNC1KXIsoUtwPZP/0+kyySS2aqGLwlvlwuOw/RAVI4R1ht6QD3MxQ4tuvjmuSYy95lmwqZXMqgilJ3xT6gPAFFUcvWdVAdeU4a9tKH8XvJzs7aWlarmxeBGQOh+NSu91+WGmk7n00IDgZGUsUkCSuJwpVGyrRPFJd0YZm0TCdIhnRwEvSwenU7PIHiR3gKfeQ0MexFJgxt7Co4EOpUq2ul8ErFvCkueLpzzKBpER3VGLg9CqcaN6Md3hv5iKyjTmqT81aNeX2cSOhIFkXJ2oNq/uIA1OVej+YulaI/jESOimyk5RNP4S36dQ9TAmJBNYlKzZFwLPNg7fci7c8QKg2RkHjArJbOjG10RE1hEkYY2rXZ8SMzmtIUlOKk2kOJETPFwzgrG9V2UwSJskpmWSSHg+QMnni8l5ampGawoaKEjkSTo4WSFKKS6pwn7CkpWpyJQS6El6d+Ab7132vaqsl7NB1UHf6/aGvqsUhzeI3Ub7sAHOfmU3pzhKy891YmjjodVVv2vdpTVyK3aZapipLv08P8KEDrZNqR4EEeoPGv95azcLX3qWJuxmlxaUqse2EZ+4BIQ2InWQUUznJxYn6JXzbpEqAKe6sIjHFlPEelfIWKTCJQlP38EhpVLHcYfM7W1k8fzFVe6rItuQQC+qpDdfiam2j51XncsaQ04gboniDnqTxH9YR25vgxb+9wvoVG5RvKzsni8FXDKLD4NZKYkZMkR+Rzo408enPM4n8IolksYmaS/GThHPUUtO0PUe63lEBKaXiZI85/kgXPNrPFZCEMn4Apo1+ishuKXllpjJSRdHgLgx+8BJqtGQUi0PsgjXwzN1P4dlfiyMni29rdtD3+n5cekd/YubUBKfUlfRBUWJTvqD0ak3zwOXecl2xdULVESw2I1++tpr5Ly6kibspPo8fzHHuf/wOaJaM2g6a/BisSQNZqRqxpZKhcCl/VLKoXNQQVdWQkqm39URlx+XTY5WCz36YP2khW5ZtBo9GgbMQly2P7cU7qDSX0LxHU0Y/crNK++cPejAmTOhrjeg8Ol6Y8io71u8iNztP+eu69+jGhTf1hEIIW34cGJCasx+xL+uaH/ETiYo/lCadSaU90rweC5BEGm0DGh/pokfzuQKS5Kj2wZNXv4C5LIHDZGXrgW20vagjw564HK8QxyJhcmQS1sETf5yKNWij8SktWLp1Ff1H9uf8WzoRM8fRhTTi/hixQCSZbcSpA4eBSDyAUX4flbIQkFAZcGLEbTGMEv8f0tAZYd28LcydMY88fT1VQkJn0HHrHVdTHK6kSisn5oyQ08hNvcICTDYRAz/s6pLx3lHi+riylaSiY3IfJxUh9ehF8soR3FaYdtfT2GJWzEYzsVCCeFCHyWXGZ/NQY6lk7OTROJpa0IQWJUa0ANYLL/73LHau3kHj/IbsL9tH5z6dGHT3ReCCsPXnAUloQeJDSrcUBXcLcHqaAXmkOT1qIKUQfsIylyggBTSl+58dO5PgLg/ZNiel/lJa9mrJ5ZP7E7KCL+Qnx2SD9XEmj3yYpvZTMRpcrNu1k4FjBtBtTAulemo21PDCpBmYPDqysm14rOWMeeovYK4hXBvBFKrHjD8/h8FvIWqK4a1XzU133YQ7P0tJluWz1/PeC4soTDTC6rOTrXcrXndtpJqdlduxN7Gg5SSw5JsZevXl5J3uJFYJ+qZSuy9CQO/HoEK/JZ9xMvOcppOqA3E83/vINjvZ9lwxH73wMU0bNKE4ugd/zEeOJRvFnAz7wZng7AFFdB/ZmbgWwq8PY7c5iRfD83fMJ7DFQ47RQlmwmMa9G3LlQ1ckcwuY/j3uLFPNH6s7IAMwqgz7kQCU/vyYgJQC0wnJ8HYQSKUw/fZZ+Hd4qOfKY0/ZHtr2aseQx/oozWGQ3Yms/q+jPHTrA7iieditBXxfWc2AUQPoeksTZXDv/+wA+QEhMwAAE6tJREFUL054Hlu1EbNdzx7ddm6bOoaG5zbCVxnCXl7I1FufwlBlI6gF2G3dyoBb+jNw2EVqF7Vy3ibef+ED6kcboJXrMfpNmA1m7DlWKsMVROwhquKVVEUqyGucz4BBA2h/RTNwokDkN3iVr8eOCy1ZIhvNKPkqY0q1yYJZ8N9L2PnpHho0asDWyCbO7tsFS0TPis9Xk9Cs+CI+2p7VhCunDAZ7lES2lJjQk9gPr/3xPcLf+sk3mDkQ3k3+RXkMf3hEsiiPUXI+/RDAeAKAdFQGdibIjgdIIgPXoqyH428HVVsAnh31Jr5vaimw5LN331469DyNwU/0IlAFUinUKEDaFeflR54n7jGgGezs9lRy/oie9LqjrbJRypZ4ePmhV3D5XZgcRjZHNnLzpJs4tW/zZPHlEo2p17+EozJZonpbdANnDz2Ly+8cqCZ99dxveee596hHIZGqCPFonLz6Oeyr3oPVbSGmlzTIcbKysxVxz52Tx9jxN6KdJsauh6DBr+LoLDjQosnc2wl9gtqQB7fBjX85PH//69iqXFjsVjaHNnLP+DvR1YSYPnUGOa7GiuNkyYlz8+RroUmQGosPkz1XgfCNMe8TESDpLRRHviO3fzYjHr6WhCFOPFVgJzOI8VhspENmURKKFGmaJqVFjrodM5BSHRSC8bKMgOejvuG/rRYxtstg2sjpZJU7yCWHyrJqLPlWCro2YLf3O0wODZ0/TMN4LjtWb8OYsJMwm9kTrOacq86j9x1nKDVSssTDKxPfwB3Kw5JlY3P0W26cdAONe+VK8QBc5TDx6pfJr8rDabLwfXALRYM7cMG95yvV9vWcbcx5cj71TYUqeNFaYKLovNNofVZLqn3VLPloKZ988CmNcprgNGcRDSfoN/x8zry1HRF7tfI0i3FtluSQ8WSAtxjpNf5a3MYc1ryyhQ9mfExBrAEVNZUECryMf2QsOi9MuOthHFp9nI4sApRzzT1DyRuUT0W4BKuzngLSW6MXEf0mSJ7eTHF0F+6BLkY8fB0JQ0xud6IkkizZczRNW3WsE3pcQEqB6Wft4g5KpDJ44tppFNYWYK4xY8VO2BjnW+9WrA0s6CwxvKUVNNDcmIJ6rBYXAT3si9fQ6/o+FI1pr4BUsaSW5x94DYcnD5PDxtbEdm6ZegsN+zlUKa/sCvifK54jr9hNnt5Jif87ii7rQM+HzlVjtmX2XmY+Not8U4E6rshqZ2XQLRfjaulQiUN934Z486nZVG71kGsu4MDeUixNdfx53igCrmpVM0JOyEzqACeVq1JdWSNepvHKuJnsX15GbryAam815w4/m3NHn66+MffuBexaXU6W1U2F53vOvqqI88f3JGT2ENM50Yph1qgPiW8Mk2ewsC+6A9cgG1dPvJ64PqaK8pwg1XanpmmSUOSY288BkvhjPwL6HPNdU1Gf6V3bU8OfIq/CrVwBWaYcElYdm6o3U9C6AH+0hkitl9yIjWy9E5PRhicR4btQGedecx5dby9Sqs33hZcXJ7yBrSoPs93JLnYz8vFbyO6RNLHsNfDglTPI25NNbtxJtb+YLsOK6DShkwLi7jllzJw8m1xjPiFRU+1iXDduOKZGOnSaAV2tgQXTPmTNuxtpkt1cXO8YmsH1z12K1+3BkIqmNcaMKmYulcJEXXv7p9uYPfFt3L48HBGXOk8cMnog+V2zVfms5a+u4usPv8OWcFDl2Yu7o5lrZ1xDJDdAzGBH2w+zR/4zCSS9lX2x7TgGWxgx6boTCaQlmqb1Pp65TC6Xn9ESiYSEuIq9lAx1PYZ20I9UBo/98QVyqrLJCmXhrwqAXU+isY7yRDlxfZAciwNdcYhwRQjJORy3mNgbqebcYV25eOxZoAtR/lkJrz4wC3dVIXabm12R77h16i24e5qoiYVxekw8dP1U8vbn4g47qfWWctaIznSa1FWVLNk7q0xNdqGlIR6tmuCpNdw86TocbR1EfWEMPhMfTv2MFfPW0tDZJJlBpVmCm14ZQTA/hFVvRidFr1MVMQ+ei8VhybMfs2rmV9RPFKL36vEFvRR2yCeaFSZkD1O2t5boTjv2qAuTOUo4r4rBEy+gXo+mybq9e2HOrZ8Q3xhREmlvbDv2IRaGTbr6RKk2SeIrW335/3G1nwWkDHtpMWr/cvTtIJBqYeptbxH8xke+Pk9xeYp6duaiKR2Vj0lcMEYrHPioli/f/YK92w+gtzkoSwQ476ou9P1jOyGiUrZ0H68/MIv8yoY49Nns9OzkvybeRNYQp4pB0/sMTB45jdzSPGw+K5VVJXQZ0YluU84hFAix9/UK3p74Hs3szfHrvPhOqeTWKTeib5JKihWCTx5Zwep311OY3Yjy2jJokmDkS9cTy1WCRQEpmfco9ZJzsQjMvn8We7/YT148FytWRUupjJfitXioNFVjN+VSP9ia0IEodrNGpXkvXUa1o+tNvZTnPLEPZo1cQmxTWiLtwDHYypWThimP+880tiXmqM/x2EWZs/2zgZQCk4jEf6SG79/QlD7nqhNicgJSC1NueBPDAYjXJskabXu049JHuyUTZckMRSCxDh790+O4Evmg2SiNBOh6WREX3t4OOYrb9dEWXv+fN2jmbY4z6qQiUM4N465Df4k1ebBzAB6+bTJNYs2JVSXwBmppP7gVvSefp3IZrXpkAxve2IypzIpmSaBrG2X4Q5fCKanD5FKY89cP2fnVHhXUub10G/XOyOPmJ4cq4HwydznbNgqpz8JFA/pR0D4rCait8ODISTTRN8UWEcqHRlnNARwN7XxXuwNdoQ5fTRRHeQOau1qghYOUxr+j7fBm9Lv5Qqgnvg148cb30e1IkBUzUK7bR4OrChnwQH91gCvlVDOPgY5+OSsPSz/Jb3QMv6nzqycESCkwXQO8cuhO7ieBJF5bUW3XvYzTY8FhsOKN+6hfVMiQh3tRHUsQxkuBpNXZDtP/9BS6Sita3EGZxGDd0Ivuo5sqIO1deYC5j8zCtt1Ka3dLyitKyTrVSa8xPdE3slFVXMOzk58nttdA/exG1IZq6H51Z868o7Uise14aR9rX9mEvdJJaXkJhhZw8U39yOnpxLslxLp/buSLRStplNdUlT/9tnQT/a/uyznXnsHy91fw6bzPqS33EtUiNG3ThGtHjcDVwsmBJZW8PO018rR6aGEdlZ4K2nRqg72+lcpoGYZcyVBiomZTAv/3AfShMHtqtlCvh4tRE/9A3G3G4IXZ935KbHtYFUXeWb2FhoMLGTF5mBKFxwkkkZ3XaJqWTBLwM9sJA1IKTD9K/v6TQJLkrpUw/crniO8PqSOSqkglzc45hSHTrgC74lFAyADborz2p/8lVmwky1bIrtIKuo3oxdnj2igWir4WFj39GateWkYjXQOsmomaRDXBBgF8lhDBUAKrLgtbOIcsVx5rt62lzw3dGTL+HJU2ectrO5k5fi71ow1VBEnMHaZaq8Kv8xGNxjCH7Zg1uwoxKvGVYG1mZtQdN+BoY2Lh+NfZsGQrjQqaUBmupDRSxt2T7yGnXR7zH1nExmXbKLA3JBiOsM+7n/seuYuctoCwNmQMYrBlQRmLXv+AbL0JT7iUCtt+rvnz9bS8oK06Xplx53xqNlVQ3+KiLHSAU/o357IHLlGq7ziBdNw7tLowd0KBlALTZOCe9M2OKJGK4aXbnyexP4xFZ6ImUk2rXq3pM+ESsIgnMUyouAbTzgR//5/nCe5J0LRhW/ZVe+hxTX/aDW/EnkCUpvUM7FlZw0dPf4Bvm4dcUy4mp4n92n6q4rVEE3pctlxKdlWppKUha5AxD95A/pka7hwX0a9jzJm2gP1rSzBjxlXoxBvx4Iv4VYbcQncjdHoj67dtwNbQxpBbL6HTea2VV/2fE2ez/O01NG3Ygop4JRVaJbc9dBv12jXisT88Q+muapoWtiSijxNyhbn38et+qNancupA8RdBnpn0DPawBHo62evfSY8hvel9az8CxfDq5LmUbNxLI0cupbXFNDq7Gdfcd6WikhwHkKZomnbvzxRC//bzEw6kFJheE7GZen/4E2jR0GGYOWUu3325nQM79uMJeekx9HxGTBhBPEc4ziHiUoWowspbU15j9eL1mE1u9npq6Hn5xdw4/hJ10i7RunLAufvTEtZ/tJ6da3bj9fnZFyoGmx6rzYnPEyTb6qZzt060OKsZnS5plGQbivewBML7gnz89hK++tcaFZzgdLrIdrmpKKtCixvIb1APR6GTcwedQ4f+zZOEtCDs+2gLs6e9TdgXx2/106xLUwb81wAKWjdg/mOL+PzDFQQ8Ecr8FXTs14F7Jt+GMESEW6SYMkLkK4cXnpjJps9WoY9G8YarOaNHF/4w7TY85TD7hXn864OlGHyS4iZAz8su4IbxI47HRpqpadqIEwkiudZJAVIKQOOAh35KIqXLaH2/aS/WUiOxiigSuZHfqh7OMxzsCe7D7NRwamZckVwiWyvZs/kA9qw89viraX16K5W8Py6V1U01WM0mLDHZ4kHJ+lo81QGq4x4OVJaS5XJj1Ix0bH0q9kbJPWZIC2N2mYh4fMSCsWQamjBES4Ls+GYHMX+CYFUYl81NMBQhp0EeDbrkpKSA1NCpxm1yKJBtn7WLiuJqyI3TtkcrTI30iotOBVRsCmDSmTngKSbvNDdZTWxqc1ct9eVcWUQCYLSApzRO2abd4IngsFgpKGqcZEKawVMFJbv2Yg1rlO0vJatePU45s0FStRmO2tger2nagycaRCcVSCkw3ZJIJGZohzmCDhPBT1il67P5jIouofYRZog6oMbgB0MYYyyOK+RIIsaXpJl6JMpED04pceWIEzKW48FDFrkYEy5UiUW5lhQSLgVXMiwvuT0PJqBAWP5REjV6NMnWKxUbtQi+sA+L3oI+KtQDfZLVmM41JbswYSTqoCRUisPpoiJcTX1TfazSd6GK5EPCJm8rMcX1uKqy0MQNIEtW6irn+fBpko1XtqNylGKhxh8kqMVxmGw4pKKfbMhlIyIgskOt5Dy1g9/jw22RN6nCBML/F+au/ohAEpl7s6ZpL54MEJ10IKXANAyQPDo/YlcKkMqowIYNS7UZa9Sc3DJHoEoLYM+zEsafLPxSE0NvdpCoCaC5rHj1ERKJGE4h0Jtj+PSlSCpjTWoqhq24ZEajSW59KBjHZpe8xxDzhNC7jYpeEgz6sRgaqqpKCWtYuQwcNjuBaJAsQzaaX4j7JgLFAaxuqwJDTdSLyW1SBDah1UbR4fEHaG7KwVcBJreUUo9SEy0l15SNxWtReZiQI1DBjitIJF6rcgMIfSQSN2E0O1QW3VA4QJ7RlXTFC1jklQuVkTBWhwlfoBpzRE5wzJhtVvw1USwuA4mfBpIoz2s1TZtzskD0iwApBaZewHwU9++HJjFsavIlVkzIZBkp+6NSx0wXU7l/hNtuiAtJLJmVXfxLgh+Vjliyw2pxIvowcZ1wqvWK3qqLG9X7aDy1WlUpkmQ0h0SnxCWcR/kqhD8kFKIYMS1JkpWJT5Z0N6h6IyrcR2VVlvq1QqkVAlsySk18UMKYNEal/0n+eEwn35EqABqGqAF9LJWTWj1IVLECkjaFVLRMF6mXaJqECo7RxTR08WTd3bhR6uXGFa9JlZ5QtXiF75RMMSg5ByUAoK6YPim3AwzWNG3pyQTRLwakFJgkG8L7QDIrQqqlCfqHar90mFNmuFP6O5nfzfy8rsFK54nO/O2h3O1D75X53cwyXz/Vp8NNVPo3h/LG63reTL55asz+LflnXfc49PpqUpNJ9IXNOkDTNPn/SW8nzdg+zEPLMYro6aHpz2WiDgXI4SY2Y5AOXv5ogHTo9esC4qHXORyz8Gi/l+7gkRZC5jhlPnf6fWaMXl1jmrkQM55zLnCTpmnJlGu/QPtFgZQxuHcDk1RkWkYZikOfN3O1He9Y1CWR6rpPXQA5nJQ8lr4cD9W1LvAd7p6ZElPTtJimaeM0TRNf3i/a/iNASont84G3jsQcONKgHkkiHen3maHddamJI13/SLN1PEA60jUzP89YKAc0TRv2S9hDdfXvPwakFJjqJxIJ4QcnU7oe0tI2Q+ZkHDoxmSvyWCYg/d00PfVwKuvQ6x+rlDqU/nqsfTxKIK/UNE2M6gPHev0T9f3/KJBSYJI+iBf80UzpVNcA1rW6TxSQUn1R45p5n0NUx48+P8qJPjhfRwPEY9hMlGiaJmbCaz8Vl3+iwPJT1/mPAynduURCvIiIbh+ZSCTTa8gkHWlFH+tEHjoYdU3a4SbyeNTUzwXiYe4pbtXngLt/SYP6NwGkDEB1ksS3wNm/xEr6Dd5D8hSN1DQtWYLhV9J+NRKpDvtoIPBXoE776Vcyfr9kNyTp2cOapr37S970aO/1qwVShoTqmwJUj6N9qN/Z9z5LAeifv+bn+tUDKQNQEjckEuqCX/OAnsC+CXAe1DTtixN4zZN2qd8MkDIAJTktJ/6OASWqSwC0+qTN+km48G8OSBmAkuOWy1KuAwk++CH/3UkYqJN4SdmBfQK8AczRNE2IMr+59psFUuZIp+LrhK4i/qjOv5FZ+CoFHmEs/scciSdqrH4XQKoDVOek3AfdAXEnnLBMc8c58ELxF+BIvgT1+j2AJ3MsfndAqmuiE4mEAEpyREs05amplxBuT0bbiwqeUq9vgOWapgl4ftft/wsgHW4GE4lExwxg1UsFCEmQUOYrWU81mQ60so6X/LsCjqZpm37XaPmJh/s/Y+I5J1EuYvAAAAAASUVORK5CYII=;" vertex="1" parent="1">
          <mxGeometry x="600" y="255" width="50" height="50" as="geometry" />
        </mxCell>
        <mxCell id="0EpXQb5gd15LvrJzalUh-37" value="Indian Document Extractor - POC - V-1.0" style="text;html=1;align=center;verticalAlign=middle;resizable=0;points=[];autosize=1;strokeColor=#A50040;fillColor=#d80073;rounded=0;fontColor=#ffffff;fontStyle=1" vertex="1" parent="1">
          <mxGeometry x="230" y="580" width="240" height="30" as="geometry" />
        </mxCell>
      </root>
    </mxGraphModel>
  </diagram>
</mxfile>
